# Rhino

v -0.46059 -0.41487 0.76437
v -0.41715 -0.30107 0.8347
v -0.41495 -0.32922 0.81731
v -0.38664 -0.39553 0.77632
v -0.36823 -0.38596 0.78223
v -0.36282 -0.41048 0.76708
v -0.34588 -0.21611 0.88721
v -0.33743 -0.28729 0.84322
v -0.3327 -0.30578 0.83179
v -0.29936 -0.2978 0.83672
v -0.24549 -0.5977 0.65136
v -0.24318 -0.46445 0.73372
v -0.23379 -0.43983 0.74893
v -0.20908 -0.35732 0.79993
v -0.19773 -0.33689 0.81256
v -0.11776 -0.66442 0.61012
v -0.11341 -0.71817 0.5769
v -0.10134 -0.28365 0.84547
v -0.068939 -0.58163 0.66129
v -0.051884 -0.66587 0.60922
v -0.032488 -0.27986 0.84781
v -0.028484 -0.74162 0.5624
v -0.014769 -0.51706 0.7012
v 0.021656 -0.4732 0.72831
v 0.049526 -0.43546 0.75163
v 0.051882 -0.69222 0.59294
v 0.064636 -0.37993 0.78595
v 0.083514 -0.31621 0.82533
v 0.30013 -0.63961 0.62545
v 0.32028 -0.65773 0.61425
v 0.33681 -0.52417 0.6968
v 0.33737 -0.60583 0.64632
v 0.33782 -0.47439 0.72756
v 0.34016 -0.43675 0.75083
v 0.35013 -0.56392 0.67223
v 0.35016 -0.67105 0.60601
v 0.36376 -0.32963 0.81704
v 0.36382 -0.38931 0.78015
v 0.36559 -0.28592 0.84405
v 0.37263 -0.47546 0.7269
v 0.38399 -0.66486 0.60984
v 0.38517 -0.55217 0.67949
v 0.38605 -0.60551 0.64652
v 0.39463 -0.69501 0.59121
v 0.39575 -0.41487 0.76435
v 0.39618 -0.33389 0.8144
v 0.40052 -0.5313 0.69239
v 0.40223 -0.63641 0.62742
v 0.40769 -0.50607 0.70798
v 0.40891 -0.65588 0.61539
v 0.42713 -0.62511 0.63441
v 0.43032 -0.54889 0.68152
v 0.43414 -0.384 0.78343
v 0.43416 -0.4881 0.71909
v 0.44035 -0.35603 0.80072
v 0.44755 -0.41045 0.76708
v 0.45991 -0.37807 0.7871
vn 0 -0.52587 0.85057
vn 0 -0.52587 0.85057
vn 0 -0.52587 0.85057
vn 0 -0.52551 0.85079
vn 0 -0.52587 0.85057
vn 0 -0.52587 0.85057
vn 0 -0.52587 0.85057
vn 0 -0.52587 0.85057
vn 0 -0.52587 0.85057
vn 0 -0.52587 0.85057
vn 0 -0.52587 0.85057
vn 0 -0.52525 0.85095
vn 0 -0.52587 0.85057
vn 0 -0.52587 0.85057
vn 0 -0.52587 0.85057
vn 0 -0.52551 0.85079
vn 0 -0.52551 0.85079
vn 0.00048827 -0.52587 0.85057
vn 0 -0.52587 0.85057
vn 0 -0.52551 0.85079
vn 0 -0.52587 0.85057
vn 0 -0.52551 0.85079
vn 0 -0.52587 0.85057
vn 0 -0.52551 0.85079
vn 0 -0.52587 0.85057
vn 0 -0.52551 0.85079
vn 0 -0.52587 0.85057
vn 0 -0.52551 0.85079
vn 0 -0.52551 0.85079
vn 0 -0.52587 0.85057
vn 0 -0.52551 0.85079
vn 3.0525e-05 -0.52551 0.85079
vn 0 -0.52622 0.85035
vn 0 -0.52587 0.85057
vn 0.0004884 -0.52551 0.85079
vn 0 -0.52587 0.85057
vn 0 -0.52622 0.85035
vn 0 -0.52622 0.85035
vn 0 -0.52587 0.85057
vn 0 -0.52622 0.85035
vn 0 -0.52551 0.85079
vn 0 -0.52622 0.85035
vn 0 -0.52551 0.85079
vn 0 -0.52551 0.85079
vn 0 -0.52551 0.85079
vn 0 -0.52622 0.85035
vn 0 -0.52622 0.85035
vn 0 -0.52551 0.85079
vn 0 -0.52551 0.85079
vn 0 -0.52551 0.85079
vn 0.0001221 -0.52551 0.85079
vn 0 -0.52622 0.85035
vn 6.0999e-05 -0.52508 0.85105
vn 0 -0.52551 0.85079
vn 0 -0.52551 0.85079
vn 0 -0.52622 0.85035
vn 0 -0.52551 0.85079
f 25//27 27//15 18//13
f 27//15 21//8 18//13
f 46//2 39//1 37//3
f 38//9 37//3 28//10
f 21//8 27//15 28//10
f 9//23 8//18 2//25
f 10//19 8//18 9//23
f 14//24 15//21 10//19
f 18//13 24//32 25//27
f 18//13 14//24 24//32
f 14//24 10//19 9//23
f 15//21 14//24 18//13
f 25//27 31//29 33//20
f 7//12 8//18 10//19
f 33//20 27//15 25//27
f 38//9 53//6 46//2
f 37//3 38//9 46//2
f 45//11 53//6 38//9
f 53//6 57//5 55//4
f 45//11 56//7 53//6
f 53//6 55//4 46//2
f 40//17 34//14 33//20
f 40//17 31//29 49//22
f 40//17 49//22 54//16
f 47//26 42//31 52//28
f 31//29 47//26 49//22
f 33//20 31//29 40//17
f 38//9 28//10 27//15
f 5//34 3//30 4//36
f 6//39 5//34 4//36
f 23//41 24//32 13//37
f 24//32 14//24 13//37
f 23//41 13//37 12//43
f 6//39 12//43 13//37
f 13//37 5//34 6//39
f 6//39 4//36 1//44
f 19//51 12//43 11//52
f 16//55 20//54 19//51
f 11//52 17//56 16//55
f 16//55 19//51 11//52
f 20//54 16//55 22//57
f 23//41 12//43 19//51
f 19//51 20//54 26//53
f 43//35 35//33 32//40
f 43//35 48//42 51//38
f 48//42 43//35 32//40
f 48//42 32//40 41//47
f 47//26 31//29 42//31
f 30//48 36//49 32//40
f 32//40 24//32 29//46
f 50//45 48//42 41//47
f 41//47 36//49 44//50
f 32//40 36//49 41//47
f 30//48 32//40 29//46
f 24//32 23//41 29//46
