# Rhino

v 0.56098 0.014186 -0.74397
v 0.57479 -0.18248 -0.72162
v 0.58593 -0.0022898 -0.7036
v 0.58731 0.12667 -0.70137
v 0.59248 -0.18391 -0.69299
v 0.59264 -0.28988 -0.69274
v 0.59278 -0.3737 -0.69251
v 0.59462 0.24937 -0.68953
v 0.60423 -0.4276 -0.67398
v 0.60525 -0.22444 -0.67234
v 0.60528 -0.31306 -0.67228
v 0.6062 -0.13687 -0.67079
v 0.60974 -0.20458 -0.66506
v 0.61079 -0.36071 -0.66336
v 0.61399 -0.37638 -0.65819
v 0.61623 0.061708 -0.65456
v 0.61719 -0.41421 -0.65301
v 0.62073 -0.21125 -0.64727
v 0.62565 -0.15001 -0.63931
v 0.63181 0.12402 -0.62936
v 0.63196 0.28872 -0.62911
v 0.63198 0.24441 -0.62908
v 0.63214 -0.42506 -0.62882
v 0.63864 0.36042 -0.61831
v 0.64172 -0.22356 -0.61331
v 0.64462 -0.32012 -0.60862
v 0.64974 -0.20494 -0.60034
v 0.65221 -0.34289 -0.59634
v 0.6547 -0.25447 -0.59231
v 0.67062 0.04862 -0.56654
v 0.6835 0.28357 -0.54572
v 0.6883 -0.20133 -0.53794
v 0.68946 -0.05983 -0.53607
v 0.70666 -0.21823 -0.50823
v 0.71814 -0.06794 -0.48966
v 0.73847 0.2059 -0.45677
v 0.76 -0.075194 -0.42191
v 0.76092 0.101 -0.42043
v 0.77632 0.065075 -0.39551
v 0.798 -0.029158 -0.36042
v 0.79992 0.12384 -0.35732
v 0.82785 0.08208 -0.31213
v 0.82932 0.238 -0.30975
v 0.85384 0.2023 -0.27007
v 0.86096 0.27108 -0.25856
v 0.8913 0.2243 -0.20946
v 0.91556 0.28976 -0.17021
v 0.92576 0.045228 -0.15369
v 0.92968 0.15183 -0.14736
v 0.93076 0.1999 -0.14561
v 0.93338 0.22666 -0.14136
v 0.93731 0.018282 -0.135
v 0.94318 0.18926 -0.12551
v 0.9447 0.23441 -0.12305
v 0.95016 0.02687 -0.11421
v 0.95196 0.21937 -0.11131
v 0.95207 0.20202 -0.11112
v 0.95853 0.26411 -0.10067
v 0.96869 0.13036 -0.084226
v 0.98526 0.19162 -0.057418
vn 0.85079 0 -0.52551
vn 0.85035 0 -0.52622
vn 0.85035 0 -0.52622
vn 0.85035 0 -0.52622
vn 0.85035 0 -0.52622
vn 0.85079 0 -0.52551
vn 0.85062 0 -0.52578
vn 0.85079 0 -0.52551
vn 0.85079 0 -0.52551
vn 0.85079 0 -0.52551
vn 0.85079 0 -0.52551
vn 0.85035 0 -0.52622
vn 0.85079 0 -0.52551
vn 0.85079 0 -0.52551
vn 0.85079 0 -0.52551
vn 0.85079 0 -0.52551
vn 0.85079 0 -0.52551
vn 0.85105 0 -0.52508
vn 0.85079 0 -0.52551
vn 0.85079 0 -0.52551
vn 0.85079 0 -0.52551
vn 0.85079 0 -0.52551
vn 0.85079 0 -0.52551
vn 0.85079 0 -0.52551
vn 0.85079 0 -0.52551
vn 0.85079 0 -0.52551
vn 0.85035 0 -0.52622
vn 0.85079 0 -0.52551
vn 0.85079 0 -0.52551
vn 0.85079 0 -0.52551
vn 0.85057 0 -0.52587
vn 0.85105 0 -0.52508
vn 0.85095 0 -0.52525
vn 0.85041 0 -0.52613
vn 0.85084 0 -0.52543
vn 0.85095 0 -0.52525
vn 0.85095 0 -0.52525
vn 0.85095 0 -0.52525
vn 0.85089 0 -0.52534
vn 0.85041 0 -0.52613
vn 0.85041 0 -0.52613
vn 0.85079 0 -0.52551
vn 0.85057 0 -0.52587
vn 0.85057 0 -0.52587
vn 0.85084 0 -0.52543
vn 0.85057 0 -0.52587
vn 0.85079 0 -0.52551
vn 0.85079 0 -0.52551
vn 0.85079 0 -0.52551
vn 0.85035 0 -0.52622
vn 0.85079 0 -0.52551
vn 0.85041 0 -0.52613
vn 0.85041 0 -0.52613
vn 0.85095 0 -0.52525
vn 0.85095 0 -0.52525
vn 0.8503 0 -0.5263
vn 0.8503 0 -0.5263
vn 0.85079 0 -0.52551
vn 0.85035 0 -0.52622
vn 0.85079 0 -0.52551
f 53//54 59//38 49//34
f 60//39 59//38 53//54
f 48//35 49//34 59//38
f 48//35 55//37 52//36
f 48//35 59//38 55//37
f 60//39 57//53 56//52
f 58//40 54//57 51//56
f 58//40 56//52 54//57
f 49//34 46//33 50//55
f 49//34 50//55 53//54
f 39//45 40//30 37//29
f 35//28 34//27 32//16
f 57//53 60//39 53//54
f 58//40 60//39 56//52
f 26//17 28//26 15//22
f 26//17 34//27 28//26
f 11//19 26//17 14//20
f 14//20 26//17 15//22
f 9//24 17//23 23//25
f 17//23 28//26 23//25
f 17//23 15//22 28//26
f 7//21 14//20 15//22
f 18//8 27//11 25//9
f 29//10 25//9 27//11
f 33//15 35//28 32//16
f 6//18 26//17 11//19
f 19//12 27//11 18//8
f 34//27 26//17 32//16
f 50//55 46//33 51//56
f 51//56 46//33 47//41
f 45//42 46//33 44//32
f 37//29 35//28 39//45
f 41//44 42//31 39//45
f 43//43 44//32 41//44
f 42//31 41//44 44//32
f 45//42 47//41 46//33
f 47//41 58//40 51//56
f 45//42 44//32 43//43
f 36//47 38//46 30//58
f 31//48 30//58 22//60
f 21//49 31//48 22//60
f 8//51 24//50 21//49
f 8//51 21//49 22//60
f 33//15 38//46 39//45
f 33//15 39//45 35//28
f 19//12 5//5 12//3
f 18//8 13//6 19//12
f 13//6 18//8 10//7
f 5//5 2//4 12//3
f 5//5 19//12 13//6
f 33//15 16//14 30//58
f 20//59 30//58 16//14
f 4//1 20//59 16//14
f 30//58 31//48 36//47
f 33//15 30//58 38//46
f 4//1 22//60 20//59
f 12//3 3//13 19//12
f 16//14 3//13 1//2
f 16//14 1//2 4//1
f 3//13 12//3 1//2
f 8//51 22//60 4//1
f 39//45 42//31 40//30
