# Rhino

v 0.12012 0.94654 -0.20913
v 0.13444 0.93768 -0.10942
v 0.14154 0.9333 -0.28744
v 0.18509 0.90639 -0.25843
v 0.20184 0.89604 -0.32704
v 0.21047 0.8907 -0.19869
v 0.21281 0.88926 -0.28639
v 0.22195 0.88359 -0.080546
v 0.23189 0.87743 0.39871
v 0.2351 0.87544 0.36241
v 0.24053 0.87212 -0.17545
v 0.24323 0.87045 -0.13542
v 0.25635 0.86235 -0.28915
v 0.25643 0.86228 -0.015809
v 0.26515 0.85688 0.33925
v 0.26966 0.85413 -0.37536
v 0.26992 0.85396 -0.18668
v 0.27466 0.85103 -0.23364
v 0.27798 0.84898 -0.29661
v 0.28352 0.84556 -0.23014
v 0.30452 0.83257 -0.19581
v 0.31237 0.82773 -0.31107
v 0.33378 0.81446 0.35976
v 0.33538 0.8135 -0.19395
v 0.339 0.81125 0.0071637
v 0.35388 0.80208 -0.29534
v 0.35409 0.80194 -0.23581
v 0.36163 0.79728 -0.24797
v 0.36345 0.79612 0.39516
v 0.37357 0.78987 0.37182
v 0.3756 0.78866 -0.42364
v 0.3756 0.78866 -0.42364
v 0.37702 0.78773 0.4562
v 0.37962 0.78616 -0.18462
v 0.38339 0.7838 0.39533
v 0.39242 0.77826 -0.27107
v 0.39993 0.77358 0.29941
v 0.40418 0.77099 -0.29571
v 0.40638 0.76963 -0.33793
v 0.4066 0.76949 -0.15664
v 0.42709 0.75683 -0.27133
v 0.43586 0.75141 -0.2666
v 0.43704 0.75067 -0.16291
v 0.43719 0.75055 0.39814
v 0.43785 0.75019 -0.39354
v 0.44734 0.7443 -0.20861
v 0.4641 0.73396 -0.28985
v 0.46437 0.73379 -0.26421
v 0.47226 0.72891 -0.37918
v 0.48504 0.72101 -0.2996
v 0.4866 0.72003 -0.010296
v 0.49596 0.71427 -0.33614
v 0.50197 0.71054 -0.21414
v 0.52043 0.69915 -0.47511
v 0.52652 0.69538 -0.31543
v 0.52984 0.69333 -0.36924
v 0.52985 0.69332 -0.32631
v 0.5361 0.68945 -0.20077
v 0.55636 0.67694 -0.26732
v 0.55641 0.67691 -0.4099
v 0.56205 0.67342 -0.22051
v 0.58496 0.65926 -0.31007
v 0.60417 0.64739 -0.39011
v 0.61311 0.64187 -0.47547
v 0.61883 0.63833 -0.27509
v 0.61953 0.63789 -0.32178
v 0.63141 0.63056 -0.35532
v 0.64888 0.61975 -0.14244
v 0.6538 0.61672 -0.44818
v 0.65554 0.61564 -0.25017
v 0.67561 0.60325 -0.42924
v 0.70087 0.58763 -0.32592
v 0.72935 0.57001 -0.10308
vn 0.52551 0.85079 0
vn 0.52587 0.85057 0
vn 0.52587 0.85057 0
vn 0.52587 0.85057 0
vn 0.52613 0.85041 0
vn 0.52613 0.85041 0.00048874
vn 0.52613 0.85041 0.00024437
vn 0.52525 0.85095 0
vn 0.52508 0.85105 0
vn 0.52587 0.85057 0.00024414
vn 0.52587 0.85057 6.1034e-05
vn 0.52551 0.85079 0
vn 0.52587 0.85057 0
vn 0.5263 0.8503 0
vn 0.52543 0.85084 0.00048786
vn 0.52587 0.85057 0
vn 0.52508 0.85105 0
vn 0.52508 0.85105 0
vn 0.52551 0.85079 6.1049e-05
vn 0.52622 0.85035 6.1018e-05
vn 0.52551 0.85079 0
vn 0.52551 0.85079 0
vn 0.52508 0.85105 0
vn 0.52551 0.85079 0
vn 0.52551 0.85079 0
vn 0.52551 0.85079 0
vn 0.52551 0.85079 0
vn 0.52622 0.85035 0
vn 0.52587 0.85057 0.00048827
vn 0.52551 0.85079 0
vn 0.52587 0.85057 0
vn 0.52613 0.85041 0
vn 0.52525 0.85095 0
vn 0.52543 0.85084 0.00048786
vn 0.52551 0.85079 0
vn 0.52543 0.85084 0
vn 0.52587 0.85057 0
vn 0.52587 0.85057 0
vn 0.52551 0.85079 0
vn 0.52551 0.85079 0
vn 0.52587 0.85057 0
vn 0.52587 0.85057 0
vn 0.52587 0.85057 0.00048827
vn 0.52587 0.85057 0.00024414
vn 0.52587 0.85057 0
vn 0.52587 0.85057 0
vn 0.52551 0.85079 0
vn 0.52551 0.85079 0
vn 0.52551 0.85079 0
vn 0.52551 0.85079 0
vn 0.52551 0.85079 0
vn 0.52551 0.85079 0
vn 0.52587 0.85057 0
vn 0.52543 0.85084 0
vn 0.52587 0.85057 0.00048827
vn 0.52543 0.85084 0
vn 0.52622 0.85035 0
vn 0.52587 0.85057 0.00024414
vn 0.52551 0.85079 0
vn 0.52551 0.85079 0
vn 0.52622 0.85035 0
vn 0.52551 0.85079 0
vn 0.52551 0.85079 0
vn 0.52578 0.85062 0
vn 0.52551 0.85079 0
vn 0.52551 0.85079 0
vn 0.52551 0.85079 0
vn 0.52551 0.85079 0
vn 0.52551 0.85079 0
vn 0.52551 0.85079 0.0004884
vn 0.52551 0.85079 0
vn 0.52508 0.85105 0
vn 0.52551 0.85079 0
f 4//33 7//34 5//5
f 13//35 16//4 5//5
f 7//34 13//35 5//5
f 4//33 5//5 3//6
f 19//40 16//4 13//35
f 39//46 32//2 31//3
f 39//46 31//3 26//42
f 19//40 22//41 16//4
f 31//3 22//41 26//42
f 16//4 22//41 31//3
f 45//47 32//2 39//46
f 17//37 20//39 18//36
f 1//7 4//33 3//6
f 19//40 18//36 20//39
f 39//46 26//42 38//52
f 36//55 38//52 26//42
f 36//55 26//42 28//54
f 27//43 28//54 26//42
f 41//51 38//52 36//55
f 1//7 6//32 4//33
f 18//36 19//40 13//35
f 49//48 54//1 45//47
f 32//2 45//47 54//1
f 54//1 49//48 56//62
f 52//49 56//62 49//48
f 60//63 54//1 56//62
f 63//64 69//27 64//28
f 71//26 69//27 67//65
f 63//64 67//65 69//27
f 60//63 63//64 64//28
f 60//63 64//28 54//1
f 55//70 52//49 50//69
f 50//69 52//49 47//50
f 50//69 47//50 48//68
f 57//61 55//70 59//71
f 65//23 66//66 62//60
f 57//61 59//71 62//60
f 55//70 57//61 52//49
f 72//25 71//26 67//65
f 41//51 42//56 47//50
f 52//49 57//61 56//62
f 66//66 72//25 67//65
f 8//9 6//32 2//8
f 1//7 2//8 6//32
f 12//10 6//32 8//9
f 17//37 21//45 20//39
f 12//10 21//45 17//37
f 21//45 12//10 25//19
f 6//32 12//10 11//38
f 14//11 25//19 12//10
f 11//38 12//10 17//37
f 25//19 24//44 21//45
f 9//15 15//13 10//14
f 33//16 23//12 9//15
f 15//13 9//15 23//12
f 23//12 37//18 25//19
f 30//30 44//17 37//18
f 30//30 37//18 23//12
f 35//31 29//29 33//16
f 23//12 33//16 29//29
f 35//31 44//17 30//30
f 30//30 23//12 29//29
f 33//16 44//17 35//31
f 23//12 25//19 14//11
f 34//53 27//43 24//44
f 24//44 25//19 34//53
f 41//51 36//55 42//56
f 46//57 48//68 42//56
f 66//66 65//23 70//24
f 65//23 62//60 59//71
f 59//71 61//72 65//23
f 72//25 66//66 70//24
f 42//56 48//68 47//50
f 46//57 53//67 48//68
f 34//53 28//54 27//43
f 53//67 46//57 43//58
f 43//58 40//59 51//20
f 34//53 25//19 40//59
f 53//67 43//58 51//20
f 25//19 51//20 40//59
f 58//73 53//67 51//20
f 65//23 68//21 73//22
f 68//21 65//23 61//72
f 51//20 68//21 58//73
f 58//73 68//21 61//72
