# Rhino

v -0.92107 -0.45156 0.054598
v -0.91182 -0.45728 0.0066836
v -0.89328 -0.46874 0.080727
v -0.86365 -0.48705 -0.030349
v -0.86363 -0.48706 0.11992
v -0.86182 -0.48819 -0.15666
v -0.85808 -0.49049 0.041519
v -0.84881 -0.49622 0.1221
v -0.83959 -0.50193 -0.14578
v -0.83772 -0.50308 -0.041245
v -0.83215 -0.50652 0.032801
v -0.83212 -0.50653 0.20268
v -0.82278 -0.5123 0.2106
v -0.81728 -0.51571 -0.092122
v -0.81353 -0.51802 0.16269
v -0.80802 -0.52144 -0.14004
v -0.80625 -0.52253 -0.17192
v -0.79499 -0.52947 0.23673
v -0.79185 -0.53143 -0.068219
v -0.78261 -0.53714 -0.073649
v -0.77657 -0.54086 0.021902
v -0.77103 -0.54429 -0.08046
v -0.76537 -0.54779 0.12565
v -0.76534 -0.54779 0.27592
v -0.7641 -0.54857 0.038447
v -0.75986 -0.5512 -0.17707
v -0.75979 -0.55123 0.19752
v -0.75803 -0.55234 -0.30339
v -0.75636 -0.55336 -0.075977
v -0.75429 -0.55464 -0.1052
v -0.75052 -0.55695 0.2781
v -0.74323 -0.56147 -0.017306
v -0.74023 -0.56332 0.070121
v -0.73943 -0.56381 0.11476
v -0.73919 -0.56396 -0.0073459
v -0.73656 -0.56559 -0.06993
v -0.73579 -0.56608 -0.2925
v -0.7343 -0.56699 0.0047325
v -0.73393 -0.56723 -0.18797
v -0.73386 -0.56725 0.1888
v -0.73383 -0.56726 0.35868
v -0.72835 -0.57067 -0.11392
v -0.71913 -0.57636 0.098115
v -0.71721 -0.57755 0.027641
v -0.71077 -0.58153 0.097905
v -0.70985 -0.5821 -0.015399
v -0.70985 -0.58211 -0.2533
v -0.70895 -0.58266 -0.015143
v -0.70616 -0.58437 0.074154
v -0.70245 -0.58669 -0.31864
v -0.70059 -0.58783 -0.30122
v -0.68942 -0.59472 0.053769
v -0.68383 -0.59817 0.2672
v -0.68206 -0.59928 -0.22718
v -0.6784 -0.60154 -0.052165
v -0.67828 -0.6016 0.1779
v -0.67457 -0.60389 0.21928
v -0.67278 -0.60502 -0.12482
v -0.66724 -0.60844 -0.22718
v -0.66421 -0.61031 -0.067184
v -0.6598 -0.61303 -0.089976
v -0.65932 -0.61333 -0.09035
v -0.65908 -0.61348 -0.10665
v -0.6581 -0.61408 0.069338
v -0.65718 -0.61464 0.20591
v -0.65603 -0.61535 0.29332
v -0.65423 -0.61647 0.014561
v -0.65243 -0.6176 -0.33825
v -0.6506 -0.61873 -0.46457
v -0.65001 -0.61909 -0.22192
v -0.64686 -0.62104 -0.26638
v -0.64494 -0.62221 0.13869
v -0.6423 -0.62384 0.13885
v -0.63979 -0.62539 0.067503
v -0.63582 -0.62784 0.13922
v -0.633 -0.6296 -0.16366
v -0.63188 -0.63029 -0.21638
v -0.62837 -0.63247 -0.45368
v -0.62829 -0.6325 0.0058444
v -0.62826 -0.63251 0.17571
v -0.62708 -0.63324 0.18276
v -0.6265 -0.63363 -0.34915
v -0.62643 -0.63366 -0.13193
v -0.62641 -0.63366 0.18225
v -0.62638 -0.63367 0.33252
v -0.62579 -0.63404 0.13979
v -0.62472 -0.6347 0.065991
v -0.62458 -0.63479 0.055931
v -0.62139 -0.63677 -0.11951
v -0.62093 -0.63706 -0.2751
v -0.62084 -0.6371 0.25412
v -0.61164 -0.6428 -0.12701
v -0.61162 -0.64281 0.023262
v -0.61156 -0.64283 0.33469
v -0.61113 -0.64312 -0.16241
v -0.61044 -0.64354 -0.20983
v -0.61013 -0.64372 0.0022821
v -0.60981 -0.64394 -0.25332
v -0.60235 -0.64853 0.066817
v -0.6018 -0.64887 0.097211
v -0.60158 -0.64901 0.049618
v -0.60102 -0.64935 0.14121
v -0.60047 -0.64969 0.17135
v -0.59679 -0.65197 0.025434
v -0.59671 -0.65202 0.0624
v -0.59642 -0.65219 0.2535
v -0.59503 -0.65308 -0.47982
v -0.59488 -0.65314 0.41527
v -0.59231 -0.65474 0.047074
v -0.5918 -0.65505 -0.0013116
v -0.5902 -0.65604 0.057291
v -0.58758 -0.65768 -0.24244
v -0.58686 -0.65811 -0.20264
v -0.58612 -0.65857 -0.16098
v -0.58571 -0.65883 -0.13791
v -0.58104 -0.6617 0.10355
v -0.58059 -0.66198 0.10369
v -0.58011 -0.66228 0.10384
v -0.5746 -0.66569 -0.19889
v -0.57271 -0.66685 -0.0050562
v -0.569 -0.66914 0.040674
v -0.56898 -0.66915 0.14304
v -0.56535 -0.67141 -0.286
v -0.56348 -0.67256 -0.15969
v -0.55981 -0.67484 -0.38836
v -0.55423 -0.67828 -0.26858
v -0.53937 -0.68746 -0.044267
v -0.53379 -0.6909 0.13214
v -0.53377 -0.69091 0.25192
v -0.53293 -0.69145 -0.24299
v -0.53201 -0.69202 -0.32521
v -0.53034 -0.69303 0.051164
v -0.51902 -0.70004 -0.17712
v -0.51839 -0.70042 -0.043068
v -0.51712 -0.7012 0.073334
v -0.51711 -0.70122 -0.222
v -0.51529 -0.70233 0.2664
v -0.50791 -0.70691 -0.20979
v -0.50599 -0.70808 0.19529
v -0.50422 -0.70918 -0.042257
v -0.50231 -0.71036 0.047198
v -0.50047 -0.7115 -0.02903
v -0.49987 -0.71187 -0.042009
v -0.49722 -0.7135 0.070703
v -0.4958 -0.71439 -0.23586
v -0.49369 -0.7157 -0.23387
v -0.49122 -0.71722 -0.11397
v -0.48748 -0.71952 0.079861
v -0.48188 -0.72297 0.31071
v -0.47746 -0.72572 -0.080018
v -0.47454 -0.72752 -0.079125
v -0.46892 -0.73098 0.28675
v -0.46717 -0.73209 -0.36007
v -0.46711 -0.73211 0.0014535
v -0.46199 -0.73528 -0.041845
v -0.45605 -0.73896 -0.32087
v -0.45415 -0.74012 -0.022506
v -0.45028 -0.74252 -0.11163
v -0.44686 -0.74463 -0.10842
v -0.44236 -0.74741 -0.15371
v -0.44121 -0.74813 -0.15971
v -0.44115 -0.74815 0.16043
v -0.43003 -0.75502 0.19963
v -0.4282 -0.75616 0.068961
v -0.42662 -0.75714 -0.089385
v -0.42267 -0.75958 -0.08567
v -0.42083 -0.76072 -0.21199
v -0.41524 -0.76417 0.038467
v -0.4116 -0.76643 -0.41888
v -0.40787 -0.76873 -0.24248
v -0.40419 -0.77101 -0.39057
v -0.40288 -0.77181 -0.10771
v -0.40041 -0.77333 0.090734
v -0.39725 -0.77529 -0.19351
v -0.39553 -0.77635 -0.1159
v -0.39481 -0.77678 0.30852
v -0.39456 -0.77695 -0.19558
v -0.39304 -0.77789 -0.19675
v -0.39302 -0.7779 -0.046475
v -0.39121 -0.77903 -0.32306
v -0.3889 -0.78045 -0.10464
v -0.38857 -0.78065 -0.10936
v -0.38747 -0.78133 -0.12488
v -0.38647 -0.78195 -0.029291
v -0.38558 -0.78249 0.10162
v -0.38185 -0.78479 0.27802
v -0.38004 -0.78592 -0.00074432
v -0.3782 -0.78706 -0.0443
v -0.37816 -0.78707 0.12993
v -0.37532 -0.78884 -0.030409
v -0.37455 -0.78933 -0.38404
v -0.37372 -0.78983 0.00421
v -0.36898 -0.79277 -0.31218
v -0.36711 -0.79392 -0.20764
v -0.36708 -0.79393 -0.031235
v -0.36707 -0.79394 0.0094191
v -0.36701 -0.79396 0.33029
v -0.36154 -0.79736 -0.13359
v -0.36151 -0.79737 0.036276
v -0.35225 -0.80309 0.02103
v -0.34852 -0.80539 0.13646
v -0.33563 -0.81338 -0.33832
v -0.30596 -0.83171 -0.14449
v -0.30042 -0.83514 -0.24685
v -0.27262 -0.85231 -0.1837
v -0.24852 -0.86721 -0.068282
v -0.23555 -0.87522 -0.092241
v -0.20778 -0.89238 -0.21856
v -0.19666 -0.89926 -0.17936
v -0.16144 -0.92102 -0.070478
v -0.15221 -0.92673 -0.27738
v -0.14848 -0.92903 -0.10097
v -0.1448 -0.93131 -0.24906
v -0.13365 -0.93819 -0.048703
v -0.11516 -0.94963 -0.24254
vn -0.52587 -0.85057 6.1034e-05
vn -0.52587 -0.85057 3.0517e-05
vn -0.52587 -0.85057 6.1034e-05
vn -0.52587 -0.85057 3.8146e-05
vn -0.52587 -0.85057 3.6239e-05
vn -0.52551 -0.85079 3.6248e-05
vn -0.52622 -0.85035 6.1018e-05
vn -0.52551 -0.85079 0
vn -0.52551 -0.85079 0
vn -0.52551 -0.85079 6.1049e-05
vn -0.52551 -0.85079 6.1049e-05
vn -0.52508 -0.85105 6.0999e-05
vn -0.52551 -0.85079 6.1049e-05
vn -0.52587 -0.85057 0
vn -0.52587 -0.85057 0.00012207
vn -0.52551 -0.85079 0.0001221
vn -0.52622 -0.85035 0
vn -0.52551 -0.85079 0
vn -0.52551 -0.85079 0
vn -0.52551 -0.85079 0.0002442
vn -0.52508 -0.85105 0
vn -0.52551 -0.85079 0
vn -0.52551 -0.85079 0
vn -0.52551 -0.85079 0
vn -0.52587 -0.85057 0
vn -0.52587 -0.85057 0
vn -0.52587 -0.85057 0
vn -0.52622 -0.85035 0
vn -0.52551 -0.85079 0
vn -0.52587 -0.85057 0
vn -0.52587 -0.85057 0
vn -0.52508 -0.85105 0
vn -0.52508 -0.85105 0
vn -0.52622 -0.85035 0.00048814
vn -0.52551 -0.85079 0
vn -0.52551 -0.85079 0
vn -0.52508 -0.85105 0
vn -0.52622 -0.85035 0
vn -0.52622 -0.85035 0
vn -0.52551 -0.85079 0
vn -0.52551 -0.85079 0.0004884
vn -0.52551 -0.85079 0
vn -0.52508 -0.85105 0
vn -0.52551 -0.85079 0
vn -0.52551 -0.85079 0.0002442
vn -0.52551 -0.85079 0
vn -0.52551 -0.85079 0
vn -0.52622 -0.85035 0
vn -0.52622 -0.85035 0
vn -0.52622 -0.85035 0
vn -0.52551 -0.85079 0
vn -0.52551 -0.85079 0
vn -0.52551 -0.85079 0
vn -0.52622 -0.85035 0
vn -0.52551 -0.85079 0
vn -0.52551 -0.85079 3.0525e-05
vn -0.52622 -0.85035 0
vn -0.52551 -0.85079 0
vn -0.52622 -0.85035 0
vn -0.52622 -0.85035 0
vn -0.52622 -0.85035 0
vn -0.52551 -0.85079 0
vn -0.52551 -0.85079 6.1049e-05
vn -0.52551 -0.85079 3.8156e-05
vn -0.52622 -0.85035 6.1018e-05
vn -0.52551 -0.85079 0
vn -0.52551 -0.85079 0
vn -0.52551 -0.85079 0
vn -0.52551 -0.85079 6.1049e-05
vn -0.52551 -0.85079 0
vn -0.52551 -0.85079 0
vn -0.52622 -0.85035 0
vn -0.52551 -0.85079 0
vn -0.52622 -0.85035 0
vn -0.52622 -0.85035 0
vn -0.52622 -0.85035 0.00048814
vn -0.52622 -0.85035 0
vn -0.52551 -0.85079 0
vn -0.52551 -0.85079 0
vn -0.52551 -0.85079 0
vn -0.52622 -0.85035 0.00048814
vn -0.52508 -0.85105 0
vn -0.52551 -0.85079 0
vn -0.52551 -0.85079 0
vn -0.52622 -0.85035 0
vn -0.52622 -0.85035 0
vn -0.52622 -0.85035 0
vn -0.52551 -0.85079 0
vn -0.52551 -0.85079 0
vn -0.52622 -0.85035 0
vn -0.52508 -0.85105 0
vn -0.52587 -0.85057 0
vn -0.52587 -0.85057 0
vn -0.52622 -0.85035 0
vn -0.52622 -0.85035 0
vn -0.52551 -0.85079 0
vn -0.52622 -0.85035 0
vn -0.52587 -0.85057 0
vn -0.52551 -0.85079 0
vn -0.52587 -0.85057 0
vn -0.52551 -0.85079 0
vn -0.52587 -0.85057 0
vn -0.52551 -0.85079 0
vn -0.52587 -0.85057 0
vn -0.52508 -0.85105 0
vn -0.52525 -0.85095 0
vn -0.5263 -0.8503 0
vn -0.52613 -0.85041 0
vn -0.52613 -0.85041 0
vn -0.5263 -0.8503 0
vn -0.52587 -0.85057 0
vn -0.5263 -0.8503 0.00012217
vn -0.52525 -0.85095 0
vn -0.52613 -0.85041 6.1092e-05
vn -0.52613 -0.85041 0.00012218
vn -0.52543 -0.85084 0.00012197
vn -0.52587 -0.85057 0
vn -0.52587 -0.85057 0
vn -0.52551 -0.85079 6.1049e-05
vn -0.52543 -0.85084 6.0983e-05
vn -0.52551 -0.85079 6.1049e-05
vn -0.52622 -0.85035 0
vn -0.52622 -0.85035 0
vn -0.52578 -0.85062 0
vn -0.52551 -0.85079 0.0002442
vn -0.52551 -0.85079 0
vn -0.52508 -0.85105 0
vn -0.52508 -0.85105 3.0499e-05
vn -0.52508 -0.85105 3.4312e-05
vn -0.52622 -0.85035 3.8136e-05
vn -0.52551 -0.85079 0.0001221
vn -0.52622 -0.85035 0
vn -0.52622 -0.85035 0
vn -0.52622 -0.85035 3.0509e-05
vn -0.52551 -0.85079 3.0525e-05
vn -0.52551 -0.85079 3.0525e-05
vn -0.52551 -0.85079 0.0001221
vn -0.52551 -0.85079 3.0525e-05
vn -0.52551 -0.85079 0
vn -0.52551 -0.85079 0
vn -0.52551 -0.85079 6.1049e-05
vn -0.52551 -0.85079 3.8156e-05
vn -0.52551 -0.85079 0
vn -0.52551 -0.85079 0
vn -0.52622 -0.85035 0
vn -0.52622 -0.85035 0
vn -0.52551 -0.85079 0
vn -0.52508 -0.85105 0
vn -0.52508 -0.85105 0
vn -0.52622 -0.85035 3.8136e-05
vn -0.52551 -0.85079 3.6248e-05
vn -0.52551 -0.85079 3.0525e-05
vn -0.52551 -0.85079 0
vn -0.52551 -0.85079 6.1049e-05
vn -0.52551 -0.85079 0.0001221
vn -0.52551 -0.85079 0
vn -0.52551 -0.85079 0.0001221
vn -0.52622 -0.85035 0.00012204
vn -0.52551 -0.85079 0
vn -0.52551 -0.85079 0.0001221
vn -0.52551 -0.85079 0
vn -0.52551 -0.85079 0.0002442
vn -0.52622 -0.85035 0.00024407
vn -0.52622 -0.85035 0.00024407
vn -0.52551 -0.85079 0
vn -0.52622 -0.85035 0
vn -0.52551 -0.85079 0
vn -0.52551 -0.85079 0.0002442
vn -0.52551 -0.85079 0
vn -0.52622 -0.85035 0.00012204
vn -0.52551 -0.85079 0
vn -0.52551 -0.85079 0
vn -0.52578 -0.85062 0.00012193
vn -0.52551 -0.85079 0
vn -0.52622 -0.85035 0.00012204
vn -0.52622 -0.85035 0
vn -0.52551 -0.85079 0
vn -0.52551 -0.85079 0
vn -0.52551 -0.85079 6.1049e-05
vn -0.52622 -0.85035 0
vn -0.52622 -0.85035 0
vn -0.52622 -0.85035 0.00012204
vn -0.52551 -0.85079 0.0001221
vn -0.52551 -0.85079 0.0002442
vn -0.52551 -0.85079 0
vn -0.52622 -0.85035 0
vn -0.52551 -0.85079 0
vn -0.52551 -0.85079 0
vn -0.52551 -0.85079 0
vn -0.52551 -0.85079 0
vn -0.52551 -0.85079 0.0002442
vn -0.52622 -0.85035 0
vn -0.52551 -0.85079 0
vn -0.52508 -0.85105 0
vn -0.52551 -0.85079 0
vn -0.52551 -0.85079 0
vn -0.52551 -0.85079 0
vn -0.52551 -0.85079 0
vn -0.52622 -0.85035 0
vn -0.52551 -0.85079 0.0002442
vn -0.52622 -0.85035 0
vn -0.52551 -0.85079 0
vn -0.52551 -0.85079 0
vn -0.52587 -0.85057 0
vn -0.52551 -0.85079 0
vn -0.52587 -0.85057 0
vn -0.52587 -0.85057 0
vn -0.52587 -0.85057 6.1034e-05
vn -0.52587 -0.85057 0
vn -0.52587 -0.85057 0
vn -0.52551 -0.85079 0
vn -0.52551 -0.85079 0
vn -0.52622 -0.85035 6.1018e-05
vn -0.52622 -0.85035 3.0509e-05
vn -0.52587 -0.85057 0
f 215//108 213//109 211//107
f 193//103 180//101 202//102
f 178//100 180//101 193//103
f 213//109 208//106 211//107
f 213//109 209//110 208//106
f 205//111 208//106 209//110
f 193//103 194//104 178//100
f 204//105 203//117 194//104
f 198//118 178//100 194//104
f 177//99 178//100 198//118
f 205//111 204//105 208//106
f 171//93 153//90 169//91
f 191//92 171//93 169//91
f 131//95 153//90 156//94
f 171//93 156//94 153//90
f 131//95 125//89 153//90
f 174//204 167//195 177//99
f 177//99 198//118 174//204
f 138//196 145//96 146//97
f 145//96 138//196 136//197
f 138//196 146//97 167//195
f 130//193 131//95 145//96
f 167//195 146//97 170//98
f 177//99 167//195 170//98
f 145//96 136//197 130//193
f 205//111 203//117 204//105
f 183//207 198//118 182//206
f 198//118 188//119 181//209
f 174//204 183//207 161//203
f 198//118 183//207 174//204
f 181//209 175//205 182//206
f 198//118 181//209 182//206
f 181//209 172//210 175//205
f 160//202 183//207 175//205
f 210//115 212//113 214//114
f 207//112 212//113 210//115
f 210//115 206//116 207//112
f 188//119 179//208 181//209
f 206//116 203//117 207//112
f 184//215 179//208 188//119
f 205//111 207//112 203//117
f 161//203 183//207 160//202
f 172//210 160//202 175//205
f 159//123 160//202 172//210
f 115//200 133//201 147//125
f 147//125 133//201 160//202
f 158//124 147//125 160//202
f 158//124 160//202 159//123
f 159//123 172//210 165//212
f 155//213 151//122 165//212
f 172//210 166//211 165//212
f 147//125 150//126 134//10
f 140//8 134//10 150//126
f 134//10 140//8 142//9
f 150//126 143//7 140//8
f 143//7 150//126 151//122
f 143//7 151//122 155//213
f 165//212 151//122 159//123
f 198//118 194//104 203//117
f 147//125 134//10 127//11
f 123//194 125//89 131//95
f 123//194 82//88 125//89
f 90//185 82//88 123//194
f 68//84 82//88 90//185
f 68//84 78//87 82//88
f 69//85 107//86 78//87
f 123//194 131//95 130//193
f 119//192 130//193 136//197
f 96//187 98//188 112//190
f 77//186 96//187 76//144
f 112//190 113//191 96//187
f 113//191 95//148 96//187
f 112//190 98//188 126//189
f 68//84 90//185 71//80
f 78//87 68//84 69//85
f 51//83 68//84 71//80
f 37//76 28//74 50//75
f 26//73 28//74 37//76
f 47//82 51//83 71//80
f 58//184 59//78 76//144
f 76//144 59//78 70//79
f 54//81 47//82 71//80
f 39//77 26//73 37//76
f 70//79 77//186 76//144
f 26//73 39//77 42//177
f 77//186 70//79 71//80
f 77//186 71//80 90//185
f 119//192 114//199 113//191
f 119//192 124//198 114//199
f 95//148 114//199 115//200
f 95//148 76//144 96//187
f 83//145 58//184 76//144
f 92//147 95//148 115//200
f 114//199 95//148 113//191
f 89//146 92//147 127//11
f 115//200 127//11 92//147
f 97//129 60//180 89//146
f 83//145 89//146 63//183
f 89//146 62//182 63//183
f 62//182 60//180 61//181
f 60//180 62//182 89//146
f 55//179 60//180 79//130
f 136//197 124//198 119//192
f 63//183 58//184 83//145
f 30//176 42//177 36//178
f 30//176 16//72 26//73
f 30//176 26//73 42//177
f 9//68 6//66 17//67
f 42//177 39//77 58//184
f 29//175 30//176 36//178
f 36//178 32//136 29//175
f 29//175 32//136 20//173
f 16//72 20//173 14//71
f 20//173 16//72 30//176
f 14//71 20//173 19//70
f 20//173 32//136 19//70
f 20//173 22//174 29//175
f 46//135 36//178 55//179
f 6//66 9//68 4//65
f 89//146 127//11 120//150
f 59//78 58//184 39//77
f 147//125 127//11 115//200
f 190//120 195//121 187//5
f 192//4 187//5 195//121
f 184//215 190//120 187//5
f 190//120 184//215 188//119
f 187//5 157//214 184//215
f 154//6 155//213 157//214
f 195//121 196//2 192//4
f 192//4 196//2 199//3
f 157//214 187//5 154//6
f 168//13 164//15 141//12
f 164//15 168//13 173//14
f 200//1 196//2 195//121
f 132//149 120//150 127//11
f 89//146 120//150 110//151
f 89//146 110//151 97//129
f 104//152 97//129 110//151
f 104//152 101//127 93//128
f 97//129 104//152 93//128
f 135//18 132//149 141//12
f 116//158 105//159 111//155
f 109//153 121//154 111//155
f 104//152 109//153 101//127
f 101//127 109//153 111//155
f 101//127 105//159 99//160
f 101//127 111//155 105//159
f 132//149 127//11 141//12
f 101//127 99//160 88//133
f 79//130 60//180 97//129
f 189//26 185//24 201//25
f 185//24 189//26 162//23
f 141//12 164//15 144//16
f 148//17 135//18 144//16
f 176//32 186//30 197//31
f 152//29 186//30 176//32
f 163//27 139//28 162//23
f 163//27 162//23 189//26
f 176//32 149//33 152//29
f 149//33 137//34 152//29
f 122//19 102//20 118//157
f 102//20 100//161 116//158
f 116//158 117//156 102//20
f 118//157 102//20 117//156
f 111//155 117//156 116//158
f 100//161 87//132 99//160
f 118//157 135//18 122//19
f 132//149 135//18 118//157
f 129//35 139//28 137//34
f 152//29 137//34 139//28
f 139//28 129//35 103//21
f 84//163 103//21 106//36
f 106//36 103//21 129//35
f 103//21 86//164 102//20
f 139//28 103//21 128//22
f 128//22 162//23 139//28
f 102//20 86//164 100//161
f 141//12 144//16 135//18
f 44//140 67//138 52//139
f 55//179 67//138 48//141
f 46//135 55//179 48//141
f 67//138 44//140 48//141
f 46//135 48//141 38//142
f 55//179 79//130 67//138
f 87//132 88//133 99//160
f 74//131 72//168 64//137
f 67//138 74//131 64//137
f 45//170 49//143 64//137
f 49//143 45//170 43//171
f 72//168 45//170 64//137
f 38//142 49//143 33//172
f 34//169 45//170 56//45
f 67//138 79//130 74//131
f 43//171 33//172 49//143
f 35//134 21//56 32//136
f 46//135 38//142 35//134
f 38//142 21//56 35//134
f 10//69 4//65 9//68
f 10//69 11//57 4//65
f 10//69 21//56 11//57
f 2//64 4//65 7//61
f 10//69 19//70 21//56
f 21//56 38//142 25//55
f 21//56 19//70 32//136
f 33//172 23//54 25//55
f 25//55 38//142 33//172
f 2//64 7//61 1//63
f 7//61 3//62 1//63
f 11//57 8//58 7//61
f 11//57 7//61 4//65
f 33//172 34//169 23//54
f 100//161 74//131 87//132
f 32//136 36//178 46//135
f 103//21 84//163 86//164
f 72//168 74//131 73//167
f 73//167 74//131 75//165
f 80//166 73//167 75//165
f 45//170 72//168 56//45
f 85//39 91//40 94//37
f 106//36 81//162 84//163
f 85//39 94//37 108//38
f 65//44 56//45 81//162
f 65//44 81//162 91//40
f 66//41 53//42 91//40
f 91//40 57//43 65//44
f 57//43 91//40 53//42
f 72//168 81//162 56//45
f 106//36 91//40 81//162
f 75//165 100//161 86//164
f 27//50 40//46 31//47
f 23//54 40//46 27//50
f 34//169 40//46 23//54
f 8//58 12//59 5//60
f 8//58 5//60 7//61
f 27//50 15//53 23//54
f 15//53 27//50 13//52
f 40//46 34//169 56//45
f 24//49 31//47 41//48
f 31//47 24//49 27//50
f 13//52 27//50 18//51
f 74//131 100//161 75//165
f 94//37 91//40 106//36
f 143//7 155//213 154//6
v -0.38741 -0.78135 0.23229
v -0.37816 -0.78708 0.18437
v -0.35962 -0.79853 0.25842
v -0.32999 -0.81684 0.14734
v -0.32997 -0.81685 0.29761
v -0.32817 -0.81798 0.021028
v -0.32443 -0.82028 0.21921
v -0.31515 -0.82601 0.29979
v -0.30593 -0.83172 0.031911
v -0.30406 -0.83287 0.13645
v -0.29849 -0.83631 0.21049
v -0.29846 -0.83632 0.38036
v -0.27259 -0.85233 0.0057714
v -0.24291 -0.87066 0.19959
v -0.23737 -0.87408 0.097232
v -0.20957 -0.89126 0.16039
v -0.18547 -0.90615 0.27581
v -0.1725 -0.91417 0.25185
v -0.14474 -0.93133 0.12553
v -0.13361 -0.9382 0.16472
v -0.098396 -0.95996 0.27361
v -0.089166 -0.96568 0.066713
v -0.085432 -0.96798 0.24312
v -0.081752 -0.97026 0.095023
v -0.070603 -0.97714 0.29538
v -0.052109 -0.98858 0.10155
vn -0.52551 -0.85079 0
vn -0.52587 -0.85057 0
vn -0.52551 -0.85079 0
vn -0.52551 -0.85079 0
vn -0.52551 -0.85079 0
vn -0.52551 -0.85079 6.1049e-05
vn -0.52543 -0.85084 3.8114e-05
vn -0.52587 -0.85057 6.1034e-05
vn -0.52587 -0.85057 0
vn -0.52551 -0.85079 0
vn -0.52613 -0.85041 0
vn -0.52534 -0.85089 0.00012197
vn -0.52617 -0.85038 0.00012218
vn -0.52534 -0.85089 0.00012197
vn -0.52525 -0.85095 0
vn -0.52525 -0.85095 0
vn -0.52525 -0.85095 0
vn -0.52534 -0.85089 0
vn -0.52534 -0.85089 0
vn -0.52534 -0.85089 0
vn -0.52543 -0.85084 0
vn -0.52551 -0.85079 0
vn -0.52587 -0.85057 0
vn -0.52587 -0.85057 0
vn -0.52587 -0.85057 0
vn -0.52551 -0.85079 0
f 239//229 237//227 241//228
f 234//226 237//227 239//229
f 231//231 234//226 235//230
f 239//229 235//230 234//226
f 225//224 231//231 229//237
f 231//231 230//225 234//226
f 221//221 228//222 224//223
f 219//220 221//221 224//223
f 224//223 225//224 219//220
f 225//224 230//225 231//231
f 225//224 226//238 219//220
f 219//220 222//216 217//219
f 229//237 231//231 233//232
f 236//235 233//232 238//233
f 232//236 229//237 233//232
f 238//233 240//234 236//235
f 233//232 236//235 232//236
f 217//219 222//216 216//218
f 223//239 222//216 226//238
f 218//217 216//218 222//216
f 226//238 222//216 219//220
f 220//241 223//239 227//240
f 223//239 220//241 222//216
f 225//224 229//237 226//238
