# Rhino

v -1 -1 -1
v -1 -1 1
v -1 1 -1
v -1 1 1
v 1 -1 -1
v 1 -1 1
v 1 1 -1
v 1 1 1
vn 0 0 1
vn 0 0 1
vn 0 0 1
vn 0 0 1
vn 0 0 -1
vn 0 0 -1
vn 0 0 -1
vn 0 0 -1
vn 0 1 0
vn 0 1 0
vn 0 1 0
vn 0 1 0
vn -1 0 0
vn -1 0 0
vn -1 0 0
vn -1 0 0
vn 0 -1 0
vn 0 -1 0
vn 0 -1 0
vn 0 -1 0
vn 1 0 0
vn 1 0 0
vn 1 0 0
vn 1 0 0
f 3//1 1//3 5//4 7//2
f 2//5 4//7 8//8 6//6
f 1//9 2//11 6//12 5//10
f 5//13 6//15 8//16 7//14
f 7//17 8//19 4//20 3//18
f 3//21 4//23 2//24 1//22
