# Rhino

v -0.88319 -0.045015 0.47302
v -0.88318 -0.045025 0.47303
v -0.88318 0.044785 0.47306
v -0.88317 0.044797 0.47307
v -0.88305 -0.044837 -0.4733
v -0.88304 -0.044846 -0.4733
v -0.88304 0.044963 -0.4733
v -0.88304 0.044976 -0.47331
v -0.83829 -0.072812 0.54567
v -0.83829 -0.072806 0.54568
v -0.83828 0.072509 0.54573
v -0.83827 0.072507 0.54575
v -0.83813 -0.072606 -0.54594
v -0.83813 -0.0726 -0.54595
v -0.83812 0.072715 -0.54595
v -0.83811 0.072713 -0.54596
v -0.81053 -0.00017933 0.59062
v -0.81053 -0.00016581 0.59061
v -0.81036 4.3254e-05 -0.59086
v -0.81036 5.6772e-05 -0.59085
v -0.59074 0.81045 3.4197e-05
v -0.59073 0.81045 2.0678e-05
v -0.54585 0.83819 -0.072645
v -0.54584 0.8382 -0.072647
v -0.54582 0.83821 0.072668
v -0.54581 0.83822 0.072674
v -0.47319 0.8831 -0.044923
v -0.47318 0.88311 -0.044911
v -0.47317 0.88311 0.044898
v -0.47316 0.88312 0.044889
v -0.11756 -0.044887 -4.2652e-05
v -0.11756 -0.044887 -8.7382e-06
v -0.11756 0.044882 -1.6071e-05
v -0.11756 0.044882 -1.4958e-06
v -0.11756 0.044897 -3.8634e-05
v -0.11756 0.044897 2.1074e-05
v -0.11755 -0.044913 -4.514e-05
v -0.11755 -0.044913 -6.2571e-06
v -0.11755 0.044909 -1.185e-05
v -0.11755 0.044919 1.3202e-05
v -0.072679 -0.072658 0.072624
v -0.072678 0.072632 0.07265
v -0.072673 0.072616 0.072672
v -0.072669 0.07266 -0.072632
v -0.072667 0.072652 0.072642
v -0.072659 -0.072659 0.072643
v -0.072658 -0.072631 -0.072673
v -0.072657 0.072659 -0.072644
v -0.072652 0.072643 -0.072666
v -0.072648 0.072672 0.072641
v -0.072647 0.072665 -0.072649
v -0.072638 -0.072632 -0.072691
v -0.044937 -3.7223e-05 0.11754
v -0.044926 -1.2172e-05 0.11755
v -0.044902 7.0682e-06 -0.11756
v -0.044891 3.2121e-05 -0.11756
v -2.9854e-05 0.11756 -0.044902
v -1.9441e-05 0.11755 0.044908
v -1.6957e-05 0.11756 0.044882
v -7.2875e-06 0.11756 -0.044887
v 7.2875e-06 -0.11756 -0.044887
v 1.6957e-05 -0.11756 0.044882
v 1.9441e-05 -0.11755 0.044908
v 2.9854e-05 -0.11756 -0.044902
v 0.044891 -8.4216e-06 0.11756
v 0.044902 -3.3472e-05 0.11756
v 0.044926 3.5872e-05 -0.11755
v 0.044937 1.0819e-05 -0.11754
v 0.072644 -0.072653 0.072664
v 0.072646 0.072622 0.072693
v 0.072647 -0.072665 -0.072649
v 0.072648 -0.072672 0.072641
v 0.072651 0.072638 0.072672
v 0.072664 -0.072652 0.072645
v 0.072665 -0.072625 -0.07267
v 0.072667 -0.072652 0.072642
v 0.072667 0.072649 -0.072645
v 0.072669 -0.07266 -0.072632
v 0.072672 0.072665 -0.072623
v 0.072685 -0.072624 -0.072651
v 0.11755 -0.044919 1.3202e-05
v 0.11755 -0.044909 -1.185e-05
v 0.11755 0.044907 -4.1565e-06
v 0.11755 0.044907 5.5552e-05
v 0.11756 -0.044903 -1.0663e-05
v 0.11756 -0.044903 2.8219e-05
v 0.11756 0.044892 1.8408e-05
v 0.11756 0.044892 3.2983e-05
v 0.11757 -0.044877 -8.1725e-06
v 0.11757 -0.044877 2.5741e-05
v 0.47316 -0.88312 0.044889
v 0.47317 -0.88311 0.044898
v 0.47318 -0.88311 -0.044911
v 0.47319 -0.8831 -0.044923
v 0.54581 -0.83822 0.072674
v 0.54582 -0.83821 0.072668
v 0.54584 -0.8382 -0.072647
v 0.54585 -0.83819 -0.072645
v 0.59073 -0.81045 2.0678e-05
v 0.59074 -0.81045 3.4197e-05
v 0.81036 -0.00011165 0.59086
v 0.81036 -9.8129e-05 0.59085
v 0.81053 0.00011094 -0.59062
v 0.81053 0.00012445 -0.59061
v 0.83811 0.072577 0.54599
v 0.83811 0.072579 0.54598
v 0.83813 -0.072736 0.54593
v 0.83814 -0.072742 0.54592
v 0.83827 0.072783 -0.54572
v 0.83827 0.072785 -0.54571
v 0.83829 -0.07253 -0.54571
v 0.8383 -0.072536 -0.5457
v 0.88303 0.044859 0.47332
v 0.88303 0.044871 0.47333
v 0.88305 -0.044951 0.47329
v 0.88305 -0.044941 0.47328
v 0.88317 0.045037 -0.47304
v 0.88317 0.045049 -0.47305
v 0.88319 -0.044772 -0.47305
v 0.88319 -0.044763 -0.47304
vn 0.26294 0.16249 -0.95103
vn 0.26295 0.16247 -0.95103
vn 0.26313 0.16258 -0.95096
vn 0.26312 0.1626 -0.95096
vn -0.68812 -0.42534 -0.58785
vn -0.68811 -0.42536 -0.58785
vn -0.688 -0.42529 -0.58803
vn -0.68801 -0.42527 -0.58803
vn 0.85064 0.52574 8.3935e-05
vn 0.85065 0.52573 8.3946e-05
vn 0.85065 0.52573 0.0003041
vn 0.85064 0.52574 0.00030409
vn -0.68821 -0.42539 0.58772
vn -0.6882 -0.42541 0.58772
vn -0.68831 -0.42547 0.58754
vn -0.68832 -0.42546 0.58754
vn 0.2628 0.16242 0.95108
vn 0.26281 0.1624 0.95108
vn 0.26263 0.16229 0.95115
vn 0.26262 0.16231 0.95115
vn -0.26294 -0.16249 -0.95103
vn -0.26295 -0.16247 -0.95103
vn -0.26313 -0.16258 -0.95096
vn -0.26312 -0.1626 -0.95096
vn 0.68812 0.42534 -0.58785
vn 0.68811 0.42536 -0.58785
vn 0.688 0.42529 -0.58803
vn 0.68801 0.42527 -0.58803
vn -0.85064 -0.52574 8.3935e-05
vn -0.85065 -0.52573 8.3946e-05
vn -0.85065 -0.52573 0.0003041
vn -0.85064 -0.52574 0.00030409
vn 0.68821 0.42539 0.58772
vn 0.6882 0.42541 0.58772
vn 0.68831 0.42547 0.58754
vn 0.68832 0.42546 0.58754
vn -0.2628 -0.16242 0.95108
vn -0.26281 -0.1624 0.95108
vn -0.26263 -0.16229 0.95115
vn -0.26262 -0.16231 0.95115
vn 0.16249 0.95109 -0.26274
vn 0.16247 0.95109 -0.26275
vn 0.16258 0.95102 -0.26293
vn 0.1626 0.95102 -0.26292
vn -0.42547 0.58771 0.68817
vn -0.42549 0.58771 0.68816
vn -0.42542 0.58788 0.68805
vn -0.4254 0.58788 0.68806
vn 0.52587 9.8275e-05 -0.85057
vn 0.52585 9.8265e-05 -0.85058
vn 0.52585 -0.00012189 -0.85058
vn 0.52587 -0.00012188 -0.85057
vn -0.42546 -0.58786 0.68804
vn -0.42548 -0.58786 0.68803
vn -0.42555 -0.58769 0.68814
vn -0.42553 -0.58769 0.68815
vn 0.16249 -0.95103 -0.26295
vn 0.16248 -0.95102 -0.26297
vn 0.16237 -0.95109 -0.26279
vn 0.16238 -0.95109 -0.26278
vn 0.16241 0.95099 0.26314
vn 0.16252 0.95092 0.26332
vn 0.1625 0.95092 0.26333
vn 0.16239 0.95099 0.26315
vn -0.42526 0.58797 -0.68808
vn -0.4252 0.58814 -0.68796
vn -0.42522 0.58814 -0.68795
vn -0.42528 0.58797 -0.68806
vn 0.52562 -0.00022224 0.85072
vn 0.52562 -0.0004424 0.85072
vn 0.5256 -0.00044241 0.85073
vn 0.5256 -0.00022225 0.85073
vn -0.42526 -0.58761 -0.68838
vn -0.42533 -0.58743 -0.68849
vn -0.42535 -0.58743 -0.68848
vn -0.42528 -0.58761 -0.68837
vn 0.16242 -0.95113 0.26264
vn 0.16231 -0.95119 0.26247
vn 0.16229 -0.95119 0.26248
vn 0.1624 -0.95112 0.26266
vn -0.16257 0.95097 0.2631
vn -0.16255 0.95097 0.26311
vn -0.16266 0.95091 0.26329
vn -0.16268 0.95091 0.26327
vn 0.42542 0.588 -0.68795
vn 0.42544 0.588 -0.68794
vn 0.42537 0.58818 -0.68783
vn 0.42535 0.58818 -0.68784
vn -0.52587 -0.00026614 0.85057
vn -0.52585 -0.00026616 0.85058
vn -0.52585 -0.00048631 0.85058
vn -0.52587 -0.0004863 0.85057
vn 0.42551 -0.58757 -0.68826
vn 0.42553 -0.58757 -0.68825
vn 0.4256 -0.58739 -0.68836
vn 0.42558 -0.58739 -0.68837
vn -0.16241 -0.95114 0.2626
vn -0.1624 -0.95114 0.26261
vn -0.16229 -0.95121 0.26243
vn -0.1623 -0.95121 0.26242
vn -0.16249 0.95107 -0.26279
vn -0.1626 0.95101 -0.26296
vn -0.16258 0.95101 -0.26297
vn -0.16247 0.95107 -0.2628
vn 0.42522 0.58774 0.6883
vn 0.42515 0.58792 0.68819
vn 0.42517 0.58792 0.68817
vn 0.42523 0.58774 0.68828
vn -0.52562 5.4369e-05 -0.85072
vn -0.52562 -0.00016579 -0.85072
vn -0.5256 -0.0001658 -0.85073
vn -0.5256 5.4361e-05 -0.85073
vn 0.42531 -0.58783 0.68816
vn 0.42538 -0.58765 0.68827
vn 0.4254 -0.58765 0.68826
vn 0.42533 -0.58783 0.68815
vn -0.16234 -0.95104 -0.263
vn -0.16223 -0.95111 -0.26282
vn -0.16221 -0.95111 -0.26284
vn -0.16232 -0.95104 -0.26301
f 62//1 76//2 95//3 92//4
f 72//5 82//6 100//7 96//8
f 64//9 63//10 91//11 93//12
f 81//13 71//14 98//15 99//16
f 78//17 61//18 94//19 97//20
f 59//21 45//22 26//23 29//24
f 50//25 39//26 21//27 25//28
f 57//29 58//30 30//31 28//32
f 40//33 51//34 23//35 22//36
f 44//37 60//38 27//39 24//40
f 31//41 52//42 13//43 6//44
f 47//45 56//46 19//47 14//48
f 35//49 37//50 5//51 7//52
f 55//53 48//54 16//55 20//56
f 49//57 33//58 8//59 15//60
f 32//61 2//62 9//63 46//64
f 41//65 10//66 17//67 54//68
f 36//69 3//70 1//71 38//72
f 53//73 18//74 12//75 42//76
f 43//77 11//78 4//79 34//80
f 90//81 69//82 108//83 115//84
f 74//85 65//86 101//87 107//88
f 84//89 86//90 116//91 113//92
f 66//93 73//94 105//95 102//96
f 70//97 88//98 114//99 106//100
f 89//101 119//102 112//103 75//104
f 80//105 111//106 103//107 67//108
f 83//109 117//110 120//111 85//112
f 68//113 104//114 109//115 79//116
f 77//117 110//118 118//119 87//120
