# Rhino

v -1.1404 -0.43558 -2.0439e-12
v -1.1404 0.43558 -2.0439e-12
v -1.1401 -0.40009 -0.057294
v -1.1401 0.40009 -0.057294
v -1.1401 -0.40009 0.057294
v -1.1401 0.40009 0.057294
v -1.1147 -0.40009 -0.041557
v -1.1147 0.40009 -0.041557
v -1.1147 -0.40009 0.041557
v -1.1147 0.40009 0.041557
v -1.1047 -0.49279 1.4123e-13
v -1.1047 0.49279 1.4123e-13
v -1.089 -0.46733 6.5352e-13
v -1.089 0.46733 6.5352e-13
v -0.74006 -0.64736 -0.70465
v -0.74006 0.64736 -0.70465
v -0.74006 -0.64736 0.70465
v -0.74006 0.64736 0.70465
v -0.7146 -0.64736 -0.68891
v -0.7146 0.64736 -0.68891
v -0.7146 -0.64736 0.68891
v -0.7146 0.64736 0.68891
v -0.70479 -0.70479 -0.70479
v -0.70479 0.70479 -0.70479
v -0.70479 -0.70479 0.70479
v -0.70479 0.70479 0.70479
v -0.70465 -0.74006 0.64736
v -0.70465 0.74006 0.64736
v -0.70465 -0.74006 -0.64736
v -0.70465 0.74006 -0.64736
v -0.68891 -0.7146 0.64736
v -0.68891 0.7146 0.64736
v -0.68891 -0.7146 -0.64736
v -0.68891 0.7146 -0.64736
v -0.64736 -0.70465 -0.74006
v -0.64736 0.70465 -0.74006
v -0.64736 -0.68891 0.7146
v -0.64736 0.68891 0.7146
v -0.64736 -0.68891 -0.7146
v -0.64736 0.68891 -0.7146
v -0.64736 -0.70465 0.74006
v -0.64736 0.70465 0.74006
v -0.49279 0 -1.1047
v -0.49279 0 1.1047
v -0.46733 0 -1.089
v -0.46733 0 1.089
v -0.43558 0 1.1404
v -0.43558 0 -1.1404
v -0.40009 -0.057294 1.1401
v -0.40009 0.057294 1.1401
v -0.40009 -0.057294 -1.1401
v -0.40009 0.057294 -1.1401
v -0.40009 -0.041557 1.1147
v -0.40009 0.041557 1.1147
v -0.40009 -0.041557 -1.1147
v -0.40009 0.041557 -1.1147
v -0.057294 -1.1401 -0.40009
v -0.057294 1.1401 -0.40009
v -0.057294 -1.1401 0.40009
v -0.057294 1.1401 0.40009
v -0.041557 -1.1147 0.40009
v -0.041557 1.1147 0.40009
v -0.041557 -1.1147 -0.40009
v -0.041557 1.1147 -0.40009
v -4.032e-13 -1.1047 -0.49279
v -4.032e-13 1.1047 -0.49279
v -2.3498e-13 -1.1404 0.43558
v -2.3498e-13 1.1404 0.43558
v -4.0971e-14 -1.089 0.46733
v -4.0971e-14 1.089 0.46733
v 4.0971e-14 -1.089 -0.46733
v 4.0971e-14 1.089 -0.46733
v 2.3498e-13 -1.1404 -0.43558
v 2.3498e-13 1.1404 -0.43558
v 4.032e-13 -1.1047 0.49279
v 4.032e-13 1.1047 0.49279
v 0.041557 -1.1147 0.40009
v 0.041557 1.1147 0.40009
v 0.041557 -1.1147 -0.40009
v 0.041557 1.1147 -0.40009
v 0.057294 -1.1401 -0.40009
v 0.057294 1.1401 -0.40009
v 0.057294 -1.1401 0.40009
v 0.057294 1.1401 0.40009
v 0.40009 -0.041557 1.1147
v 0.40009 0.041557 1.1147
v 0.40009 -0.041557 -1.1147
v 0.40009 0.041557 -1.1147
v 0.40009 -0.057294 1.1401
v 0.40009 0.057294 1.1401
v 0.40009 -0.057294 -1.1401
v 0.40009 0.057294 -1.1401
v 0.43558 0 1.1404
v 0.43558 -1.9941e-16 -1.1404
v 0.46733 -3.1915e-17 -1.089
v 0.46733 0 1.089
v 0.49279 -2.4926e-17 -1.1047
v 0.49279 0 1.1047
v 0.64736 -0.70465 -0.74006
v 0.64736 0.70465 -0.74006
v 0.64736 -0.68891 0.7146
v 0.64736 0.68891 0.7146
v 0.64736 -0.68891 -0.7146
v 0.64736 0.68891 -0.7146
v 0.64736 -0.70465 0.74006
v 0.64736 0.70465 0.74006
v 0.68891 -0.7146 0.64736
v 0.68891 0.7146 0.64736
v 0.68891 -0.7146 -0.64736
v 0.68891 0.7146 -0.64736
v 0.70465 -0.74006 0.64736
v 0.70465 0.74006 0.64736
v 0.70465 -0.74006 -0.64736
v 0.70465 0.74006 -0.64736
v 0.70479 -0.70479 -0.70479
v 0.70479 0.70479 -0.70479
v 0.70479 -0.70479 0.70479
v 0.70479 0.70479 0.70479
v 0.7146 -0.64736 -0.68891
v 0.7146 0.64736 -0.68891
v 0.7146 -0.64736 0.68891
v 0.7146 0.64736 0.68891
v 0.74006 -0.64736 -0.70465
v 0.74006 0.64736 -0.70465
v 0.74006 -0.64736 0.70465
v 0.74006 0.64736 0.70465
v 1.089 -0.46733 -6.5352e-13
v 1.089 0.46733 -6.5352e-13
v 1.1047 -0.49279 -1.4123e-13
v 1.1047 0.49279 -1.4123e-13
v 1.1147 -0.40009 -0.041557
v 1.1147 0.40009 -0.041557
v 1.1147 -0.40009 0.041557
v 1.1147 0.40009 0.041557
v 1.1401 -0.40009 -0.057294
v 1.1401 0.40009 -0.057294
v 1.1401 -0.40009 0.057294
v 1.1401 0.40009 0.057294
v 1.1404 -0.43558 2.0439e-12
v 1.1404 0.43558 2.0439e-12
vn 0.35682 0 -0.93417
vn -0.35682 0 0.93417
vn 9.3037e-09 0.93417 -0.35682
vn 9.3037e-09 -0.93417 -0.35682
vn -0.57735 0.57735 0.57735
vn -0.57735 -0.57735 0.57735
vn -0.57735 0.57735 -0.57735
vn -0.57735 -0.57735 -0.57735
vn 0.93417 0.35682 -1.2114e-08
vn 0.93417 -0.35682 -1.2114e-08
vn -0.93417 0.35682 1.2114e-08
vn -0.93417 -0.35682 1.2114e-08
vn 0.35682 0 0.93417
vn 0.57735 0.57735 -0.57735
vn 0.57735 -0.57735 -0.57735
vn -0.35682 0 -0.93417
vn 0.57735 0.57735 0.57735
vn 0.57735 -0.57735 0.57735
vn -2.1979e-08 0.93417 0.35682
vn -2.1979e-08 -0.93417 0.35682
vn -0.76351 -0.59818 0.24339
vn 0.55915 -0.59818 -0.57406
vn -0.39382 -0.36969 0.84157
vn 0.92884 -0.36969 0.024122
vn -0.39382 0.36969 0.84157
vn 0.92884 0.36969 0.024122
vn -0.76351 0.59818 0.24339
vn 0.55915 0.59818 -0.57406
vn -0.99199 -3.0221e-12 -0.1263
vn 0.33066 0 -0.94375
vn 0.99199 3.0221e-12 0.1263
vn -0.33066 0 0.94375
vn 0.76351 -0.59818 -0.24339
vn -0.55915 -0.59818 0.57406
vn 0.39382 -0.36969 -0.84157
vn -0.92884 -0.36969 -0.024122
vn 0.39382 0.36969 -0.84157
vn -0.92884 0.36969 -0.024122
vn 0.76351 0.59818 -0.24339
vn -0.55915 0.59818 0.57406
vn 0.24339 -0.76351 0.59818
vn -0.57406 0.55915 0.59818
vn -0.1263 -0.99199 -1.2728e-08
vn -0.94375 0.33066 -5.6893e-09
vn 0.24339 -0.76351 -0.59818
vn -0.57406 0.55915 -0.59818
vn 0.84157 -0.39382 -0.36969
vn 0.024122 0.92884 -0.36969
vn 0.84157 -0.39382 0.36969
vn 0.024122 0.92884 0.36969
vn 0.39382 0.36969 0.84157
vn -0.92884 0.36969 0.024122
vn 0.39382 -0.36969 0.84157
vn -0.92884 -0.36969 0.024122
vn 0.76351 -0.59818 0.24339
vn -0.55915 -0.59818 -0.57406
vn 0.99199 0 -0.1263
vn -0.33066 0 -0.94375
vn 0.76351 0.59818 0.24339
vn -0.55915 0.59818 -0.57406
vn -0.1263 0.99199 -1.4224e-08
vn -0.94375 -0.33066 -5.6893e-09
vn 0.24339 0.76351 0.59818
vn -0.57406 -0.55915 0.59818
vn 0.84157 0.39382 0.36969
vn 0.024122 -0.92884 0.36969
vn 0.84157 0.39382 -0.36969
vn 0.024122 -0.92884 -0.36969
vn 0.24339 0.76351 -0.59818
vn -0.57406 -0.55915 -0.59818
vn -0.59818 0.24339 -0.76351
vn -0.59818 -0.57406 0.55915
vn -0.36969 0.84157 -0.39382
vn -0.36969 0.024122 0.92884
vn 0.36969 0.84157 -0.39382
vn 0.36969 0.024122 0.92884
vn 0.59818 0.24339 -0.76351
vn 0.59818 -0.57406 0.55915
vn -4.5448e-08 -0.1263 -0.99199
vn -4.2535e-08 -0.94375 0.33066
vn -0.36969 -0.84157 -0.39382
vn -0.36969 -0.024122 0.92884
vn -0.59818 -0.24339 -0.76351
vn -0.59818 0.57406 0.55915
vn -1.4112e-08 0.1263 -0.99199
vn 1.116e-08 0.94375 0.33066
vn 0.59818 -0.24339 -0.76351
vn 0.59818 0.57406 0.55915
vn 0.36969 -0.84157 -0.39382
vn 0.36969 -0.024122 0.92884
vn -0.84157 0.39382 -0.36969
vn -0.024122 -0.92884 -0.36969
vn -0.84157 0.39382 0.36969
vn -0.024122 -0.92884 0.36969
vn -0.24339 0.76351 0.59818
vn 0.57406 -0.55915 0.59818
vn 0.1263 0.99199 -2.0458e-08
vn 0.94375 -0.33066 5.6893e-09
vn -0.24339 0.76351 -0.59818
vn 0.57406 -0.55915 -0.59818
vn -0.76351 -0.59818 -0.24339
vn 0.55915 -0.59818 0.57406
vn -0.99199 0 0.1263
vn 0.33066 0 0.94375
vn -0.76351 0.59818 -0.24339
vn 0.55915 0.59818 0.57406
vn -0.39382 0.36969 -0.84157
vn 0.92884 0.36969 -0.024122
vn -0.39382 -0.36969 -0.84157
vn 0.92884 -0.36969 -0.024122
vn -0.24339 -0.76351 0.59818
vn 0.57406 0.55915 0.59818
vn -0.84157 -0.39382 0.36969
vn -0.024122 0.92884 0.36969
vn -0.84157 -0.39382 -0.36969
vn -0.024122 0.92884 -0.36969
vn -0.24339 -0.76351 -0.59818
vn 0.57406 0.55915 -0.59818
vn 0.1263 -0.99199 1.4224e-08
vn 0.94375 0.33066 5.6893e-09
vn 4.5448e-08 0.1263 0.99199
vn 4.2535e-08 0.94375 -0.33066
vn -0.59818 -0.24339 0.76351
vn -0.59818 0.57406 -0.55915
vn -0.36969 -0.84157 0.39382
vn -0.36969 -0.024122 -0.92884
vn 0.36969 -0.84157 0.39382
vn 0.36969 -0.024122 -0.92884
vn 0.59818 -0.24339 0.76351
vn 0.59818 0.57406 -0.55915
vn -0.36969 0.84157 0.39382
vn -0.36969 0.024122 -0.92884
vn -0.59818 0.24339 0.76351
vn -0.59818 -0.57406 -0.55915
vn 4.5448e-08 -0.1263 0.99199
vn 4.2535e-08 -0.94375 -0.33066
vn 0.59818 0.24339 0.76351
vn 0.59818 -0.57406 -0.55915
vn 0.36969 0.84157 0.39382
vn 0.36969 0.024122 -0.92884
f 22//22 18//21 6//23 10//24
f 26//15 22//22 10//24 2//10
f 10//24 6//23 5//25 9//26
f 2//10 10//24 9//26 1//9
f 9//26 5//25 17//27 21//28
f 1//9 9//26 21//28 25//14
f 21//28 17//27 44//29 46//30
f 25//14 21//28 46//30 47//1
f 46//30 44//29 18//21 22//22
f 47//1 46//30 22//22 26//15
f 95//32 97//31 124//33 120//34
f 94//2 95//32 120//34 116//6
f 120//34 124//33 136//35 132//36
f 116//6 120//34 132//36 140//12
f 132//36 136//35 135//37 131//38
f 140//12 132//36 131//38 139//11
f 131//38 135//37 123//39 119//40
f 139//11 131//38 119//40 115//5
f 119//40 123//39 97//31 95//32
f 115//5 119//40 95//32 94//2
f 109//42 113//41 129//43 127//44
f 115//5 109//42 127//44 139//11
f 127//44 129//43 111//45 107//46
f 139//11 127//44 107//46 117//7
f 107//46 111//45 83//47 77//48
f 117//7 107//46 77//48 67//3
f 77//48 83//47 81//49 79//50
f 67//3 77//48 79//50 73//19
f 79//50 81//49 113//41 109//42
f 73//19 79//50 109//42 115//5
f 133//52 137//51 138//53 134//54
f 139//11 133//52 134//54 140//12
f 134//54 138//53 126//55 122//56
f 140//12 134//54 122//56 118//8
f 122//56 126//55 98//57 96//58
f 118//8 122//56 96//58 93//16
f 96//58 98//57 125//59 121//60
f 93//16 96//58 121//60 117//7
f 121//60 125//59 137//51 133//52
f 117//7 121//60 133//52 139//11
f 128//62 130//61 114//63 110//64
f 140//12 128//62 110//64 116//6
f 110//64 114//63 82//65 80//66
f 116//6 110//64 80//66 74//20
f 80//66 82//65 84//67 78//68
f 74//20 80//66 78//68 68//4
f 78//68 84//67 112//69 108//70
f 68//4 78//68 108//70 118//8
f 108//70 112//69 130//61 128//62
f 118//8 108//70 128//62 140//12
f 104//72 100//71 92//73 88//74
f 116//6 104//72 88//74 94//2
f 88//74 92//73 52//75 56//76
f 94//2 88//74 56//76 48//13
f 56//76 52//75 36//77 40//78
f 48//13 56//76 40//78 24//18
f 40//78 36//77 66//79 72//80
f 24//18 40//78 72//80 74//20
f 72//80 66//79 100//71 104//72
f 74//20 72//80 104//72 116//6
f 87//82 91//81 99//83 103//84
f 94//2 87//82 103//84 115//5
f 103//84 99//83 65//85 71//86
f 115//5 103//84 71//86 73//19
f 71//86 65//85 35//87 39//88
f 73//19 71//86 39//88 23//17
f 39//88 35//87 51//89 55//90
f 23//17 39//88 55//90 48//13
f 55//90 51//89 91//81 87//82
f 48//13 55//90 87//82 94//2
f 62//92 60//91 58//93 64//94
f 68//4 62//92 64//94 74//20
f 64//94 58//93 30//95 34//96
f 74//20 64//94 34//96 24//18
f 34//96 30//95 12//97 14//98
f 24//18 34//96 14//98 2//10
f 14//98 12//97 28//99 32//100
f 2//10 14//98 32//100 26//15
f 32//100 28//99 60//91 62//92
f 26//15 32//100 62//92 68//4
f 20//102 16//101 43//103 45//104
f 24//18 20//102 45//104 48//13
f 45//104 43//103 15//105 19//106
f 48//13 45//104 19//106 23//17
f 19//106 15//105 3//107 7//108
f 23//17 19//106 7//108 1//9
f 7//108 3//107 4//109 8//110
f 1//9 7//108 8//110 2//10
f 8//110 4//109 16//101 20//102
f 2//10 8//110 20//102 24//18
f 33//112 29//111 57//113 63//114
f 23//17 33//112 63//114 73//19
f 63//114 57//113 59//115 61//116
f 73//19 63//114 61//116 67//3
f 61//116 59//115 27//117 31//118
f 67//3 61//116 31//118 25//14
f 31//118 27//117 11//119 13//120
f 25//14 31//118 13//120 1//9
f 13//120 11//119 29//111 33//112
f 1//9 13//120 33//112 23//17
f 69//122 75//121 105//123 101//124
f 67//3 69//122 101//124 117//7
f 101//124 105//123 89//125 85//126
f 117//7 101//124 85//126 93//16
f 85//126 89//125 49//127 53//128
f 93//16 85//126 53//128 47//1
f 53//128 49//127 41//129 37//130
f 47//1 53//128 37//130 25//14
f 37//130 41//129 75//121 69//122
f 25//14 37//130 69//122 67//3
f 86//132 90//131 106//133 102//134
f 93//16 86//132 102//134 118//8
f 102//134 106//133 76//135 70//136
f 118//8 102//134 70//136 68//4
f 70//136 76//135 42//137 38//138
f 68//4 70//136 38//138 26//15
f 38//138 42//137 50//139 54//140
f 26//15 38//138 54//140 47//1
f 54//140 50//139 90//131 86//132
f 47//1 54//140 86//132 93//16
