# Rhino

v -0.88319 -0.045015 0.47302
v -0.88318 -0.045025 0.47303
v -0.88318 0.044785 0.47306
v -0.88317 0.044797 0.47307
v -0.88305 -0.044837 -0.4733
v -0.88304 -0.044846 -0.4733
v -0.88304 0.044963 -0.4733
v -0.88304 0.044976 -0.47331
v -0.83829 -0.072812 0.54567
v -0.83829 -0.072806 0.54568
v -0.83828 0.072509 0.54573
v -0.83827 0.072507 0.54575
v -0.83813 -0.072606 -0.54594
v -0.83813 -0.0726 -0.54595
v -0.83812 0.072715 -0.54595
v -0.83811 0.072713 -0.54596
v -0.81053 -0.00017933 0.59062
v -0.81053 -0.00016581 0.59061
v -0.81036 4.3254e-05 -0.59086
v -0.81036 5.6772e-05 -0.59085
v -0.59074 -0.81045 3.4197e-05
v -0.59074 0.81045 3.4197e-05
v -0.59073 -0.81045 2.0678e-05
v -0.59073 0.81045 2.0678e-05
v -0.54585 -0.83819 -0.072645
v -0.54585 0.83819 -0.072645
v -0.54584 -0.8382 -0.072647
v -0.54584 0.8382 -0.072647
v -0.54582 -0.83821 0.072668
v -0.54582 0.83821 0.072668
v -0.54581 -0.83822 0.072674
v -0.54581 0.83822 0.072674
v -0.47319 -0.8831 -0.044923
v -0.47319 0.8831 -0.044923
v -0.47318 -0.88311 -0.044911
v -0.47318 0.88311 -0.044911
v -0.47317 -0.88311 0.044898
v -0.47317 0.88311 0.044898
v -0.47316 -0.88312 0.044889
v -0.47316 0.88312 0.044889
v -0.11756 0.044882 -1.4958e-06
v -0.11756 0.044882 -1.6071e-05
v -0.11756 -0.044887 -8.7382e-06
v -0.11756 -0.044887 -4.2652e-05
v -0.11756 0.044897 2.1074e-05
v -0.11756 0.044897 -3.8634e-05
v -0.11755 -0.044909 -1.185e-05
v -0.11755 0.044909 -1.185e-05
v -0.11755 -0.044913 -6.2571e-06
v -0.11755 -0.044913 -4.514e-05
v -0.11755 -0.044919 1.3202e-05
v -0.11755 0.044919 1.3202e-05
v -0.072912 -0.54583 0.83818
v -0.072906 -0.54584 0.83817
v -0.072752 0.54578 0.83823
v -0.072746 0.54579 0.83822
v -0.072679 -0.072658 0.072624
v -0.072678 0.072632 0.07265
v -0.072673 0.072616 0.072672
v -0.072669 -0.07266 -0.072632
v -0.072669 0.07266 -0.072632
v -0.072667 -0.072652 0.072642
v -0.072667 0.072652 0.072642
v -0.072667 -0.07266 0.072635
v -0.072666 -0.072641 0.072655
v -0.072659 -0.072659 0.072643
v -0.072658 -0.072631 -0.072673
v -0.072657 0.072659 -0.072644
v -0.072652 0.072643 -0.072666
v -0.072648 -0.072672 0.072641
v -0.072648 0.072672 0.072641
v -0.072647 -0.072665 -0.072649
v -0.072647 0.072665 -0.072649
v -0.072645 0.072675 0.072641
v -0.072644 0.072656 0.072661
v -0.072639 -0.072653 -0.072668
v -0.072638 -0.072634 -0.072688
v -0.072638 -0.072632 -0.072691
v -0.072618 0.072681 -0.072662
v -0.072617 0.072662 -0.072682
v -0.072596 -0.54576 -0.83825
v -0.07259 -0.54577 -0.83825
v -0.072436 0.54585 -0.83821
v -0.07243 0.54586 -0.8382
v -0.045134 -0.4732 0.88309
v -0.045125 -0.47319 0.88309
v -0.044995 0.47314 0.88313
v -0.044986 0.47313 0.88313
v -0.044937 -3.7223e-05 0.11754
v -0.04493 -1.7765e-05 0.11755
v -0.04493 2.1118e-05 0.11755
v -0.044926 -1.2172e-05 0.11755
v -0.044904 -1.5284e-05 0.11756
v -0.044904 1.8629e-05 0.11756
v -0.044902 7.0682e-06 -0.11756
v -0.044891 3.2121e-05 -0.11756
v -0.044886 -7.9475e-06 -0.11756
v -0.044886 3.0935e-05 -0.11756
v -0.04486 -5.4663e-06 -0.11757
v -0.04486 2.8447e-05 -0.11757
v -0.044801 -0.47312 -0.88314
v -0.044792 -0.47312 -0.88315
v -0.044663 0.47321 -0.8831
v -0.044653 0.4732 -0.88311
v -0.0002735 -0.59077 0.81042
v -0.00025998 -0.59077 0.81042
v -0.00010026 0.5907 0.81047
v -8.6742e-05 0.5907 0.81047
v -3.8901e-05 -0.11755 0.044915
v -2.9854e-05 -0.11756 -0.044902
v -2.9854e-05 0.11756 -0.044902
v -2.1976e-05 -0.11755 -0.044924
v -1.9441e-05 -0.11755 0.044908
v -1.9441e-05 0.11755 0.044908
v -1.6957e-05 -0.11756 0.044882
v -1.6957e-05 0.11756 0.044882
v -1.3848e-05 -0.11756 0.044904
v -7.2875e-06 -0.11756 -0.044887
v -7.2875e-06 0.11756 -0.044887
v -4.4279e-06 0.11755 0.044924
v 3.073e-06 -0.11755 -0.044914
v 7.2875e-06 -0.11756 -0.044887
v 7.2875e-06 0.11756 -0.044887
v 1.2497e-05 0.11755 -0.044915
v 1.6957e-05 -0.11756 0.044882
v 1.6957e-05 0.11756 0.044882
v 1.9441e-05 -0.11755 0.044908
v 1.9441e-05 0.11755 0.044908
v 2.0626e-05 0.11755 0.044914
v 2.9854e-05 -0.11756 -0.044902
v 2.9854e-05 0.11756 -0.044902
v 3.1866e-05 -0.5907 -0.81047
v 3.7548e-05 0.11756 -0.044904
v 4.5385e-05 -0.5907 -0.81047
v 0.00020511 0.59077 -0.81042
v 0.00021863 0.59077 -0.81042
v 0.044675 -0.47322 0.88309
v 0.044688 -0.47323 0.88309
v 0.044814 0.47314 0.88313
v 0.044826 0.47314 0.88313
v 0.044865 -1.8779e-05 0.11757
v 0.044865 -4.2037e-06 0.11757
v 0.044879 -4.1347e-05 0.11756
v 0.044879 1.8361e-05 0.11756
v 0.044891 -8.4216e-06 0.11756
v 0.044902 -3.3472e-05 0.11756
v 0.044909 -8.9608e-06 -0.11755
v 0.044909 5.6141e-06 -0.11755
v 0.044924 -3.153e-05 -0.11755
v 0.044924 2.8178e-05 -0.11755
v 0.044926 3.5872e-05 -0.11755
v 0.044937 1.0819e-05 -0.11754
v 0.045008 -0.47315 -0.88312
v 0.04502 -0.47316 -0.88311
v 0.045147 0.47321 -0.88308
v 0.045159 0.47322 -0.88308
v 0.072407 -0.5459 0.83818
v 0.072409 -0.54589 0.83819
v 0.072567 0.54581 0.83823
v 0.072569 0.5458 0.83823
v 0.072608 -0.072683 0.07267
v 0.072624 -0.072661 0.072675
v 0.072629 0.072655 0.072677
v 0.072635 -0.072677 -0.072649
v 0.072644 -0.072653 0.072664
v 0.072646 0.072634 0.072682
v 0.072646 0.072622 0.072693
v 0.072647 -0.072665 -0.072649
v 0.072647 0.072665 -0.072649
v 0.072648 -0.072672 0.072641
v 0.072648 0.072672 0.072641
v 0.072651 0.072638 0.072672
v 0.072652 -0.072655 -0.072654
v 0.072657 0.072661 -0.072643
v 0.072664 -0.072652 0.072645
v 0.072665 -0.072625 -0.07267
v 0.072667 -0.072652 0.072642
v 0.072667 0.072652 0.072642
v 0.072667 0.072649 -0.072645
v 0.072669 -0.07266 -0.072632
v 0.072669 0.07266 -0.072632
v 0.072672 0.072665 -0.072623
v 0.072673 0.07264 -0.072648
v 0.072685 -0.072624 -0.072651
v 0.072723 -0.54583 -0.8382
v 0.072725 -0.54582 -0.8382
v 0.072883 0.54588 -0.83815
v 0.072885 0.54587 -0.83816
v 0.11755 -0.044919 1.3202e-05
v 0.11755 0.044919 1.3202e-05
v 0.11755 -0.044909 -1.185e-05
v 0.11755 0.044909 -1.185e-05
v 0.11755 0.044907 5.5552e-05
v 0.11755 0.044907 -4.1565e-06
v 0.11756 -0.044903 2.8219e-05
v 0.11756 -0.044903 -1.0663e-05
v 0.11756 0.044892 3.2983e-05
v 0.11756 0.044892 1.8408e-05
v 0.11757 -0.044877 2.5741e-05
v 0.11757 -0.044877 -8.1725e-06
v 0.47316 -0.88312 0.044889
v 0.47316 0.88312 0.044889
v 0.47317 -0.88311 0.044898
v 0.47317 0.88311 0.044898
v 0.47318 -0.88311 -0.044911
v 0.47318 0.88311 -0.044911
v 0.47319 -0.8831 -0.044923
v 0.47319 0.8831 -0.044923
v 0.54581 -0.83822 0.072674
v 0.54581 0.83822 0.072674
v 0.54582 -0.83821 0.072668
v 0.54582 0.83821 0.072668
v 0.54584 -0.8382 -0.072647
v 0.54584 0.8382 -0.072647
v 0.54585 -0.83819 -0.072645
v 0.54585 0.83819 -0.072645
v 0.59073 -0.81045 2.0678e-05
v 0.59073 0.81045 2.0678e-05
v 0.59074 -0.81045 3.4197e-05
v 0.59074 0.81045 3.4197e-05
v 0.81036 -9.8129e-05 0.59085
v 0.81036 -0.00011165 0.59086
v 0.81053 0.00012445 -0.59061
v 0.81053 0.00011094 -0.59062
v 0.83811 0.072577 0.54599
v 0.83811 0.072579 0.54598
v 0.83813 -0.072736 0.54593
v 0.83814 -0.072742 0.54592
v 0.83827 0.072783 -0.54572
v 0.83827 0.072785 -0.54571
v 0.83829 -0.07253 -0.54571
v 0.8383 -0.072536 -0.5457
v 0.88303 0.044871 0.47333
v 0.88303 0.044859 0.47332
v 0.88305 -0.044951 0.47329
v 0.88305 -0.044941 0.47328
v 0.88317 0.045049 -0.47305
v 0.88317 0.045037 -0.47304
v 0.88319 -0.044772 -0.47305
v 0.88319 -0.044763 -0.47304
vn -0.16234 -0.95104 -0.263
vn -0.16232 -0.95104 -0.26301
vn -0.16221 -0.95111 -0.26284
vn -0.16223 -0.95111 -0.26282
vn 0.42531 -0.58783 0.68816
vn 0.42533 -0.58783 0.68815
vn 0.4254 -0.58765 0.68826
vn 0.42538 -0.58765 0.68827
vn -0.52562 5.4369e-05 -0.85072
vn -0.5256 5.4361e-05 -0.85073
vn -0.5256 -0.0001658 -0.85073
vn -0.52562 -0.00016579 -0.85072
vn 0.42522 0.58774 0.6883
vn 0.42523 0.58774 0.68828
vn 0.42517 0.58792 0.68817
vn 0.42515 0.58792 0.68819
vn -0.16249 0.95107 -0.26279
vn -0.16247 0.95107 -0.2628
vn -0.16258 0.95101 -0.26297
vn -0.1626 0.95101 -0.26296
vn -0.16241 -0.95114 0.2626
vn -0.1624 -0.95114 0.26261
vn -0.16229 -0.95121 0.26243
vn -0.1623 -0.95121 0.26242
vn 0.42551 -0.58757 -0.68826
vn 0.42553 -0.58757 -0.68825
vn 0.4256 -0.58739 -0.68836
vn 0.42558 -0.58739 -0.68837
vn -0.52587 -0.00026614 0.85057
vn -0.52585 -0.00026616 0.85058
vn -0.52585 -0.00048631 0.85058
vn -0.52587 -0.0004863 0.85057
vn 0.42542 0.588 -0.68795
vn 0.42544 0.588 -0.68794
vn 0.42537 0.58818 -0.68783
vn 0.42535 0.58818 -0.68784
vn -0.16257 0.95097 0.2631
vn -0.16255 0.95097 0.26311
vn -0.16266 0.95091 0.26329
vn -0.16268 0.95091 0.26327
vn 0.16242 -0.95113 0.26264
vn 0.1624 -0.95113 0.26266
vn 0.16229 -0.95119 0.26248
vn 0.16231 -0.95119 0.26247
vn -0.42526 -0.58761 -0.68838
vn -0.42528 -0.58761 -0.68837
vn -0.42535 -0.58743 -0.68848
vn -0.42533 -0.58743 -0.68849
vn 0.52562 -0.00022224 0.85072
vn 0.5256 -0.00022225 0.85073
vn 0.5256 -0.00044241 0.85073
vn 0.52562 -0.0004424 0.85072
vn -0.42526 0.58797 -0.68808
vn -0.42528 0.58797 -0.68806
vn -0.42522 0.58814 -0.68795
vn -0.4252 0.58814 -0.68796
vn 0.16241 0.95099 0.26314
vn 0.16239 0.95099 0.26315
vn 0.1625 0.95092 0.26333
vn 0.16252 0.95092 0.26332
vn 0.16249 -0.95103 -0.26295
vn 0.16248 -0.95103 -0.26297
vn 0.16237 -0.95109 -0.26279
vn 0.16238 -0.95109 -0.26278
vn -0.42546 -0.58786 0.68804
vn -0.42548 -0.58786 0.68803
vn -0.42555 -0.58769 0.68814
vn -0.42553 -0.58769 0.68815
vn 0.52587 9.8275e-05 -0.85057
vn 0.52585 9.8265e-05 -0.85058
vn 0.52585 -0.00012189 -0.85058
vn 0.52587 -0.00012188 -0.85057
vn -0.42547 0.58771 0.68817
vn -0.42549 0.58771 0.68816
vn -0.42542 0.58788 0.68805
vn -0.4254 0.58788 0.68806
vn 0.16249 0.95109 -0.26274
vn 0.16247 0.95109 -0.26275
vn 0.16258 0.95102 -0.26293
vn 0.1626 0.95102 -0.26292
vn -0.95107 0.26293 0.16225
vn -0.95107 0.26294 0.16223
vn -0.95114 0.26276 0.16212
vn -0.95114 0.26275 0.16214
vn -0.58774 -0.68811 -0.42553
vn -0.58774 -0.6881 -0.42555
vn -0.58756 -0.68821 -0.42561
vn -0.58756 -0.68822 -0.42559
vn -5.825e-05 0.85062 0.52578
vn -5.8256e-05 0.85063 0.52576
vn -0.00027841 0.85063 0.52576
vn -0.00027841 0.85062 0.52578
vn 0.58783 -0.68819 -0.42526
vn 0.58783 -0.68818 -0.42528
vn 0.58801 -0.68807 -0.42521
vn 0.58801 -0.68808 -0.42519
vn 0.95104 0.26279 0.16268
vn 0.95104 0.26281 0.16266
vn 0.95097 0.26298 0.16277
vn 0.95097 0.26297 0.16279
vn -0.95115 -0.26267 0.16223
vn -0.95115 -0.26268 0.16221
vn -0.95122 -0.2625 0.1621
vn -0.95122 -0.26249 0.16212
vn -0.58754 0.68831 -0.42547
vn -0.58754 0.6883 -0.42549
vn -0.58736 0.68841 -0.42556
vn -0.58736 0.68842 -0.42554
vn -0.00030772 -0.85066 0.52571
vn -0.00030772 -0.85068 0.52569
vn -0.00052788 -0.85068 0.52569
vn -0.00052787 -0.85066 0.52571
vn 0.58803 0.68805 -0.4252
vn 0.58803 0.68804 -0.42522
vn 0.58821 0.68793 -0.42515
vn 0.58821 0.68794 -0.42513
vn 0.95096 -0.26309 0.16266
vn 0.95096 -0.2631 0.16264
vn 0.95089 -0.26328 0.16275
vn 0.95089 -0.26326 0.16277
vn -0.95109 -0.26265 -0.16261
vn -0.95109 -0.26266 -0.16259
vn -0.95116 -0.26249 -0.16248
vn -0.95116 -0.26247 -0.1625
vn -0.5877 0.68828 0.42531
vn -0.5877 0.68827 0.42532
vn -0.58752 0.68838 0.42539
vn -0.58752 0.68839 0.42537
vn -0.00010962 -0.85062 -0.52578
vn -0.00010964 -0.85063 -0.52576
vn -0.00032979 -0.85063 -0.52576
vn -0.00032978 -0.85062 -0.52578
vn 0.58787 0.68802 0.42548
vn 0.58787 0.68801 0.4255
vn 0.58805 0.6879 0.42543
vn 0.58805 0.68791 0.42541
vn 0.95102 -0.26307 -0.16232
vn 0.95102 -0.26308 -0.1623
vn 0.95095 -0.26326 -0.16241
vn 0.95095 -0.26325 -0.16243
vn -0.95101 0.26295 -0.16258
vn -0.95101 0.26296 -0.16257
vn -0.95108 0.26278 -0.16246
vn -0.95108 0.26277 -0.16247
vn -0.5879 -0.68814 0.42525
vn -0.5879 -0.68813 0.42527
vn -0.58772 -0.68824 0.42533
vn -0.58772 -0.68825 0.42532
vn 0.00013985 0.85066 -0.52571
vn 0.00013983 0.85068 -0.52569
vn -8.0324e-05 0.85068 -0.52569
vn -8.0311e-05 0.85066 -0.52571
vn 0.58767 -0.68823 0.42542
vn 0.58767 -0.68822 0.42544
vn 0.58785 -0.68811 0.42537
vn 0.58785 -0.68812 0.42535
vn 0.9511 0.26281 -0.1623
vn 0.9511 0.26282 -0.16228
vn 0.95103 0.263 -0.16239
vn 0.95103 0.26299 -0.16241
vn 0.2628 -0.16242 0.95108
vn 0.26281 -0.1624 0.95108
vn 0.26263 -0.16229 0.95115
vn 0.26262 -0.16231 0.95115
vn -0.68821 0.42539 0.58772
vn -0.6882 0.42541 0.58772
vn -0.68831 0.42547 0.58754
vn -0.68832 0.42546 0.58754
vn 0.85064 -0.52574 8.3935e-05
vn 0.85065 -0.52573 8.3946e-05
vn 0.85065 -0.52573 0.0003041
vn 0.85064 -0.52574 0.00030409
vn -0.68812 0.42534 -0.58785
vn -0.68811 0.42536 -0.58785
vn -0.688 0.42529 -0.58803
vn -0.68801 0.42527 -0.58803
vn 0.26294 -0.16249 -0.95103
vn 0.26295 -0.16247 -0.95103
vn 0.26313 -0.16258 -0.95096
vn 0.26312 -0.1626 -0.95096
vn -0.2628 -0.16242 0.95108
vn -0.26281 -0.1624 0.95108
vn -0.26263 -0.16229 0.95115
vn -0.26262 -0.16231 0.95115
vn 0.68821 0.42539 0.58772
vn 0.6882 0.42541 0.58772
vn 0.68831 0.42547 0.58754
vn 0.68832 0.42546 0.58754
vn -0.85064 -0.52574 8.3935e-05
vn -0.85065 -0.52573 8.3946e-05
vn -0.85065 -0.52573 0.0003041
vn -0.85064 -0.52574 0.00030409
vn 0.68812 0.42534 -0.58785
vn 0.68811 0.42536 -0.58785
vn 0.688 0.42529 -0.58803
vn 0.68801 0.42527 -0.58803
vn -0.26294 -0.16249 -0.95103
vn -0.26295 -0.16247 -0.95103
vn -0.26313 -0.16258 -0.95096
vn -0.26312 -0.1626 -0.95096
vn -0.2628 0.16242 0.95108
vn -0.26281 0.1624 0.95108
vn -0.26263 0.16229 0.95115
vn -0.26262 0.16231 0.95115
vn 0.68821 -0.42539 0.58772
vn 0.6882 -0.42541 0.58772
vn 0.68831 -0.42547 0.58754
vn 0.68832 -0.42546 0.58754
vn -0.85064 0.52574 8.3935e-05
vn -0.85065 0.52573 8.3946e-05
vn -0.85065 0.52573 0.0003041
vn -0.85064 0.52574 0.00030409
vn 0.68812 -0.42534 -0.58785
vn 0.68811 -0.42536 -0.58785
vn 0.688 -0.42529 -0.58803
vn 0.68801 -0.42527 -0.58803
vn -0.26294 0.16249 -0.95103
vn -0.26295 0.16247 -0.95103
vn -0.26313 0.16258 -0.95096
vn -0.26312 0.1626 -0.95096
vn 0.2628 0.16242 0.95108
vn 0.26281 0.1624 0.95108
vn 0.26263 0.16229 0.95115
vn 0.26262 0.16231 0.95115
vn -0.68821 -0.42539 0.58772
vn -0.6882 -0.42541 0.58772
vn -0.68831 -0.42547 0.58754
vn -0.68832 -0.42546 0.58754
vn 0.85064 0.52574 8.3935e-05
vn 0.85065 0.52573 8.3946e-05
vn 0.85065 0.52573 0.0003041
vn 0.85064 0.52574 0.00030409
vn -0.68812 -0.42534 -0.58785
vn -0.68811 -0.42536 -0.58785
vn -0.688 -0.42529 -0.58803
vn -0.68801 -0.42527 -0.58803
vn 0.26294 0.16249 -0.95103
vn 0.26295 0.16247 -0.95103
vn 0.26313 0.16258 -0.95096
vn 0.26312 0.1626 -0.95096
f 179//1 230//4 237//3 198//2
f 152//5 223//8 229//7 182//6
f 194//9 238//12 240//11 196//10
f 184//13 231//16 224//15 151//14
f 200//17 239//20 232//19 176//18
f 167//21 197//22 233//23 226//24
f 146//25 172//26 225//27 221//28
f 193//29 195//30 236//31 234//32
f 175//33 145//34 222//35 227//36
f 199//37 165//38 228//39 235//40
f 59//41 11//44 4//43 41//42
f 89//45 18//48 12//47 58//46
f 45//49 3//52 1//51 49//50
f 57//53 10//56 17//55 92//54
f 43//57 2//60 9//59 66//58
f 69//61 42//62 8//63 15//64
f 95//65 68//66 16//67 20//68
f 46//69 50//70 5//71 7//72
f 67//73 96//74 19//75 14//76
f 44//77 78//78 13//79 6//80
f 174//81 188//84 156//83 148//82
f 124//85 136//88 187//87 183//86
f 150//89 155//92 104//91 98//90
f 80//93 84//96 135//95 133//94
f 100//97 103//100 83//99 79//98
f 164//101 147//102 154//103 186//104
f 112//105 173//106 185//107 134//108
f 149//109 97//110 102//111 153//112
f 77//113 121//114 132//115 82//116
f 99//117 76//118 81//119 101//120
f 161//121 158//124 138//123 141//122
f 109//125 106//128 157//127 162//126
f 143//129 137//132 86//131 90//130
f 65//133 54//136 105//135 117//134
f 93//137 85//140 53//139 64//138
f 163//141 142//142 140//143 160//144
f 120//145 166//146 159//147 108//148
f 144//149 91//150 88//151 139//152
f 75//153 129//154 107//155 56//156
f 94//157 74//158 55//159 87//160
f 181//161 214//164 208//163 123//162
f 190//165 218//168 216//167 169//166
f 131//169 206//172 202//171 128//170
f 171//173 212//176 220//175 192//174
f 126//177 204//180 210//179 178//178
f 61//181 119//182 34//183 28//184
f 52//185 73//186 26//187 24//188
f 111//189 114//190 40//191 36//192
f 71//193 48//194 22//195 30//196
f 116//197 63//198 32//199 38//200
f 60//201 27//204 33//203 118//202
f 51//205 23//208 25//207 72//206
f 110//209 35//212 39//211 113//210
f 70//213 29//216 21//215 47//214
f 115//217 37//220 31//219 62//218
f 180//221 122//222 207//223 213//224
f 189//225 168//226 215//227 217//228
f 130//229 127//230 201//231 205//232
f 170//233 191//234 219//235 211//236
f 125//237 177//238 209//239 203//240
