# Rhino

v -0.88312 -0.47316 0.044889
v -0.88312 0.47316 0.044889
v -0.88311 -0.47318 -0.044911
v -0.88311 -0.47317 0.044898
v -0.88311 0.47317 0.044898
v -0.88311 0.47318 -0.044911
v -0.8831 -0.47319 -0.044923
v -0.8831 0.47319 -0.044923
v -0.83822 -0.54581 0.072674
v -0.83822 0.54581 0.072674
v -0.83821 -0.54582 0.072668
v -0.83821 0.54582 0.072668
v -0.8382 -0.54584 -0.072647
v -0.8382 0.54584 -0.072647
v -0.83819 -0.54585 -0.072645
v -0.83819 0.54585 -0.072645
v -0.81045 -0.59074 3.4197e-05
v -0.81045 -0.59073 2.0678e-05
v -0.81045 0.59073 2.0678e-05
v -0.81045 0.59074 3.4197e-05
v -0.59077 0.00020511 -0.81042
v -0.59077 0.00021863 -0.81042
v -0.5907 -0.00010026 0.81047
v -0.5907 -8.6742e-05 0.81047
v -0.54588 0.072883 -0.83815
v -0.54587 0.072885 -0.83816
v -0.54586 -0.07243 -0.8382
v -0.54585 -0.072436 -0.83821
v -0.54581 0.072567 0.83823
v -0.5458 0.072569 0.83823
v -0.54579 -0.072746 0.83822
v -0.54578 -0.072752 0.83823
v -0.47322 0.045159 -0.88308
v -0.47321 -0.044663 -0.8831
v -0.47321 0.045147 -0.88308
v -0.4732 -0.044653 -0.88311
v -0.47314 -0.044995 0.88313
v -0.47314 0.044814 0.88313
v -0.47314 0.044826 0.88313
v -0.47313 -0.044986 0.88313
v -0.11756 -2.9854e-05 -0.044902
v -0.11756 -1.6957e-05 0.044882
v -0.11756 -7.2875e-06 -0.044887
v -0.11756 7.2875e-06 -0.044887
v -0.11756 1.6957e-05 0.044882
v -0.11756 2.9854e-05 -0.044902
v -0.11756 3.7548e-05 -0.044904
v -0.11755 -1.9441e-05 0.044908
v -0.11755 -4.4279e-06 0.044924
v -0.11755 1.2497e-05 -0.044915
v -0.11755 1.9441e-05 0.044908
v -0.11755 2.0626e-05 0.044914
v -0.072785 0.83827 -0.54571
v -0.072783 0.83827 -0.54572
v -0.072715 -0.83812 -0.54595
v -0.072713 -0.83811 -0.54596
v -0.072681 -0.072618 -0.072662
v -0.072675 -0.072645 0.072641
v -0.072672 -0.072648 0.072641
v -0.072672 0.072648 0.072641
v -0.072665 -0.072647 -0.072649
v -0.072665 0.072647 -0.072649
v -0.072665 0.072672 -0.072623
v -0.072662 -0.072617 -0.072682
v -0.072661 0.072657 -0.072643
v -0.07266 -0.072669 -0.072632
v -0.07266 0.072669 -0.072632
v -0.072659 -0.072657 -0.072644
v -0.072656 -0.072644 0.072661
v -0.072655 0.072629 0.072677
v -0.072652 -0.072667 0.072642
v -0.072652 0.072667 0.072642
v -0.072649 0.072667 -0.072645
v -0.072643 -0.072652 -0.072666
v -0.07264 0.072673 -0.072648
v -0.072638 0.072651 0.072672
v -0.072634 0.072646 0.072682
v -0.072632 -0.072678 0.07265
v -0.072622 0.072646 0.072693
v -0.072616 -0.072673 0.072672
v -0.072579 0.83811 0.54598
v -0.072577 0.83811 0.54599
v -0.072509 -0.83828 0.54573
v -0.072507 -0.83827 0.54575
v -0.045049 0.88317 -0.47305
v -0.045037 0.88317 -0.47304
v -0.044976 -0.88304 -0.47331
v -0.044963 -0.88304 -0.4733
v -0.044919 -0.11755 1.3202e-05
v -0.044919 0.11755 1.3202e-05
v -0.044909 -0.11755 -1.185e-05
v -0.044909 0.11755 -1.185e-05
v -0.044907 0.11755 -4.1565e-06
v -0.044907 0.11755 5.5552e-05
v -0.044897 -0.11756 -3.8634e-05
v -0.044897 -0.11756 2.1074e-05
v -0.044892 0.11756 1.8408e-05
v -0.044892 0.11756 3.2983e-05
v -0.044882 -0.11756 -1.6071e-05
v -0.044882 -0.11756 -1.4958e-06
v -0.044871 0.88303 0.47333
v -0.044859 0.88303 0.47332
v -0.044797 -0.88317 0.47307
v -0.044785 -0.88318 0.47306
v -0.00012445 0.81053 -0.59061
v -0.00011094 0.81053 -0.59062
v -5.6772e-05 -0.81036 -0.59085
v -4.3254e-05 -0.81036 -0.59086
v -3.5872e-05 0.044926 -0.11755
v -3.2121e-05 -0.044891 -0.11756
v -3.0935e-05 -0.044886 -0.11756
v -2.8447e-05 -0.04486 -0.11757
v -2.8178e-05 0.044924 -0.11755
v -2.1118e-05 -0.04493 0.11755
v -1.8629e-05 -0.044904 0.11756
v -1.8361e-05 0.044879 0.11756
v -1.0819e-05 0.044937 -0.11754
v -7.0682e-06 -0.044902 -0.11756
v -5.6141e-06 0.044909 -0.11755
v 4.2037e-06 0.044865 0.11757
v 5.4663e-06 -0.04486 -0.11757
v 7.9475e-06 -0.044886 -0.11756
v 8.4216e-06 0.044891 0.11756
v 8.9608e-06 0.044909 -0.11755
v 1.2172e-05 -0.044926 0.11755
v 1.5284e-05 -0.044904 0.11756
v 1.7765e-05 -0.04493 0.11755
v 1.8779e-05 0.044865 0.11757
v 3.153e-05 0.044924 -0.11755
v 3.3472e-05 0.044902 0.11756
v 3.7223e-05 -0.044937 0.11754
v 4.1347e-05 0.044879 0.11756
v 9.8129e-05 0.81036 0.59085
v 0.00011165 0.81036 0.59086
v 0.00016581 -0.81053 0.59061
v 0.00017933 -0.81053 0.59062
v 0.044763 0.88319 -0.47304
v 0.044772 0.88319 -0.47305
v 0.044837 -0.88305 -0.4733
v 0.044846 -0.88304 -0.4733
v 0.044877 0.11757 -8.1725e-06
v 0.044877 0.11757 2.5741e-05
v 0.044887 -0.11756 -4.2652e-05
v 0.044887 -0.11756 -8.7382e-06
v 0.044903 0.11756 -1.0663e-05
v 0.044903 0.11756 2.8219e-05
v 0.044909 -0.11755 -1.185e-05
v 0.044909 0.11755 -1.185e-05
v 0.044913 -0.11755 -4.514e-05
v 0.044913 -0.11755 -6.2571e-06
v 0.044919 -0.11755 1.3202e-05
v 0.044919 0.11755 1.3202e-05
v 0.044941 0.88305 0.47328
v 0.044951 0.88305 0.47329
v 0.045015 -0.88319 0.47302
v 0.045025 -0.88318 0.47303
v 0.07253 0.83829 -0.54571
v 0.072536 0.8383 -0.5457
v 0.0726 -0.83813 -0.54595
v 0.072606 -0.83813 -0.54594
v 0.072624 0.072685 -0.072651
v 0.072625 0.072665 -0.07267
v 0.072631 -0.072658 -0.072673
v 0.072632 -0.072638 -0.072691
v 0.072634 -0.072638 -0.072688
v 0.072641 -0.072666 0.072655
v 0.072652 -0.072667 0.072642
v 0.072652 0.072664 0.072645
v 0.072652 0.072667 0.072642
v 0.072653 -0.072639 -0.072668
v 0.072653 0.072644 0.072664
v 0.072655 0.072652 -0.072654
v 0.072658 -0.072679 0.072624
v 0.072659 -0.072659 0.072643
v 0.07266 -0.072669 -0.072632
v 0.07266 -0.072667 0.072635
v 0.07266 0.072669 -0.072632
v 0.072661 0.072624 0.072675
v 0.072665 -0.072647 -0.072649
v 0.072665 0.072647 -0.072649
v 0.072672 -0.072648 0.072641
v 0.072672 0.072648 0.072641
v 0.072677 0.072635 -0.072649
v 0.072683 0.072608 0.07267
v 0.072736 0.83813 0.54593
v 0.072742 0.83814 0.54592
v 0.072806 -0.83829 0.54568
v 0.072812 -0.83829 0.54567
v 0.11755 -3.8901e-05 0.044915
v 0.11755 -2.1976e-05 -0.044924
v 0.11755 -1.9441e-05 0.044908
v 0.11755 3.073e-06 -0.044914
v 0.11755 1.9441e-05 0.044908
v 0.11756 -2.9854e-05 -0.044902
v 0.11756 -1.6957e-05 0.044882
v 0.11756 -1.3848e-05 0.044904
v 0.11756 -7.2875e-06 -0.044887
v 0.11756 7.2875e-06 -0.044887
v 0.11756 1.6957e-05 0.044882
v 0.11756 2.9854e-05 -0.044902
v 0.47312 -0.044801 -0.88314
v 0.47312 -0.044792 -0.88315
v 0.47315 0.045008 -0.88312
v 0.47316 0.04502 -0.88311
v 0.47319 -0.045125 0.88309
v 0.4732 -0.045134 0.88309
v 0.47322 0.044675 0.88309
v 0.47323 0.044688 0.88309
v 0.54576 -0.072596 -0.83825
v 0.54577 -0.07259 -0.83825
v 0.54582 0.072725 -0.8382
v 0.54583 -0.072912 0.83818
v 0.54583 0.072723 -0.8382
v 0.54584 -0.072906 0.83817
v 0.54589 0.072409 0.83819
v 0.5459 0.072407 0.83818
v 0.5907 3.1866e-05 -0.81047
v 0.5907 4.5385e-05 -0.81047
v 0.59077 -0.0002735 0.81042
v 0.59077 -0.00025998 0.81042
v 0.81045 -0.59074 3.4197e-05
v 0.81045 -0.59073 2.0678e-05
v 0.81045 0.59073 2.0678e-05
v 0.81045 0.59074 3.4197e-05
v 0.83819 -0.54585 -0.072645
v 0.83819 0.54585 -0.072645
v 0.8382 -0.54584 -0.072647
v 0.8382 0.54584 -0.072647
v 0.83821 -0.54582 0.072668
v 0.83821 0.54582 0.072668
v 0.83822 -0.54581 0.072674
v 0.83822 0.54581 0.072674
v 0.8831 -0.47319 -0.044923
v 0.8831 0.47319 -0.044923
v 0.88311 -0.47318 -0.044911
v 0.88311 -0.47317 0.044898
v 0.88311 0.47317 0.044898
v 0.88311 0.47318 -0.044911
v 0.88312 -0.47316 0.044889
v 0.88312 0.47316 0.044889
vn 0.00044241 0.5256 0.85073
vn -0.95092 0.16252 0.26332
vn 0.0004424 0.52562 0.85072
vn 0.95119 0.16229 0.26248
vn 0.00012189 0.52585 -0.85058
vn -0.95102 0.1626 -0.26292
vn 0.00012188 0.52587 -0.85057
vn 0.95109 0.16237 -0.26279
vn -0.95092 0.1625 0.26333
vn -0.58814 -0.4252 -0.68796
vn 0.95119 0.16231 0.26247
vn 0.58743 -0.42535 -0.68848
vn -0.95102 0.16258 -0.26293
vn -0.58788 -0.4254 0.68806
vn 0.95109 0.16238 -0.26278
vn 0.58769 -0.42555 0.68814
vn -0.58814 -0.42522 -0.68795
vn 0.58743 -0.42533 -0.68849
vn -0.58788 -0.42542 0.68805
vn 0.58769 -0.42553 0.68815
vn 0.42529 0.688 -0.58803
vn -0.42529 0.688 -0.58803
vn 0.42546 0.68832 0.58754
vn -0.42546 0.68832 0.58754
vn 0.42547 0.68831 0.58754
vn -0.42547 0.68831 0.58754
vn -0.16231 -0.26262 0.95115
vn 0.16231 -0.26262 0.95115
vn 0.42527 0.68801 -0.58803
vn -0.42527 0.68801 -0.58803
vn -0.16258 -0.26313 -0.95096
vn 0.16258 -0.26313 -0.95096
vn -0.16229 -0.26263 0.95115
vn 0.16229 -0.26263 0.95115
vn -0.52574 -0.85064 0.00030409
vn 0.52574 -0.85064 0.00030409
vn -0.1626 -0.26312 -0.95096
vn 0.1626 -0.26312 -0.95096
vn -0.52573 -0.85065 0.0003041
vn 0.52573 -0.85065 0.0003041
vn 0.95112 0.1624 0.26266
vn 0.95102 0.16248 -0.26297
vn -0.95099 0.16241 0.26314
vn -0.95109 0.16249 -0.26274
vn 0.00022224 0.52562 0.85072
vn -9.8275e-05 0.52587 -0.85057
vn 0.42536 0.68811 -0.58785
vn -0.42536 0.68811 -0.58785
vn 0.00022225 0.5256 0.85073
vn -9.8265e-05 0.52585 -0.85058
vn 0.42539 0.68821 0.58772
vn -0.42539 0.68821 0.58772
vn 0.26326 0.95096 -0.16241
vn -0.68791 0.58805 0.42541
vn -0.263 0.95103 -0.16239
vn 0.68812 0.58785 0.42535
vn -0.58797 -0.42526 -0.68808
vn 0.58761 -0.42528 -0.68837
vn 0.95113 0.16242 0.26264
vn -0.16242 -0.2628 0.95108
vn 0.16242 -0.2628 0.95108
vn -0.16247 -0.26295 -0.95103
vn 0.16247 -0.26295 -0.95103
vn 0.26308 0.95102 -0.1623
vn -0.68802 0.58787 0.42548
vn -0.95099 0.16239 0.26315
vn -0.58771 -0.42547 0.68817
vn 0.58786 -0.42548 0.68803
vn 0.95103 0.16249 -0.26295
vn 0.42534 0.68812 -0.58785
vn -0.42534 0.68812 -0.58785
vn 0.42541 0.6882 0.58772
vn -0.42541 0.6882 0.58772
vn -0.26282 0.9511 -0.16228
vn 0.68823 0.58767 0.42542
vn 0.2631 0.95096 0.16264
vn -0.68805 0.58803 -0.4252
vn -0.95109 0.16247 -0.26275
vn -0.26281 0.95104 0.16266
vn 0.68819 0.58783 -0.42526
vn 0.26328 0.95089 0.16275
vn -0.68794 0.58821 -0.42513
vn -0.26298 0.95097 0.16277
vn 0.68808 0.58801 -0.42519
vn 0.26325 0.95095 -0.16243
vn 0.85063 -0.00032979 -0.52576
vn -0.26299 0.95103 -0.16241
vn -0.85068 -8.0324e-05 -0.52569
vn 0.58761 -0.42526 -0.68838
vn 0.85063 -0.00010964 -0.52576
vn -0.85068 0.00013983 -0.52569
vn -0.58797 -0.42528 -0.68806
vn 0.26307 0.95102 -0.16232
vn -0.26281 0.9511 -0.1623
vn 0.58786 -0.42546 0.68804
vn -0.58771 -0.42549 0.68816
vn 0.85068 -0.00030772 0.52569
vn -0.85063 -5.8256e-05 0.52576
vn 0.26309 0.95096 0.16266
vn -0.26279 0.95104 0.16268
vn 0.26326 0.95089 0.16277
vn 0.85068 -0.00052788 0.52569
vn -0.26297 0.95097 0.16279
vn -0.85063 -0.00027841 0.52576
vn -0.6879 0.58805 0.42543
vn -0.68839 -0.58752 0.42537
vn 0.68811 0.58785 0.42537
vn 0.68825 -0.58772 0.42532
vn -0.68828 -0.5877 0.42531
vn -0.52574 -0.85064 8.3935e-05
vn 0.52574 -0.85064 8.3935e-05
vn -0.68831 -0.58754 -0.42547
vn -0.52573 -0.85065 8.3946e-05
vn 0.52573 -0.85065 8.3946e-05
vn -0.16249 -0.26294 -0.95103
vn 0.16249 -0.26294 -0.95103
vn -0.68801 0.58787 0.4255
vn -0.1624 -0.26281 0.95108
vn 0.1624 -0.26281 0.95108
vn 0.68814 -0.5879 0.42525
vn -0.68804 0.58803 -0.42522
vn -0.1624 0.26281 0.95108
vn 0.1624 0.26281 0.95108
vn 0.68811 -0.58774 -0.42553
vn -0.16249 0.26294 -0.95103
vn 0.16249 0.26294 -0.95103
vn -0.52573 0.85065 8.3946e-05
vn 0.52573 0.85065 8.3946e-05
vn 0.68822 0.58767 0.42544
vn -0.52574 0.85064 8.3935e-05
vn 0.52574 0.85064 8.3935e-05
vn -0.68793 0.58821 -0.42515
vn 0.68818 0.58783 -0.42528
vn -0.68842 -0.58736 -0.42554
vn 0.68807 0.58801 -0.42521
vn 0.68822 -0.58756 -0.42559
vn 0.85062 -0.00032978 -0.52578
vn 0.26249 -0.95116 -0.16248
vn -0.85066 -8.0311e-05 -0.52571
vn -0.26278 -0.95108 -0.16246
vn 0.26266 -0.95109 -0.16259
vn -0.26296 -0.95101 -0.16257
vn 0.85062 -0.00010962 -0.52578
vn -0.85066 0.00013985 -0.52571
vn -0.588 0.42544 -0.68794
vn 0.58757 0.42551 -0.68826
vn 0.26268 -0.95115 0.16221
vn -0.26294 -0.95107 0.16223
vn 0.85066 -0.00030772 0.52571
vn -0.85062 -5.825e-05 0.52578
vn -0.58774 0.42523 0.68828
vn 0.58783 0.42531 0.68816
vn 0.85066 -0.00052787 0.52571
vn 0.2625 -0.95122 0.1621
vn -0.85062 -0.00027841 0.52578
vn -0.26276 -0.95114 0.16212
vn -0.68838 -0.58752 0.42539
vn 0.26247 -0.95116 -0.1625
vn 0.68824 -0.58772 0.42533
vn -0.26277 -0.95108 -0.16247
vn 0.26265 -0.95109 -0.16261
vn -0.68827 -0.5877 0.42532
vn -0.26295 -0.95101 -0.16258
vn 0.26267 -0.95115 0.16223
vn -0.95097 -0.16255 0.26311
vn 0.68813 -0.5879 0.42527
vn 0.95114 -0.16241 0.2626
vn 0.42541 -0.6882 0.58772
vn -0.42541 -0.6882 0.58772
vn 0.42534 -0.68812 -0.58785
vn -0.42534 -0.68812 -0.58785
vn 0.58757 0.42553 -0.68825
vn -0.6883 -0.58754 -0.42549
vn -0.26293 -0.95107 0.16225
vn -0.588 0.42542 -0.68795
vn -0.95107 -0.16247 -0.2628
vn -0.16247 0.26295 -0.95103
vn 0.16247 0.26295 -0.95103
vn 0.95104 -0.16234 -0.263
vn -0.16242 0.2628 0.95108
vn 0.16242 0.2628 0.95108
vn 0.58783 0.42533 0.68815
vn 0.6881 -0.58774 -0.42555
vn -0.58774 0.42522 0.6883
vn -0.68841 -0.58736 -0.42556
vn 0.26249 -0.95122 0.16212
vn 0.68821 -0.58756 -0.42561
vn -0.26275 -0.95114 0.16214
vn 0.42539 -0.68821 0.58772
vn -0.42539 -0.68821 0.58772
vn 0.42536 -0.68811 -0.58785
vn -0.42536 -0.68811 -0.58785
vn 0.00026614 -0.52587 0.85057
vn -5.4369e-05 -0.52562 -0.85072
vn 0.00026616 -0.52585 0.85058
vn -5.4361e-05 -0.5256 -0.85073
vn 0.95114 -0.1624 0.26261
vn 0.95104 -0.16232 -0.26301
vn -0.95097 -0.16257 0.2631
vn -0.95107 -0.16249 -0.26279
vn -0.52573 0.85065 0.0003041
vn 0.52573 0.85065 0.0003041
vn -0.1626 0.26312 -0.95096
vn 0.1626 0.26312 -0.95096
vn -0.52574 0.85064 0.00030409
vn 0.52574 0.85064 0.00030409
vn -0.16229 0.26263 0.95115
vn 0.16229 0.26263 0.95115
vn -0.16258 0.26313 -0.95096
vn 0.16258 0.26313 -0.95096
vn 0.42527 -0.68801 -0.58803
vn -0.42527 -0.68801 -0.58803
vn -0.16231 0.26262 0.95115
vn 0.16231 0.26262 0.95115
vn 0.42547 -0.68831 0.58754
vn -0.42547 -0.68831 0.58754
vn 0.42546 -0.68832 0.58754
vn -0.42546 -0.68832 0.58754
vn 0.42529 -0.688 -0.58803
vn -0.42529 -0.688 -0.58803
vn 0.58739 0.42558 -0.68837
vn -0.58818 0.42537 -0.68783
vn 0.58765 0.42538 0.68827
vn -0.58792 0.42517 0.68817
vn 0.58739 0.4256 -0.68836
vn 0.95121 -0.1623 0.26242
vn -0.58818 0.42535 -0.68784
vn -0.95091 -0.16266 0.26329
vn 0.58765 0.4254 0.68826
vn 0.95111 -0.16223 -0.26282
vn -0.58792 0.42515 0.68819
vn -0.95101 -0.16258 -0.26297
vn 0.95121 -0.16229 0.26243
vn 0.0004863 -0.52587 0.85057
vn -0.95091 -0.16268 0.26327
vn 0.00048631 -0.52585 0.85058
vn 0.95111 -0.16221 -0.26284
vn 0.00016579 -0.52562 -0.85072
vn -0.95101 -0.1626 -0.26296
vn 0.0001658 -0.5256 -0.85073
f 73//179 53//230 85//237 97//198
f 117//152 105//223 54//229 63//182
f 93//194 86//238 137//240 145//196
f 161//184 157//231 106//224 109//151
f 141//200 138//239 158//232 162//176
f 79//167 98//197 101//233 81//226
f 130//146 76//172 82//225 133//221
f 94//193 146//195 153//236 102//234
f 168//175 123//145 134//222 185//227
f 142//199 171//165 186//228 154//235
f 80//59 83//11 103//4 100//41
f 131//89 135//18 84//12 78//58
f 96//45 104//3 155//1 150//49
f 173//57 187//10 136//17 125//92
f 144//43 156//2 188//9 174//66
f 74//69 99//42 87//8 55//15
f 118//95 68//68 56//16 107//20
f 95//46 149//50 139//5 88//7
f 163//67 110//96 108//19 159//14
f 143//44 164//78 160//13 140//6
f 65//174 26//188 33//156 119//148
f 50//124 22//136 25//187 75//183
f 113//150 35//155 36//104 111//98
f 64//80 27//84 21//135 47//133
f 112//100 34//103 28//83 57//79
f 183//164 124//147 204//154 211//186
f 190//112 172//173 213//185 218//134
f 129//149 122//97 202//102 203//153
f 165//77 192//121 217//132 210//82
f 121//99 170//76 209//81 201//101
f 184//161 215//158 208//138 128//141
f 189//109 220//106 216//157 178//162
f 132//143 207//137 205//86 127//90
f 166//65 214//54 219//105 196//117
f 126//93 206//85 212//53 176//64
f 70//163 120//142 39//140 30//160
f 49//120 77//166 29//159 24//108
f 116//144 114//91 40//88 38//139
f 69//75 52//129 23//107 31//56
f 115//94 58//74 32//55 37//87
f 67//181 14//214 8//208 44//123
f 90//190 19//218 16//216 62//169
f 46//131 6//206 2//202 51//128
f 60//171 12//212 20//220 92//192
f 45//126 5//204 10//210 72//178
f 66//61 43//119 7//34 13//28
f 89//52 61//73 15//26 18//24
f 41//111 48//114 1//40 3//36
f 59//71 91//48 17//22 11//30
f 42//116 71//63 9//32 4//38
f 175//60 227//27 233//33 197//118
f 151//51 222//23 225//25 179//72
f 194//110 235//35 239//39 191//113
f 181//70 229//29 221//21 147//47
f 195//115 236//37 231//31 167//62
f 177//180 198//122 234//207 228//213
f 152//189 180//168 226//215 223//217
f 200//130 193//127 240//201 238//205
f 182//170 148//191 224//219 230//211
f 199//125 169//177 232//209 237//203
