# Rhino

v -1.4142 1.1102e-16 0
v -1.3565 1.1102e-16 0
v -1.3017 0 -0.1125
v -1.3017 0 0.1125
v -1.3017 -0.1125 0
v -1.3017 0.1125 0
v -1.2728 1.1102e-16 -0.083633
v -1.2728 1.1102e-16 0.083633
v -1.2728 -0.083633 0
v -1.2728 0.083633 0
v -0.70711 0.59461 -0.70711
v -0.70711 0.59461 0.70711
v -0.70711 -0.59461 -0.70711
v -0.70711 -0.59461 0.70711
v -0.70711 -0.70711 -0.70711
v -0.70711 -0.70711 -0.59461
v -0.70711 -0.70711 0.59461
v -0.70711 -0.70711 0.70711
v -0.70711 0.70711 -0.70711
v -0.70711 0.70711 -0.59461
v -0.70711 0.70711 0.59461
v -0.70711 0.70711 0.70711
v -0.67824 -0.59461 -0.67824
v -0.67824 -0.59461 0.67824
v -0.67824 0.59461 -0.67824
v -0.67824 0.59461 0.67824
v -0.67824 -0.67824 -0.67824
v -0.67824 -0.67824 -0.59461
v -0.67824 -0.67824 0.59461
v -0.67824 -0.67824 0.67824
v -0.67824 0.67824 -0.67824
v -0.67824 0.67824 -0.59461
v -0.67824 0.67824 0.59461
v -0.67824 0.67824 0.67824
v -0.59461 -0.70711 -0.70711
v -0.59461 -0.70711 0.70711
v -0.59461 -0.67824 -0.67824
v -0.59461 -0.67824 0.67824
v -0.59461 0.70711 -0.70711
v -0.59461 0.70711 0.70711
v -0.59461 0.67824 -0.67824
v -0.59461 0.67824 0.67824
v -0.1125 6.9389e-18 -1.3017
v -0.1125 6.9389e-18 1.3017
v -0.1125 -1.3017 0
v -0.1125 1.3017 0
v -0.083633 6.9389e-18 -1.2728
v -0.083633 6.9389e-18 1.2728
v -0.083633 -1.2728 0
v -0.083633 1.2728 0
v -1.1102e-16 -1.4142 0
v -1.1102e-16 -1.3565 0
v -1.1102e-16 -1.2728 -0.083633
v -1.1102e-16 -1.2728 0.083633
v -6.9389e-18 -0.1125 -1.3017
v -6.9389e-18 -0.1125 1.3017
v -6.9389e-18 -0.083633 -1.2728
v -6.9389e-18 -0.083633 1.2728
v 0 -1.3017 -0.1125
v 0 -1.3017 0.1125
v 0 0 -1.4142
v 0 0 -1.3565
v 0 0 1.3565
v 0 0 1.4142
v 0 1.3017 -0.1125
v 0 1.3017 0.1125
v 6.9389e-18 0.083633 -1.2728
v 6.9389e-18 0.083633 1.2728
v 6.9389e-18 0.1125 -1.3017
v 6.9389e-18 0.1125 1.3017
v 1.1102e-16 1.2728 -0.083633
v 1.1102e-16 1.2728 0.083633
v 1.1102e-16 1.3565 0
v 1.1102e-16 1.4142 0
v 0.083633 -1.2728 0
v 0.083633 1.2728 0
v 0.083633 -6.9389e-18 -1.2728
v 0.083633 -6.9389e-18 1.2728
v 0.1125 -1.3017 0
v 0.1125 1.3017 0
v 0.1125 -6.9389e-18 -1.3017
v 0.1125 -6.9389e-18 1.3017
v 0.59461 -0.67824 -0.67824
v 0.59461 -0.67824 0.67824
v 0.59461 -0.70711 -0.70711
v 0.59461 -0.70711 0.70711
v 0.59461 0.67824 -0.67824
v 0.59461 0.67824 0.67824
v 0.59461 0.70711 -0.70711
v 0.59461 0.70711 0.70711
v 0.67824 -0.67824 -0.67824
v 0.67824 -0.67824 -0.59461
v 0.67824 -0.67824 0.59461
v 0.67824 -0.67824 0.67824
v 0.67824 0.67824 -0.67824
v 0.67824 0.67824 -0.59461
v 0.67824 0.67824 0.59461
v 0.67824 0.67824 0.67824
v 0.67824 -0.59461 -0.67824
v 0.67824 -0.59461 0.67824
v 0.67824 0.59461 -0.67824
v 0.67824 0.59461 0.67824
v 0.70711 -0.70711 -0.70711
v 0.70711 -0.70711 -0.59461
v 0.70711 -0.70711 0.59461
v 0.70711 -0.70711 0.70711
v 0.70711 0.70711 -0.70711
v 0.70711 0.70711 -0.59461
v 0.70711 0.70711 0.59461
v 0.70711 0.70711 0.70711
v 0.70711 0.59461 -0.70711
v 0.70711 0.59461 0.70711
v 0.70711 -0.59461 -0.70711
v 0.70711 -0.59461 0.70711
v 1.2728 -0.083633 0
v 1.2728 0.083633 0
v 1.2728 -1.1102e-16 -0.083633
v 1.2728 -1.1102e-16 0.083633
v 1.3017 -0.1125 0
v 1.3017 0.1125 0
v 1.3017 0 -0.1125
v 1.3017 0 0.1125
v 1.3565 -1.1102e-16 0
v 1.4142 -1.1102e-16 0
vn 5.5511e-17 1 0
vn 0.57735 0.57735 0.57735
vn 0.57735 0.57735 -0.57735
vn 1 -5.5511e-17 0
vn -0.57735 0.57735 0.57735
vn -0.57735 0.57735 -0.57735
vn 0 0 1
vn 0 0 -1
vn 0.57735 -0.57735 0.57735
vn 0.57735 -0.57735 -0.57735
vn -1 5.5511e-17 0
vn -0.57735 -0.57735 0.57735
vn -0.57735 -0.57735 -0.57735
vn -5.5511e-17 -1 0
vn -5.5511e-17 -1 0
vn -0.57735 -0.57735 -0.57735
vn -0.57735 -0.57735 0.57735
vn -1 5.5511e-17 0
vn 0.57735 -0.57735 -0.57735
vn 0.57735 -0.57735 0.57735
vn 0 0 -1
vn 0 0 1
vn -0.57735 0.57735 -0.57735
vn -0.57735 0.57735 0.57735
vn 1 -5.5511e-17 0
vn 0.57735 0.57735 -0.57735
vn 0.57735 0.57735 0.57735
vn 5.5511e-17 1 0
vn 0.54772 0.54772 -0.63246
vn -0.54772 -0.54772 -0.63246
vn 0.96593 0.25882 0
vn -0.25882 -0.96593 0
vn 0.54772 0.54772 0.63246
vn -0.54772 -0.54772 0.63246
vn 0.25882 0.96593 0
vn -0.96593 -0.25882 0
vn 0 0.25882 0.96593
vn -1.1102e-16 -0.96593 -0.25882
vn -0.63246 0.54772 0.54772
vn -0.63246 -0.54772 -0.54772
vn 1.1102e-16 0.96593 0.25882
vn -2.1073e-08 -0.25882 -0.96593
vn 0.63246 0.54772 0.54772
vn 0.63246 -0.54772 -0.54772
vn 0.63246 0.54772 -0.54772
vn 0.63246 -0.54772 0.54772
vn 1.1102e-16 0.96593 -0.25882
vn 2.1073e-08 -0.25882 0.96593
vn -0.63246 0.54772 -0.54772
vn -0.63246 -0.54772 0.54772
vn 0 0.25882 -0.96593
vn -1.1102e-16 -0.96593 0.25882
vn 0.54772 -0.63246 0.54772
vn -0.54772 -0.63246 -0.54772
vn 0.25882 -2.1073e-08 0.96593
vn -0.96593 1.1102e-16 -0.25882
vn 0.54772 0.63246 0.54772
vn -0.54772 0.63246 -0.54772
vn 0.96593 -1.1102e-16 0.25882
vn -0.25882 2.1073e-08 -0.96593
vn 0.96593 -1.1102e-16 -0.25882
vn -0.25882 2.1073e-08 0.96593
vn 0.54772 0.63246 -0.54772
vn -0.54772 0.63246 0.54772
vn 0.25882 2.1073e-08 -0.96593
vn -0.96593 1.1102e-16 0.25882
vn 0.54772 -0.63246 -0.54772
vn -0.54772 -0.63246 0.54772
vn -0.25882 0.96593 0
vn 0.96593 -0.25882 0
vn -0.54772 0.54772 0.63246
vn 0.54772 -0.54772 0.63246
vn -0.96593 0.25882 0
vn 0.25882 -0.96593 0
vn -0.54772 0.54772 -0.63246
vn 0.54772 -0.54772 -0.63246
vn 0.54772 -0.54772 -0.63246
vn -0.54772 0.54772 -0.63246
vn 0.25882 -0.96593 0
vn -0.96593 0.25882 0
vn 0.54772 -0.54772 0.63246
vn -0.54772 0.54772 0.63246
vn 0.96593 -0.25882 0
vn -0.25882 0.96593 0
vn -0.54772 -0.63246 0.54772
vn 0.54772 -0.63246 -0.54772
vn -0.96593 1.1102e-16 0.25882
vn 0.25882 -2.1073e-08 -0.96593
vn -0.54772 0.63246 0.54772
vn 0.54772 0.63246 -0.54772
vn -0.25882 0 0.96593
vn 0.96593 -1.1102e-16 -0.25882
vn -0.25882 0 -0.96593
vn 0.96593 -1.1102e-16 0.25882
vn -0.54772 0.63246 -0.54772
vn 0.54772 0.63246 0.54772
vn -0.96593 1.1102e-16 -0.25882
vn 0.25882 2.1073e-08 0.96593
vn -0.54772 -0.63246 -0.54772
vn 0.54772 -0.63246 0.54772
vn -1.1102e-16 -0.96593 0.25882
vn -2.1073e-08 0.25882 -0.96593
vn -0.63246 -0.54772 0.54772
vn -0.63246 0.54772 -0.54772
vn -2.1073e-08 -0.25882 0.96593
vn 1.1102e-16 0.96593 -0.25882
vn 0.63246 -0.54772 0.54772
vn 0.63246 0.54772 -0.54772
vn 0.63246 -0.54772 -0.54772
vn 0.63246 0.54772 0.54772
vn 2.1073e-08 -0.25882 -0.96593
vn 1.1102e-16 0.96593 0.25882
vn -0.63246 -0.54772 -0.54772
vn -0.63246 0.54772 0.54772
vn -1.1102e-16 -0.96593 -0.25882
vn -2.1073e-08 0.25882 0.96593
vn -0.96593 -0.25882 0
vn 0.25882 0.96593 0
vn -0.54772 -0.54772 0.63246
vn 0.54772 0.54772 0.63246
vn -0.25882 -0.96593 0
vn 0.96593 0.25882 0
vn -0.54772 -0.54772 -0.63246
vn 0.54772 0.54772 -0.63246
f 15//2 1//4 5//35 16//29
f 28//30 49//32 45//31 16//29
f 27//16 52//15 49//32 28//30
f 51//1 15//2 16//29 45//31
f 49//32 29//34 17//33 45//31
f 52//15 30//17 29//34 49//32
f 18//3 51//1 45//31 17//33
f 29//34 9//36 5//35 17//33
f 30//17 2//18 9//36 29//34
f 1//4 18//3 17//33 5//35
f 9//36 28//30 16//29 5//35
f 2//18 27//16 28//30 9//36
f 51//1 103//5 85//43 59//37
f 53//38 37//40 35//39 59//37
f 52//15 27//16 37//40 53//38
f 15//2 51//1 59//37 35//39
f 37//40 57//42 55//41 35//39
f 27//16 62//21 57//42 37//40
f 61//7 15//2 35//39 55//41
f 57//42 83//44 85//43 55//41
f 62//21 91//19 83//44 57//42
f 103//5 61//7 55//41 85//43
f 83//44 53//38 59//37 85//43
f 91//19 52//15 53//38 83//44
f 106//6 51//1 60//51 86//45
f 84//46 58//48 56//47 86//45
f 94//20 63//22 58//48 84//46
f 64//8 106//6 86//45 56//47
f 58//48 38//50 36//49 56//47
f 63//22 30//17 38//50 58//48
f 18//3 64//8 56//47 36//49
f 38//50 54//52 60//51 36//49
f 30//17 52//15 54//52 38//50
f 51//1 18//3 36//49 60//51
f 54//52 84//46 86//45 60//51
f 52//15 94//20 84//46 54//52
f 15//2 61//7 43//59 13//53
f 23//54 7//56 3//55 13//53
f 27//16 2//18 7//56 23//54
f 1//4 15//2 13//53 3//55
f 7//56 25//58 11//57 3//55
f 2//18 31//23 25//58 7//56
f 19//9 1//4 3//55 11//57
f 25//58 47//60 43//59 11//57
f 31//23 62//21 47//60 25//58
f 61//7 19//9 11//57 43//59
f 47//60 23//54 13//53 43//59
f 62//21 27//16 23//54 47//60
f 64//8 18//3 14//67 44//61
f 48//62 26//64 12//63 44//61
f 63//22 34//24 26//64 48//62
f 22//10 64//8 44//61 12//63
f 26//64 8//66 4//65 12//63
f 34//24 2//18 8//66 26//64
f 1//4 22//10 12//63 4//65
f 8//66 24//68 14//67 4//65
f 2//18 30//17 24//68 8//66
f 18//3 1//4 4//65 14//67
f 24//68 48//62 44//61 14//67
f 30//17 63//22 48//62 24//68
f 124//11 103//5 104//75 119//69
f 115//70 93//72 105//71 119//69
f 123//25 94//20 93//72 115//70
f 106//6 124//11 119//69 105//71
f 93//72 75//74 79//73 105//71
f 94//20 52//15 75//74 93//72
f 51//1 106//6 105//71 79//73
f 75//74 92//76 104//75 79//73
f 52//15 91//19 92//76 75//74
f 103//5 51//1 79//73 104//75
f 92//76 115//70 119//69 104//75
f 91//19 123//25 115//70 92//76
f 19//9 74//14 46//83 20//77
f 32//78 10//80 6//79 20//77
f 31//23 2//18 10//80 32//78
f 1//4 19//9 20//77 6//79
f 10//80 33//82 21//81 6//79
f 2//18 34//24 33//82 10//80
f 22//10 1//4 6//79 21//81
f 33//82 50//84 46//83 21//81
f 34//24 73//28 50//84 33//82
f 74//14 22//10 21//81 46//83
f 50//84 32//78 20//77 46//83
f 73//28 31//23 32//78 50//84
f 103//5 124//11 121//91 113//85
f 99//86 77//88 81//87 113//85
f 91//19 62//21 77//88 99//86
f 61//7 103//5 113//85 81//87
f 77//88 101//90 111//89 81//87
f 62//21 95//26 101//90 77//88
f 107//12 61//7 81//87 111//89
f 101//90 117//92 121//91 111//89
f 95//26 123//25 117//92 101//90
f 124//11 107//12 111//89 121//91
f 117//92 99//86 113//85 121//91
f 123//25 91//19 99//86 117//92
f 124//11 106//6 114//99 122//93
f 118//94 102//96 112//95 122//93
f 123//25 98//27 102//96 118//94
f 110//13 124//11 122//93 112//95
f 102//96 78//98 82//97 112//95
f 98//27 63//22 78//98 102//96
f 64//8 110//13 112//95 82//97
f 78//98 100//100 114//99 82//97
f 63//22 94//20 100//100 78//98
f 106//6 64//8 82//97 114//99
f 100//100 118//94 122//93 114//99
f 94//20 123//25 118//94 100//100
f 61//7 107//12 89//107 69//101
f 67//102 41//104 39//103 69//101
f 62//21 31//23 41//104 67//102
f 19//9 61//7 69//101 39//103
f 41//104 71//106 65//105 39//103
f 31//23 73//28 71//106 41//104
f 74//14 19//9 39//103 65//105
f 71//106 87//108 89//107 65//105
f 73//28 95//26 87//108 71//106
f 107//12 74//14 65//105 89//107
f 87//108 67//102 69//101 89//107
f 95//26 62//21 67//102 87//108
f 110//13 64//8 70//115 90//109
f 88//110 72//112 66//111 90//109
f 98//27 73//28 72//112 88//110
f 74//14 110//13 90//109 66//111
f 72//112 42//114 40//113 66//111
f 73//28 34//24 42//114 72//112
f 22//10 74//14 66//111 40//113
f 42//114 68//116 70//115 40//113
f 34//24 63//22 68//116 42//114
f 64//8 22//10 40//113 70//115
f 68//116 88//110 90//109 70//115
f 63//22 98//27 88//110 68//116
f 74//14 107//12 108//123 80//117
f 76//118 97//120 109//119 80//117
f 73//28 98//27 97//120 76//118
f 110//13 74//14 80//117 109//119
f 97//120 116//122 120//121 109//119
f 98//27 123//25 116//122 97//120
f 124//11 110//13 109//119 120//121
f 116//122 96//124 108//123 120//121
f 123//25 95//26 96//124 116//122
f 107//12 124//11 120//121 108//123
f 96//124 76//118 80//117 108//123
f 95//26 73//28 76//118 96//124
