# Rhino

v -0.70848 2.5723e-06 -0.36518
v -0.70227 -0.036325 0.37523
v -0.70227 0.03633 0.37523
v -0.68603 -0.058776 -0.40151
v -0.68603 0.058781 -0.40151
v -0.66595 -0.058777 0.434
v -0.66595 0.05878 0.434
v -0.6497 -0.036326 -0.46029
v -0.6497 0.036329 -0.46029
v -0.6435 1.2908e-06 0.47033
v -0.46776 0.64509 0.019096
v -0.46776 -0.64509 0.019096
v -0.44866 0.65689 -0.050002
v -0.44866 -0.65689 -0.050002
v -0.41776 -0.67599 0.061801
v -0.41776 0.67599 0.061801
v -0.38686 -0.69508 -0.050002
v -0.38686 0.69508 -0.050002
v -0.36776 -0.70689 0.019096
v -0.36776 0.70689 0.019096
v -0.11894 -9.0543e-06 -0.00085157
v -0.11274 -0.036336 0.010892
v -0.11273 0.036318 0.010892
v -0.10343 -0.05556 0.019098
v -0.10343 0.055538 0.019098
v -0.096491 -0.058788 -0.037179
v -0.096488 0.058769 -0.037179
v -0.084328 -0.067363 -0.05
v -0.084327 0.067341 -0.05
v -0.07641 -0.058788 0.069672
v -0.076408 0.058769 0.069672
v -0.060165 -0.036337 -0.095959
v -0.060163 0.036317 -0.095959
v -0.058781 -0.43402 -0.66595
v -0.058781 0.43399 -0.66595
v -0.05878 -0.40152 0.68603
v -0.05878 0.4015 0.68603
v -0.058779 -0.069683 -0.076409
v -0.058779 0.06966 -0.076409
v -0.058779 -0.03719 0.09649
v -0.058779 0.037168 0.09649
v -0.053959 -1.0336e-05 0.106
v -0.053426 -0.086461 0.061803
v -0.053425 0.086439 0.061803
v -0.036329 -0.4603 0.6497
v -0.036329 0.46028 0.6497
v -0.036329 -0.37524 -0.70227
v -0.036329 0.37521 -0.70227
v -0.036328 -0.09597 0.060164
v -0.036328 0.095947 0.060164
v -0.036327 -0.010904 -0.11273
v -0.036327 0.010881 -0.11273
v -0.022524 -0.10556 -0.05
v -0.022522 0.10554 -0.05
v -0.0034256 -0.11736 0.019098
v -0.0034239 0.11734 0.019098
v -2.1746e-06 -0.47034 -0.6435
v -2.1746e-06 0.47032 -0.6435
v -1.6885e-06 -0.3652 0.70848
v -1.6885e-06 0.36517 0.70848
v -4.901e-07 -0.10601 -0.053959
v -4.901e-07 0.10599 -0.053959
v -3.9373e-09 -0.00086297 0.11894
v -3.9373e-09 0.00084017 0.11894
v 0.0034239 0.11734 0.019098
v 0.0034256 -0.11736 0.019098
v 0.022522 0.10554 -0.05
v 0.022524 -0.10556 -0.05
v 0.036325 -0.4603 0.6497
v 0.036325 0.46028 0.6497
v 0.036325 -0.37524 -0.70227
v 0.036325 0.37521 -0.70227
v 0.036327 -0.09597 0.060164
v 0.036327 0.095948 0.060164
v 0.036327 -0.010904 -0.11273
v 0.036327 0.010881 -0.11273
v 0.053425 0.086439 0.061803
v 0.053426 -0.086461 0.061803
v 0.053959 -1.0336e-05 0.106
v 0.058777 -0.43402 -0.66595
v 0.058777 0.43399 -0.66595
v 0.058777 -0.40152 0.68603
v 0.058777 0.4015 0.68603
v 0.058778 -0.069683 -0.076409
v 0.058778 0.069661 -0.076409
v 0.058778 -0.037191 0.09649
v 0.058778 0.037168 0.09649
v 0.060163 0.036317 -0.095959
v 0.060165 -0.036337 -0.095959
v 0.076408 0.058769 0.069672
v 0.07641 -0.058788 0.069672
v 0.084327 0.067341 -0.05
v 0.084328 -0.067363 -0.05
v 0.096488 0.058769 -0.037179
v 0.096491 -0.058788 -0.037179
v 0.10343 0.055538 0.019098
v 0.10343 -0.05556 0.019098
v 0.11273 0.036318 0.010892
v 0.11274 -0.036336 0.010892
v 0.11894 -9.0543e-06 -0.00085157
v 0.36776 0.70689 0.019096
v 0.36776 -0.70689 0.019096
v 0.38686 0.69508 -0.050002
v 0.38686 -0.69508 -0.050002
v 0.41776 -0.67599 0.061801
v 0.41776 0.67599 0.061801
v 0.44866 -0.65689 -0.050002
v 0.44866 0.65689 -0.050002
v 0.46776 -0.64509 0.019096
v 0.46776 0.64509 0.019096
v 0.6435 1.2908e-06 0.47033
v 0.6497 0.036329 -0.46029
v 0.6497 -0.036326 -0.46029
v 0.66595 0.05878 0.434
v 0.66595 -0.058777 0.434
v 0.68603 0.058781 -0.40151
v 0.68603 -0.058776 -0.40151
v 0.70227 0.03633 0.37523
v 0.70227 -0.036325 0.37523
v 0.70848 2.5723e-06 -0.36518
vn 0.2185 0.96295 0.15809
vn -0.80902 0.49999 -0.30903
vn -0.29726 -0.2853 -0.91117
vn 0.70711 -0.31624 -0.63245
vn 0.45147 0.58749 -0.67159
vn -0.09134 0.99089 -0.098925
vn 0.75828 0.54708 -0.35455
vn 0.3451 -0.23216 -0.9094
vn -0.57533 -0.1605 -0.80202
vn -0.6243 0.59763 -0.50307
vn -0.1087 -0.30307 0.94675
vn 0.80069 0.088624 0.59249
vn 0.30578 0.94658 0.10242
vn -0.57456 0.81218 0.10118
vn -0.68931 0.20247 0.6956
vn 0.1087 0.30307 0.94675
vn -0.80069 -0.088616 0.59249
vn -0.36298 -0.93155 0.021524
vn 0.4885 -0.85546 0.17193
vn 0.6893 -0.20247 0.6956
vn 0.091335 -0.99089 -0.098925
vn -0.7583 -0.54707 -0.35455
vn -0.2976 0.27263 -0.91494
vn 0.57323 0.19611 -0.79558
vn 0.62431 -0.59763 -0.50307
vn -0.88039 -0.12748 0.45679
vn -0.61225 0.79062 -0.0077907
vn -0.16532 0.39195 -0.90501
vn -0.29455 -0.49232 -0.81906
vn -0.72307 -0.68371 -0.098536
vn 0.88039 0.12751 0.45679
vn 0.61229 -0.7906 -0.0077968
vn 0.23517 -0.33767 -0.91141
vn 0.23196 0.56665 -0.79063
vn 0.72304 0.68374 -0.098529
vn 0.17091 0.094838 0.98071
vn 0.38556 -0.77744 0.49692
vn 0.90125 -0.35192 -0.25276
vn 0.83475 0.53185 -0.14259
vn 0.54211 0.64844 0.53446
vn -0.17091 -0.094847 0.98071
vn -0.38554 0.77745 0.49692
vn -0.90124 0.35195 -0.25276
vn -0.83477 -0.53182 -0.14259
vn -0.54212 -0.64843 0.53446
vn -0.24504 -0.54913 0.79901
vn -0.95543 -0.090268 0.28109
vn -0.61464 -0.31641 -0.72257
vn 0.20618 -0.74882 -0.62988
vn 0.13932 -0.96745 0.21127
vn -0.42732 0.43218 0.79411
vn 0.30779 0.91852 0.24817
vn 0.029904 0.63397 -0.77278
vn -0.76803 0.22592 -0.59924
vn -0.92544 0.28667 0.24775
vn 0.24503 0.54913 0.79901
vn 0.95542 0.090295 0.2811
vn 0.61463 0.31642 -0.72257
vn -0.20619 0.74882 -0.62988
vn -0.16757 0.97358 0.15514
vn 0.42732 -0.43218 0.79411
vn -0.35584 -0.91104 0.20831
vn -0.029899 -0.63397 -0.77278
vn 0.76804 -0.2259 -0.59924
vn 0.92545 -0.28664 0.24774
vn 0.21851 -0.57208 0.79055
vn -0.80902 0.052767 0.58541
vn -0.29727 0.94256 0.15236
vn 0.7071 0.70711 1.8635e-05
vn 0.45147 0.33792 0.82583
vn -0.21851 0.57208 0.79055
vn 0.80902 -0.052775 0.58541
vn 0.29726 -0.94256 0.15236
vn -0.70711 -0.7071 1.8613e-05
vn -0.45147 -0.33791 0.82583
vn -0.21851 -0.96294 0.15809
vn 0.80901 -0.5 -0.30903
vn 0.29726 0.2853 -0.91117
vn -0.70711 0.31625 -0.63245
vn -0.45147 -0.58748 -0.67159
vn -0.79055 0.21852 0.57208
vn -0.58543 -0.80901 -0.052771
vn -0.15237 -0.29726 -0.94256
vn -4.631e-06 0.70711 -0.70711
vn -0.82582 0.45149 -0.33792
vn 0.79056 -0.21849 0.57208
vn 0.5854 0.80903 -0.052771
vn 0.15235 0.29727 -0.94256
vn 3.2483e-05 -0.70711 -0.70711
vn 0.82584 -0.45145 -0.33792
vn -0.15808 -0.21851 0.96294
vn 0.30901 0.80902 0.49999
vn 0.91117 0.29728 -0.2853
vn 0.63246 -0.70709 -0.31624
vn 0.6716 -0.45146 0.58749
vn 0.15809 0.2185 0.96294
vn -0.30905 -0.80901 0.49999
vn -0.91118 -0.29724 -0.2853
vn -0.63243 0.70712 -0.31624
vn -0.67158 0.45148 0.58749
vn -0.38131 -0.20136 0.90225
vn 0.41181 -0.87253 0.26286
vn -0.075765 -0.68804 -0.72171
vn -0.79694 0.055507 -0.6015
vn -0.84675 -0.51136 0.14669
vn -0.0095522 0.43111 0.90225
vn -0.96458 0.021921 0.26286
vn -0.5815 0.3755 -0.72171
vn 0.40609 0.68796 -0.6015
vn -0.078645 0.98605 0.14669
vn 0.38131 0.20137 0.90225
vn -0.41183 0.87253 0.26286
vn 0.075754 0.68804 -0.72171
vn 0.79694 -0.055495 -0.6015
vn 0.84675 0.51137 0.14669
vn 0.0095586 -0.43111 0.90225
vn 0.96458 -0.021907 0.26286
vn 0.5815 -0.37549 -0.72171
vn -0.40608 -0.68797 -0.6015
vn 0.07866 -0.98605 0.14669
f 35//2 58//1 81//5
f 48//3 35//2 81//5
f 72//4 48//3 81//5
f 51//23 76//8 75//24
f 51//23 38//22 32//29
f 75//24 76//8 89//33
f 84//25 75//24 89//33
f 76//8 85//7 88//34
f 89//33 76//8 88//34
f 87//12 64//11 79//36
f 64//11 63//16 79//36
f 63//16 86//20 79//36
f 79//36 86//20 91//37
f 95//32 100//31 99//38
f 100//31 94//35 98//39
f 99//38 100//31 98//39
f 87//12 79//36 90//40
f 64//11 41//15 42//41
f 63//16 64//11 42//41
f 40//17 63//16 42//41
f 42//41 41//15 31//42
f 27//27 21//26 23//43
f 21//26 26//30 22//44
f 23//43 21//26 22//44
f 40//17 42//41 30//45
f 49//18 40//17 43//46
f 40//17 30//45 43//46
f 22//44 26//30 24//47
f 30//45 22//44 24//47
f 43//46 30//45 24//47
f 32//29 38//22 28//48
f 26//30 32//29 28//48
f 24//47 26//30 28//48
f 38//22 61//21 53//49
f 28//48 38//22 53//49
f 73//19 49//18 55//50
f 49//18 43//46 55//50
f 53//49 61//21 55//50
f 41//15 50//14 44//51
f 31//42 41//15 44//51
f 50//14 74//13 56//52
f 44//51 50//14 56//52
f 56//52 62//6 54//53
f 33//28 27//27 29//54
f 27//27 23//43 25//55
f 23//43 31//42 25//55
f 31//42 44//51 25//55
f 29//54 27//27 25//55
f 74//13 87//12 77//56
f 87//12 90//40 77//56
f 98//39 94//35 96//57
f 90//40 98//39 96//57
f 77//56 90//40 96//57
f 88//34 85//7 92//58
f 94//35 88//34 92//58
f 96//57 94//35 92//58
f 85//7 62//6 67//59
f 92//58 85//7 67//59
f 56//52 74//13 65//60
f 62//6 56//52 65//60
f 74//13 77//56 65//60
f 67//59 62//6 65//60
f 86//20 73//19 78//61
f 91//37 86//20 78//61
f 73//19 55//50 66//62
f 55//50 61//21 66//62
f 78//61 73//19 66//62
f 61//21 84//25 68//63
f 66//62 61//21 68//63
f 84//25 89//33 93//64
f 89//33 95//32 93//64
f 68//63 84//25 93//64
f 95//32 99//38 97//65
f 99//38 91//37 97//65
f 91//37 78//61 97//65
f 93//64 95//32 97//65
f 76//8 51//23 52//9
f 51//23 32//29 52//9
f 32//29 33//28 52//9
f 54//53 62//6 39//10
f 33//28 29//54 39//10
f 29//54 54//53 39//10
f 52//9 33//28 39//10
f 37//67 60//66 83//70
f 46//68 37//67 83//70
f 70//69 46//68 83//70
f 82//72 59//71 36//75
f 69//73 82//72 36//75
f 45//74 69//73 36//75
f 80//77 57//76 34//80
f 71//78 80//77 34//80
f 47//79 71//78 34//80
f 4//82 1//81 5//85
f 8//83 4//82 5//85
f 9//84 8//83 5//85
f 116//87 120//86 117//90
f 112//88 116//87 117//90
f 113//89 112//88 117//90
f 114//92 111//91 115//95
f 118//93 114//92 115//95
f 119//94 118//93 115//95
f 6//97 10//96 7//100
f 2//98 6//97 7//100
f 3//99 2//98 7//100
f 19//102 15//101 12//105
f 17//103 19//102 12//105
f 14//104 17//103 12//105
f 11//107 16//106 20//110
f 13//108 11//107 20//110
f 18//109 13//108 20//110
f 101//112 106//111 110//115
f 103//113 101//112 110//115
f 108//114 103//113 110//115
f 109//117 105//116 102//120
f 107//118 109//117 102//120
f 104//119 107//118 102//120
f 58//1 35//2 62//6
f 58//1 62//6 85//7
f 35//2 48//3 52//9
f 48//3 76//8 52//9
f 62//6 35//2 39//10
f 35//2 52//9 39//10
f 76//8 48//3 72//4
f 85//7 76//8 72//4
f 58//1 85//7 81//5
f 85//7 72//4 81//5
f 60//66 37//67 64//11
f 60//66 64//11 87//12
f 37//67 46//68 50//14
f 46//68 74//13 50//14
f 64//11 37//67 41//15
f 37//67 50//14 41//15
f 74//13 46//68 70//69
f 87//12 74//13 70//69
f 60//66 87//12 83//70
f 87//12 70//69 83//70
f 59//71 82//72 63//16
f 59//71 63//16 40//17
f 82//72 69//73 73//19
f 69//73 49//18 73//19
f 63//16 82//72 86//20
f 82//72 73//19 86//20
f 49//18 69//73 45//74
f 40//17 49//18 45//74
f 59//71 40//17 36//75
f 40//17 45//74 36//75
f 57//76 80//77 61//21
f 57//76 61//21 38//22
f 80//77 71//78 75//24
f 71//78 51//23 75//24
f 61//21 80//77 84//25
f 80//77 75//24 84//25
f 51//23 71//78 47//79
f 38//22 51//23 47//79
f 57//76 38//22 34//80
f 38//22 47//79 34//80
f 1//81 4//82 21//26
f 1//81 21//26 27//27
f 4//82 8//83 32//29
f 8//83 33//28 32//29
f 21//26 4//82 26//30
f 4//82 32//29 26//30
f 33//28 8//83 9//84
f 27//27 33//28 9//84
f 1//81 27//27 5//85
f 27//27 9//84 5//85
f 120//86 116//87 100//31
f 120//86 100//31 95//32
f 116//87 112//88 88//34
f 112//88 89//33 88//34
f 100//31 116//87 94//35
f 116//87 88//34 94//35
f 89//33 112//88 113//89
f 95//32 89//33 113//89
f 120//86 95//32 117//90
f 95//32 113//89 117//90
f 111//91 114//92 79//36
f 111//91 79//36 91//37
f 114//92 118//93 98//39
f 118//93 99//38 98//39
f 79//36 114//92 90//40
f 114//92 98//39 90//40
f 99//38 118//93 119//94
f 91//37 99//38 119//94
f 111//91 91//37 115//95
f 91//37 119//94 115//95
f 10//96 6//97 42//41
f 10//96 42//41 31//42
f 6//97 2//98 22//44
f 2//98 23//43 22//44
f 42//41 6//97 30//45
f 6//97 22//44 30//45
f 23//43 2//98 3//99
f 31//42 23//43 3//99
f 10//96 31//42 7//100
f 31//42 3//99 7//100
f 15//101 19//102 43//46
f 15//101 43//46 24//47
f 19//102 17//103 53//49
f 17//103 28//48 53//49
f 43//46 19//102 55//50
f 19//102 53//49 55//50
f 28//48 17//103 14//104
f 24//47 28//48 14//104
f 15//101 24//47 12//105
f 24//47 14//104 12//105
f 16//106 11//107 44//51
f 16//106 44//51 56//52
f 11//107 13//108 29//54
f 13//108 54//53 29//54
f 44//51 11//107 25//55
f 11//107 29//54 25//55
f 54//53 13//108 18//109
f 56//52 54//53 18//109
f 16//106 56//52 20//110
f 56//52 18//109 20//110
f 106//111 101//112 77//56
f 106//111 77//56 96//57
f 101//112 103//113 67//59
f 103//113 92//58 67//59
f 77//56 101//112 65//60
f 101//112 67//59 65//60
f 92//58 103//113 108//114
f 96//57 92//58 108//114
f 106//111 96//57 110//115
f 96//57 108//114 110//115
f 105//116 109//117 78//61
f 105//116 78//61 66//62
f 109//117 107//118 93//64
f 107//118 68//63 93//64
f 78//61 109//117 97//65
f 109//117 93//64 97//65
f 68//63 107//118 104//119
f 66//62 68//63 104//119
f 105//116 66//62 102//120
f 66//62 104//119 102//120
