# Rhino

v 0.61315 0.42921 0.65955
v 0.6219 0.35928 0.64539
v 0.65342 -0.063634 0.59441
v 0.65516 0.54243 0.59157
v 0.66217 0.082884 0.58024
v 0.66742 0.44586 0.57174
v 0.66918 -0.1702 0.56891
v 0.67617 0.3393 0.55758
v 0.7182 -0.29008 0.4896
v 0.72169 0.41256 0.48393
v 0.72169 0.25272 0.48393
v 0.7497 0.15615 0.43861
v 0.76108 0.30933 0.42019
v 0.77072 -0.21016 0.40462
v 0.77946 0.38592 0.39045
v 0.77947 0.036267 0.39045
v 0.77947 -0.12691 0.39045
v 0.78472 -0.05198 0.38195
v 0.78472 -0.12691 0.38195
v 0.78472 -0.26011 0.38195
v 0.79523 -0.18685 0.36496
v 0.80048 0.042926 0.35646
v 0.80223 -0.32338 0.35363
v 0.80748 -0.21349 0.34513
v 0.81974 -0.10027 0.3253
v 0.82323 0.37926 0.31963
v 0.83549 -0.29008 0.29981
v 0.84774 0.27603 0.27998
v 0.8495 0.13284 0.27714
v 0.8495 -0.14689 0.27714
v 0.86876 -0.42328 0.24599
v 0.87751 0.27936 0.23182
v 0.87751 -0.11359 0.23182
vn 0.85057 0 0.52587
vn 0.85057 0 0.52587
vn 0.85079 0 0.52551
vn 0.85079 0 0.52551
vn 0.85035 0 0.52622
vn 0.85079 0 0.52551
vn 0.85035 0 0.52622
vn 0.85079 0 0.52551
vn 0.85079 0 0.52551
vn 0.85079 0 0.52551
vn 0.85035 0 0.52622
vn 0.85035 0 0.52622
vn 0.85035 0 0.52622
vn 0.85105 0 0.52508
vn 0.85057 0 0.52587
vn 0.85057 0 0.52587
vn 0.85057 0 0.52587
vn 0.8503 0 0.5263
vn 0.85079 0.0002442 0.52551
vn 0.85057 0 0.52587
vn 0.85084 0.00024393 0.52543
vn 0.85057 0 0.52587
vn 0.85057 0 0.52587
vn 0.85057 0 0.52587
vn 0.85057 0 0.52587
vn 0.85057 0 0.52587
vn 0.85057 0 0.52587
vn 0.85057 0 0.52587
vn 0.85079 0 0.52551
vn 0.85057 0 0.52587
vn 0.85057 0 0.52587
vn 0.85057 0 0.52587
vn 0.85035 0.00024407 0.52622
f 17//25 9//3 14//27
f 14//27 20//29 21//28
f 9//3 20//29 14//27
f 17//25 7//4 9//3
f 23//2 20//29 9//3
f 18//24 16//23 17//25
f 17//25 12//33 7//4
f 5//6 3//5 7//4
f 14//27 19//26 17//25
f 27//22 24//30 23//2
f 24//30 20//29 23//2
f 23//2 31//1 27//22
f 27//22 30//20 24//30
f 24//30 30//20 25//31
f 27//22 33//21 30//20
f 25//31 30//20 29//19
f 13//8 10//14 8//9
f 8//9 6//13 2//10
f 12//33 11//7 5//6
f 6//13 4//12 1//11
f 6//13 8//9 10//14
f 1//11 2//10 6//13
f 12//33 17//25 16//23
f 25//31 29//19 22//32
f 22//32 29//19 28//17
f 13//8 12//33 22//32
f 26//16 15//15 13//8
f 10//14 13//8 15//15
f 13//8 28//17 26//16
f 29//19 32//18 28//17
f 22//32 28//17 13//8
f 13//8 11//7 12//33
f 5//6 7//4 12//33
