# Rhino

v -0.23607 0.23607 0.23607
v -0.23607 -0.23607 -0.23607
v -0.23607 -0.14164 -0.14164
v -0.23607 -0.047214 -0.047214
v -0.23607 0.047214 0.047214
v -0.23607 0.14164 0.14164
v -0.14164 -0.14164 -0.23607
v -0.14164 0.14164 0.23607
v -0.14164 -0.23607 -0.14164
v -0.14164 0.23607 0.14164
v -0.14164 -0.047214 0.047214
v -0.14164 -0.047214 -0.14164
v -0.14164 0.047214 0.14164
v -0.14164 0.047214 -0.047214
v -0.14164 -0.14164 -0.047214
v -0.14164 0.14164 0.047214
v -0.047214 -0.23607 -0.047214
v -0.047214 0.23607 0.047214
v -0.047214 -0.14164 -0.14164
v -0.047214 0.14164 0.14164
v -0.047214 -0.047214 -0.23607
v -0.047214 0.047214 0.23607
v -0.047214 -0.047214 0.14164
v -0.047214 0.047214 -0.14164
v -0.047214 -0.14164 0.047214
v -0.047214 0.14164 -0.047214
v 0.047214 -0.23607 0.047214
v 0.047214 0.23607 -0.047214
v 0.047214 -0.14164 -0.047214
v 0.047214 0.14164 0.047214
v 0.047214 -0.047214 0.23607
v 0.047214 0.047214 -0.23607
v 0.047214 -0.047214 -0.14164
v 0.047214 0.047214 0.14164
v 0.047214 -0.14164 0.14164
v 0.047214 0.14164 -0.14164
v 0.14164 -0.23607 0.14164
v 0.14164 -0.14164 0.047214
v 0.14164 0.14164 -0.047214
v 0.14164 0.23607 -0.14164
v 0.14164 -0.047214 -0.047214
v 0.14164 -0.047214 0.14164
v 0.14164 0.047214 -0.14164
v 0.14164 0.047214 0.047214
v 0.14164 -0.14164 0.23607
v 0.14164 0.14164 -0.23607
v 0.23607 -0.23607 0.23607
v 0.23607 0.23607 -0.23607
v 0.23607 -0.14164 0.14164
v 0.23607 -0.047214 0.047214
v 0.23607 0.047214 -0.047214
v 0.23607 0.14164 -0.14164
vn 0.57735 -0.57735 -0.57735
vn 0.57735 -0.57735 -0.57735
vn 0.57735 -0.57735 -0.57735
vn 0.57735 -0.57735 -0.57735
vn 0.57735 -0.57735 -0.57735
vn 0.57735 -0.57735 -0.57735
vn 0.57735 -0.57735 -0.57735
vn 0.57735 -0.57735 -0.57735
vn 0.57735 -0.57735 -0.57735
vn 0.57735 -0.57735 -0.57735
vn 0.57735 -0.57735 -0.57735
vn 0.57735 -0.57735 -0.57735
vn 0.57735 -0.57735 -0.57735
vn 0.57735 -0.57735 -0.57735
vn 0.57735 -0.57735 -0.57735
vn 0.57735 -0.57735 -0.57735
vn 0.57735 -0.57735 -0.57735
vn 0.57735 -0.57735 -0.57735
vn 0.57735 -0.57735 -0.57735
vn 0.57735 -0.57735 -0.57735
vn 0.57735 -0.57735 -0.57735
vn 0.57735 -0.57735 -0.57735
vn 0.57735 -0.57735 -0.57735
vn 0.57735 -0.57735 -0.57735
vn 0.57735 -0.57735 -0.57735
vn 0.57735 -0.57735 -0.57735
vn 0.57735 -0.57735 -0.57735
vn 0.57735 -0.57735 -0.57735
vn 0.57735 -0.57735 -0.57735
vn 0.57735 -0.57735 -0.57735
vn 0.57735 -0.57735 -0.57735
vn 0.57735 -0.57735 -0.57735
vn 0.57735 -0.57735 -0.57735
vn 0.57735 -0.57735 -0.57735
vn 0.57735 -0.57735 -0.57735
vn 0.57735 -0.57735 -0.57735
vn 0.57735 -0.57735 -0.57735
vn 0.57735 -0.57735 -0.57735
vn 0.57735 -0.57735 -0.57735
vn 0.57735 -0.57735 -0.57735
vn 0.57735 -0.57735 -0.57735
vn 0.57735 -0.57735 -0.57735
vn 0.57735 -0.57735 -0.57735
vn 0.57735 -0.57735 -0.57735
vn 0.57735 -0.57735 -0.57735
vn 0.57735 -0.57735 -0.57735
vn 0.57735 -0.57735 -0.57735
vn 0.57735 -0.57735 -0.57735
vn 0.57735 -0.57735 -0.57735
vn 0.57735 -0.57735 -0.57735
vn 0.57735 -0.57735 -0.57735
vn 0.57735 -0.57735 -0.57735
vn 0.57735 -0.57735 -0.57735
vn 0.57735 -0.57735 -0.57735
vn 0.57735 -0.57735 -0.57735
vn 0.57735 -0.57735 -0.57735
vn 0.57735 -0.57735 -0.57735
vn 0.57735 -0.57735 -0.57735
vn 0.57735 -0.57735 -0.57735
vn 0.57735 -0.57735 -0.57735
vn 0.57735 -0.57735 -0.57735
vn 0.57735 -0.57735 -0.57735
vn 0.57735 -0.57735 -0.57735
vn 0.57735 -0.57735 -0.57735
vn 0.57735 -0.57735 -0.57735
vn 0.57735 -0.57735 -0.57735
vn 0.57735 -0.57735 -0.57735
vn 0.57735 -0.57735 -0.57735
vn 0.57735 -0.57735 -0.57735
vn 0.57735 -0.57735 -0.57735
vn 0.57735 -0.57735 -0.57735
vn 0.57735 -0.57735 -0.57735
vn 0.57735 -0.57735 -0.57735
vn 0.57735 -0.57735 -0.57735
vn 0.57735 -0.57735 -0.57735
vn -0.57735 0.57735 -0.57735
vn -0.57735 0.57735 -0.57735
vn -0.57735 0.57735 -0.57735
vn -0.57735 0.57735 -0.57735
vn -0.57735 0.57735 -0.57735
vn -0.57735 0.57735 -0.57735
vn -0.57735 0.57735 -0.57735
vn -0.57735 0.57735 -0.57735
vn -0.57735 0.57735 -0.57735
vn -0.57735 0.57735 -0.57735
vn -0.57735 0.57735 -0.57735
vn -0.57735 0.57735 -0.57735
vn -0.57735 0.57735 -0.57735
vn -0.57735 0.57735 -0.57735
vn -0.57735 0.57735 -0.57735
vn -0.57735 0.57735 -0.57735
vn -0.57735 0.57735 -0.57735
vn -0.57735 0.57735 -0.57735
vn -0.57735 0.57735 -0.57735
vn -0.57735 0.57735 -0.57735
vn -0.57735 0.57735 -0.57735
vn -0.57735 0.57735 -0.57735
vn -0.57735 0.57735 -0.57735
vn -0.57735 0.57735 -0.57735
vn -0.57735 0.57735 -0.57735
vn -0.57735 0.57735 -0.57735
vn -0.57735 0.57735 -0.57735
vn -0.57735 0.57735 -0.57735
vn -0.57735 0.57735 -0.57735
vn -0.57735 0.57735 -0.57735
vn -0.57735 0.57735 -0.57735
vn -0.57735 0.57735 -0.57735
vn -0.57735 0.57735 -0.57735
vn -0.57735 0.57735 -0.57735
vn -0.57735 0.57735 -0.57735
vn -0.57735 0.57735 -0.57735
vn -0.57735 0.57735 -0.57735
vn -0.57735 0.57735 -0.57735
vn -0.57735 0.57735 -0.57735
vn -0.57735 0.57735 -0.57735
vn -0.57735 0.57735 -0.57735
vn -0.57735 0.57735 -0.57735
vn -0.57735 0.57735 -0.57735
vn -0.57735 0.57735 -0.57735
vn -0.57735 0.57735 -0.57735
vn -0.57735 0.57735 -0.57735
vn -0.57735 0.57735 -0.57735
vn -0.57735 0.57735 -0.57735
vn -0.57735 0.57735 -0.57735
vn -0.57735 0.57735 -0.57735
vn -0.57735 0.57735 -0.57735
vn -0.57735 0.57735 -0.57735
vn -0.57735 0.57735 -0.57735
vn -0.57735 0.57735 -0.57735
vn -0.57735 0.57735 -0.57735
vn -0.57735 0.57735 -0.57735
vn -0.57735 0.57735 -0.57735
vn -0.57735 0.57735 -0.57735
vn -0.57735 0.57735 -0.57735
vn -0.57735 0.57735 -0.57735
vn -0.57735 0.57735 -0.57735
vn -0.57735 0.57735 -0.57735
vn -0.57735 0.57735 -0.57735
vn -0.57735 0.57735 -0.57735
vn -0.57735 0.57735 -0.57735
vn -0.57735 0.57735 -0.57735
vn -0.57735 0.57735 -0.57735
vn -0.57735 0.57735 -0.57735
vn -0.57735 0.57735 -0.57735
vn -0.57735 0.57735 -0.57735
vn -0.57735 0.57735 -0.57735
vn -0.57735 0.57735 -0.57735
vn -0.57735 0.57735 -0.57735
vn -0.57735 0.57735 -0.57735
vn -0.57735 0.57735 -0.57735
vn -0.57735 -0.57735 0.57735
vn -0.57735 -0.57735 0.57735
vn -0.57735 -0.57735 0.57735
vn -0.57735 -0.57735 0.57735
vn -0.57735 -0.57735 0.57735
vn -0.57735 -0.57735 0.57735
vn -0.57735 -0.57735 0.57735
vn -0.57735 -0.57735 0.57735
vn -0.57735 -0.57735 0.57735
vn -0.57735 -0.57735 0.57735
vn -0.57735 -0.57735 0.57735
vn -0.57735 -0.57735 0.57735
vn -0.57735 -0.57735 0.57735
vn -0.57735 -0.57735 0.57735
vn -0.57735 -0.57735 0.57735
vn -0.57735 -0.57735 0.57735
vn -0.57735 -0.57735 0.57735
vn -0.57735 -0.57735 0.57735
vn -0.57735 -0.57735 0.57735
vn -0.57735 -0.57735 0.57735
vn -0.57735 -0.57735 0.57735
vn -0.57735 -0.57735 0.57735
vn -0.57735 -0.57735 0.57735
vn -0.57735 -0.57735 0.57735
vn -0.57735 -0.57735 0.57735
vn -0.57735 -0.57735 0.57735
vn -0.57735 -0.57735 0.57735
vn -0.57735 -0.57735 0.57735
vn -0.57735 -0.57735 0.57735
vn -0.57735 -0.57735 0.57735
vn -0.57735 -0.57735 0.57735
vn -0.57735 -0.57735 0.57735
vn -0.57735 -0.57735 0.57735
vn -0.57735 -0.57735 0.57735
vn -0.57735 -0.57735 0.57735
vn -0.57735 -0.57735 0.57735
vn -0.57735 -0.57735 0.57735
vn -0.57735 -0.57735 0.57735
vn -0.57735 -0.57735 0.57735
vn -0.57735 -0.57735 0.57735
vn -0.57735 -0.57735 0.57735
vn -0.57735 -0.57735 0.57735
vn -0.57735 -0.57735 0.57735
vn -0.57735 -0.57735 0.57735
vn -0.57735 -0.57735 0.57735
vn -0.57735 -0.57735 0.57735
vn -0.57735 -0.57735 0.57735
vn -0.57735 -0.57735 0.57735
vn -0.57735 -0.57735 0.57735
vn -0.57735 -0.57735 0.57735
vn -0.57735 -0.57735 0.57735
vn -0.57735 -0.57735 0.57735
vn -0.57735 -0.57735 0.57735
vn -0.57735 -0.57735 0.57735
vn -0.57735 -0.57735 0.57735
vn -0.57735 -0.57735 0.57735
vn -0.57735 -0.57735 0.57735
vn -0.57735 -0.57735 0.57735
vn -0.57735 -0.57735 0.57735
vn -0.57735 -0.57735 0.57735
vn -0.57735 -0.57735 0.57735
vn -0.57735 -0.57735 0.57735
vn -0.57735 -0.57735 0.57735
vn -0.57735 -0.57735 0.57735
vn -0.57735 -0.57735 0.57735
vn -0.57735 -0.57735 0.57735
vn -0.57735 -0.57735 0.57735
vn -0.57735 -0.57735 0.57735
vn -0.57735 -0.57735 0.57735
vn -0.57735 -0.57735 0.57735
vn -0.57735 -0.57735 0.57735
vn -0.57735 -0.57735 0.57735
vn -0.57735 -0.57735 0.57735
vn -0.57735 -0.57735 0.57735
vn -0.57735 -0.57735 0.57735
vn 0.57735 0.57735 0.57735
vn 0.57735 0.57735 0.57735
vn 0.57735 0.57735 0.57735
vn 0.57735 0.57735 0.57735
vn 0.57735 0.57735 0.57735
vn 0.57735 0.57735 0.57735
vn 0.57735 0.57735 0.57735
vn 0.57735 0.57735 0.57735
vn 0.57735 0.57735 0.57735
vn 0.57735 0.57735 0.57735
vn 0.57735 0.57735 0.57735
vn 0.57735 0.57735 0.57735
vn 0.57735 0.57735 0.57735
vn 0.57735 0.57735 0.57735
vn 0.57735 0.57735 0.57735
vn 0.57735 0.57735 0.57735
vn 0.57735 0.57735 0.57735
vn 0.57735 0.57735 0.57735
vn 0.57735 0.57735 0.57735
vn 0.57735 0.57735 0.57735
vn 0.57735 0.57735 0.57735
vn 0.57735 0.57735 0.57735
vn 0.57735 0.57735 0.57735
vn 0.57735 0.57735 0.57735
vn 0.57735 0.57735 0.57735
vn 0.57735 0.57735 0.57735
vn 0.57735 0.57735 0.57735
vn 0.57735 0.57735 0.57735
vn 0.57735 0.57735 0.57735
vn 0.57735 0.57735 0.57735
vn 0.57735 0.57735 0.57735
vn 0.57735 0.57735 0.57735
vn 0.57735 0.57735 0.57735
vn 0.57735 0.57735 0.57735
vn 0.57735 0.57735 0.57735
vn 0.57735 0.57735 0.57735
vn 0.57735 0.57735 0.57735
vn 0.57735 0.57735 0.57735
vn 0.57735 0.57735 0.57735
vn 0.57735 0.57735 0.57735
vn 0.57735 0.57735 0.57735
vn 0.57735 0.57735 0.57735
vn 0.57735 0.57735 0.57735
vn 0.57735 0.57735 0.57735
vn 0.57735 0.57735 0.57735
vn 0.57735 0.57735 0.57735
vn 0.57735 0.57735 0.57735
vn 0.57735 0.57735 0.57735
vn 0.57735 0.57735 0.57735
vn 0.57735 0.57735 0.57735
vn 0.57735 0.57735 0.57735
vn 0.57735 0.57735 0.57735
vn 0.57735 0.57735 0.57735
vn 0.57735 0.57735 0.57735
vn 0.57735 0.57735 0.57735
vn 0.57735 0.57735 0.57735
vn 0.57735 0.57735 0.57735
vn 0.57735 0.57735 0.57735
vn 0.57735 0.57735 0.57735
vn 0.57735 0.57735 0.57735
vn 0.57735 0.57735 0.57735
vn 0.57735 0.57735 0.57735
vn 0.57735 0.57735 0.57735
vn 0.57735 0.57735 0.57735
vn 0.57735 0.57735 0.57735
vn 0.57735 0.57735 0.57735
vn 0.57735 0.57735 0.57735
vn 0.57735 0.57735 0.57735
vn 0.57735 0.57735 0.57735
vn 0.57735 0.57735 0.57735
vn 0.57735 0.57735 0.57735
vn 0.57735 0.57735 0.57735
vn 0.57735 0.57735 0.57735
vn 0.57735 0.57735 0.57735
vn 0.57735 0.57735 0.57735
f 51//1 50//3 41//2
f 50//4 49//6 38//5
f 49//7 47//9 37//8
f 49//10 37//12 38//11
f 38//13 37//15 27//14
f 50//16 38//18 41//17
f 41//19 38//21 29//20
f 38//22 27//24 29//23
f 29//25 27//27 17//26
f 29//28 17//30 19//29
f 19//31 17//33 9//32
f 41//34 29//36 33//35
f 33//37 29//39 19//38
f 51//40 41//42 43//41
f 43//43 41//45 33//44
f 52//46 51//48 43//47
f 48//49 52//51 46//50
f 52//52 43//54 46//53
f 46//55 43//57 32//56
f 43//58 33//60 32//59
f 32//61 33//63 21//62
f 33//64 19//66 21//65
f 21//67 19//69 7//68
f 7//70 9//72 2//71
f 19//73 9//75 7//74
f 4//76 5//78 14//77
f 5//79 6//81 16//80
f 6//82 1//84 10//83
f 6//85 10//87 16//86
f 16//88 10//90 18//89
f 5//91 16//93 14//92
f 14//94 16//96 26//95
f 16//97 18//99 26//98
f 26//100 18//102 28//101
f 26//103 28//105 36//104
f 36//106 28//108 40//107
f 14//109 26//111 24//110
f 24//112 26//114 36//113
f 4//115 14//117 12//116
f 12//118 14//120 24//119
f 3//121 4//123 12//122
f 2//124 3//126 7//125
f 3//127 12//129 7//128
f 7//130 12//132 21//131
f 12//133 24//135 21//134
f 21//136 24//138 32//137
f 24//139 36//141 32//140
f 32//142 36//144 46//143
f 46//145 40//147 48//146
f 36//148 40//150 46//149
f 5//151 4//153 11//152
f 4//154 3//156 15//155
f 3//157 2//159 9//158
f 3//160 9//162 15//161
f 15//163 9//165 17//164
f 4//166 15//168 11//167
f 11//169 15//171 25//170
f 15//172 17//174 25//173
f 25//175 17//177 27//176
f 25//178 27//180 35//179
f 35//181 27//183 37//182
f 11//184 25//186 23//185
f 23//187 25//189 35//188
f 5//190 11//192 13//191
f 13//193 11//195 23//194
f 6//196 5//198 13//197
f 1//199 6//201 8//200
f 6//202 13//204 8//203
f 8//205 13//207 22//206
f 13//208 23//210 22//209
f 22//211 23//213 31//212
f 23//214 35//216 31//215
f 31//217 35//219 45//218
f 45//220 37//222 47//221
f 35//223 37//225 45//224
f 50//226 51//228 44//227
f 51//229 52//231 39//230
f 52//232 48//234 40//233
f 52//235 40//237 39//236
f 39//238 40//240 28//239
f 51//241 39//243 44//242
f 44//244 39//246 30//245
f 39//247 28//249 30//248
f 30//250 28//252 18//251
f 30//253 18//255 20//254
f 20//256 18//258 10//257
f 44//259 30//261 34//260
f 34//262 30//264 20//263
f 50//265 44//267 42//266
f 42//268 44//270 34//269
f 49//271 50//273 42//272
f 47//274 49//276 45//275
f 49//277 42//279 45//278
f 45//280 42//282 31//281
f 42//283 34//285 31//284
f 31//286 34//288 22//287
f 34//289 20//291 22//290
f 22//292 20//294 8//293
f 8//295 10//297 1//296
f 20//298 10//300 8//299
