# Rhino

v -0.23607 -0.23607 -0.23607
v -0.23607 0.23607 0.23607
v 0.23607 -0.23607 0.23607
v 0.23607 0.23607 -0.23607
vn 0.57735 -0.57735 0.57735
vn 0.57735 -0.57735 0.57735
vn 0.57735 -0.57735 0.57735
vn 0.57735 0.57735 -0.57735
vn 0.57735 0.57735 -0.57735
vn 0.57735 0.57735 -0.57735
vn -0.57735 -0.57735 -0.57735
vn -0.57735 -0.57735 -0.57735
vn -0.57735 -0.57735 -0.57735
vn -0.57735 0.57735 0.57735
vn -0.57735 0.57735 0.57735
vn -0.57735 0.57735 0.57735
f 4//1 2//2 1//3
f 2//4 3//5 1//6
f 3//7 2//8 4//9
f 1//10 3//12 4//11
