# Rhino

v -0.23607 0.23607 0.23607
v -0.23607 -0.23607 -0.23607
v -0.23607 -0.14164 -0.14164
v -0.23607 -0.047214 -0.047214
v -0.23607 0.047214 0.047214
v -0.23607 0.14164 0.14164
v -0.14164 -0.14164 -0.23607
v -0.14164 0.14164 0.23607
v -0.14164 -0.23607 -0.14164
v -0.14164 0.23607 0.14164
v -0.14164 -0.047214 0.047214
v -0.14164 -0.047214 -0.14164
v -0.14164 0.047214 0.14164
v -0.14164 0.047214 -0.047214
v -0.14164 -0.14164 -0.047214
v -0.14164 0.14164 0.047214
v -0.047214 -0.23607 -0.047214
v -0.047214 0.23607 0.047214
v -0.047214 -0.14164 -0.14164
v -0.047214 0.14164 0.14164
v -0.047214 -0.047214 -0.23607
v -0.047214 0.047214 0.23607
v -0.047214 -0.047214 0.14164
v -0.047214 0.047214 -0.14164
v -0.047214 -0.14164 0.047214
v -0.047214 0.14164 -0.047214
v 0.047214 -0.23607 0.047214
v 0.047214 0.23607 -0.047214
v 0.047214 -0.14164 -0.047214
v 0.047214 0.14164 0.047214
v 0.047214 -0.047214 0.23607
v 0.047214 0.047214 -0.23607
v 0.047214 -0.047214 -0.14164
v 0.047214 0.047214 0.14164
v 0.047214 -0.14164 0.14164
v 0.047214 0.14164 -0.14164
v 0.14164 -0.23607 0.14164
v 0.14164 -0.14164 0.047214
v 0.14164 0.14164 -0.047214
v 0.14164 0.23607 -0.14164
v 0.14164 -0.047214 -0.047214
v 0.14164 -0.047214 0.14164
v 0.14164 0.047214 -0.14164
v 0.14164 0.047214 0.047214
v 0.14164 -0.14164 0.23607
v 0.14164 0.14164 -0.23607
v 0.23607 -0.23607 0.23607
v 0.23607 0.23607 -0.23607
v 0.23607 -0.14164 0.14164
v 0.23607 -0.047214 0.047214
v 0.23607 0.047214 -0.047214
v 0.23607 0.14164 -0.14164
vn -0.57735 0.57735 0.57735
vn -0.57735 0.57735 0.57735
vn -0.57735 0.57735 0.57735
vn -0.57735 0.57735 0.57735
vn -0.57735 0.57735 0.57735
vn -0.57735 0.57735 0.57735
vn -0.57735 0.57735 0.57735
vn -0.57735 0.57735 0.57735
vn -0.57735 0.57735 0.57735
vn -0.57735 0.57735 0.57735
vn -0.57735 0.57735 0.57735
vn -0.57735 0.57735 0.57735
vn -0.57735 0.57735 0.57735
vn -0.57735 0.57735 0.57735
vn -0.57735 0.57735 0.57735
vn -0.57735 0.57735 0.57735
vn -0.57735 0.57735 0.57735
vn -0.57735 0.57735 0.57735
vn -0.57735 0.57735 0.57735
vn -0.57735 0.57735 0.57735
vn -0.57735 0.57735 0.57735
vn -0.57735 0.57735 0.57735
vn -0.57735 0.57735 0.57735
vn -0.57735 0.57735 0.57735
vn -0.57735 0.57735 0.57735
vn -0.57735 0.57735 0.57735
vn -0.57735 0.57735 0.57735
vn -0.57735 0.57735 0.57735
vn -0.57735 0.57735 0.57735
vn -0.57735 0.57735 0.57735
vn -0.57735 0.57735 0.57735
vn -0.57735 0.57735 0.57735
vn -0.57735 0.57735 0.57735
vn -0.57735 0.57735 0.57735
vn -0.57735 0.57735 0.57735
vn -0.57735 0.57735 0.57735
vn -0.57735 0.57735 0.57735
vn -0.57735 0.57735 0.57735
vn -0.57735 0.57735 0.57735
vn -0.57735 0.57735 0.57735
vn -0.57735 0.57735 0.57735
vn -0.57735 0.57735 0.57735
vn -0.57735 0.57735 0.57735
vn -0.57735 0.57735 0.57735
vn -0.57735 0.57735 0.57735
vn -0.57735 0.57735 0.57735
vn -0.57735 0.57735 0.57735
vn -0.57735 0.57735 0.57735
vn -0.57735 0.57735 0.57735
vn -0.57735 0.57735 0.57735
vn -0.57735 0.57735 0.57735
vn -0.57735 0.57735 0.57735
vn -0.57735 0.57735 0.57735
vn -0.57735 0.57735 0.57735
vn -0.57735 0.57735 0.57735
vn -0.57735 0.57735 0.57735
vn -0.57735 0.57735 0.57735
vn -0.57735 0.57735 0.57735
vn -0.57735 0.57735 0.57735
vn -0.57735 0.57735 0.57735
vn -0.57735 0.57735 0.57735
vn -0.57735 0.57735 0.57735
vn -0.57735 0.57735 0.57735
vn -0.57735 0.57735 0.57735
vn -0.57735 0.57735 0.57735
vn -0.57735 0.57735 0.57735
vn -0.57735 0.57735 0.57735
vn -0.57735 0.57735 0.57735
vn -0.57735 0.57735 0.57735
vn -0.57735 0.57735 0.57735
vn -0.57735 0.57735 0.57735
vn -0.57735 0.57735 0.57735
vn -0.57735 0.57735 0.57735
vn -0.57735 0.57735 0.57735
vn -0.57735 0.57735 0.57735
vn 0.57735 -0.57735 0.57735
vn 0.57735 -0.57735 0.57735
vn 0.57735 -0.57735 0.57735
vn 0.57735 -0.57735 0.57735
vn 0.57735 -0.57735 0.57735
vn 0.57735 -0.57735 0.57735
vn 0.57735 -0.57735 0.57735
vn 0.57735 -0.57735 0.57735
vn 0.57735 -0.57735 0.57735
vn 0.57735 -0.57735 0.57735
vn 0.57735 -0.57735 0.57735
vn 0.57735 -0.57735 0.57735
vn 0.57735 -0.57735 0.57735
vn 0.57735 -0.57735 0.57735
vn 0.57735 -0.57735 0.57735
vn 0.57735 -0.57735 0.57735
vn 0.57735 -0.57735 0.57735
vn 0.57735 -0.57735 0.57735
vn 0.57735 -0.57735 0.57735
vn 0.57735 -0.57735 0.57735
vn 0.57735 -0.57735 0.57735
vn 0.57735 -0.57735 0.57735
vn 0.57735 -0.57735 0.57735
vn 0.57735 -0.57735 0.57735
vn 0.57735 -0.57735 0.57735
vn 0.57735 -0.57735 0.57735
vn 0.57735 -0.57735 0.57735
vn 0.57735 -0.57735 0.57735
vn 0.57735 -0.57735 0.57735
vn 0.57735 -0.57735 0.57735
vn 0.57735 -0.57735 0.57735
vn 0.57735 -0.57735 0.57735
vn 0.57735 -0.57735 0.57735
vn 0.57735 -0.57735 0.57735
vn 0.57735 -0.57735 0.57735
vn 0.57735 -0.57735 0.57735
vn 0.57735 -0.57735 0.57735
vn 0.57735 -0.57735 0.57735
vn 0.57735 -0.57735 0.57735
vn 0.57735 -0.57735 0.57735
vn 0.57735 -0.57735 0.57735
vn 0.57735 -0.57735 0.57735
vn 0.57735 -0.57735 0.57735
vn 0.57735 -0.57735 0.57735
vn 0.57735 -0.57735 0.57735
vn 0.57735 -0.57735 0.57735
vn 0.57735 -0.57735 0.57735
vn 0.57735 -0.57735 0.57735
vn 0.57735 -0.57735 0.57735
vn 0.57735 -0.57735 0.57735
vn 0.57735 -0.57735 0.57735
vn 0.57735 -0.57735 0.57735
vn 0.57735 -0.57735 0.57735
vn 0.57735 -0.57735 0.57735
vn 0.57735 -0.57735 0.57735
vn 0.57735 -0.57735 0.57735
vn 0.57735 -0.57735 0.57735
vn 0.57735 -0.57735 0.57735
vn 0.57735 -0.57735 0.57735
vn 0.57735 -0.57735 0.57735
vn 0.57735 -0.57735 0.57735
vn 0.57735 -0.57735 0.57735
vn 0.57735 -0.57735 0.57735
vn 0.57735 -0.57735 0.57735
vn 0.57735 -0.57735 0.57735
vn 0.57735 -0.57735 0.57735
vn 0.57735 -0.57735 0.57735
vn 0.57735 -0.57735 0.57735
vn 0.57735 -0.57735 0.57735
vn 0.57735 -0.57735 0.57735
vn 0.57735 -0.57735 0.57735
vn 0.57735 -0.57735 0.57735
vn 0.57735 -0.57735 0.57735
vn 0.57735 -0.57735 0.57735
vn 0.57735 -0.57735 0.57735
vn 0.57735 0.57735 -0.57735
vn 0.57735 0.57735 -0.57735
vn 0.57735 0.57735 -0.57735
vn 0.57735 0.57735 -0.57735
vn 0.57735 0.57735 -0.57735
vn 0.57735 0.57735 -0.57735
vn 0.57735 0.57735 -0.57735
vn 0.57735 0.57735 -0.57735
vn 0.57735 0.57735 -0.57735
vn 0.57735 0.57735 -0.57735
vn 0.57735 0.57735 -0.57735
vn 0.57735 0.57735 -0.57735
vn 0.57735 0.57735 -0.57735
vn 0.57735 0.57735 -0.57735
vn 0.57735 0.57735 -0.57735
vn 0.57735 0.57735 -0.57735
vn 0.57735 0.57735 -0.57735
vn 0.57735 0.57735 -0.57735
vn 0.57735 0.57735 -0.57735
vn 0.57735 0.57735 -0.57735
vn 0.57735 0.57735 -0.57735
vn 0.57735 0.57735 -0.57735
vn 0.57735 0.57735 -0.57735
vn 0.57735 0.57735 -0.57735
vn 0.57735 0.57735 -0.57735
vn 0.57735 0.57735 -0.57735
vn 0.57735 0.57735 -0.57735
vn 0.57735 0.57735 -0.57735
vn 0.57735 0.57735 -0.57735
vn 0.57735 0.57735 -0.57735
vn 0.57735 0.57735 -0.57735
vn 0.57735 0.57735 -0.57735
vn 0.57735 0.57735 -0.57735
vn 0.57735 0.57735 -0.57735
vn 0.57735 0.57735 -0.57735
vn 0.57735 0.57735 -0.57735
vn 0.57735 0.57735 -0.57735
vn 0.57735 0.57735 -0.57735
vn 0.57735 0.57735 -0.57735
vn 0.57735 0.57735 -0.57735
vn 0.57735 0.57735 -0.57735
vn 0.57735 0.57735 -0.57735
vn 0.57735 0.57735 -0.57735
vn 0.57735 0.57735 -0.57735
vn 0.57735 0.57735 -0.57735
vn 0.57735 0.57735 -0.57735
vn 0.57735 0.57735 -0.57735
vn 0.57735 0.57735 -0.57735
vn 0.57735 0.57735 -0.57735
vn 0.57735 0.57735 -0.57735
vn 0.57735 0.57735 -0.57735
vn 0.57735 0.57735 -0.57735
vn 0.57735 0.57735 -0.57735
vn 0.57735 0.57735 -0.57735
vn 0.57735 0.57735 -0.57735
vn 0.57735 0.57735 -0.57735
vn 0.57735 0.57735 -0.57735
vn 0.57735 0.57735 -0.57735
vn 0.57735 0.57735 -0.57735
vn 0.57735 0.57735 -0.57735
vn 0.57735 0.57735 -0.57735
vn 0.57735 0.57735 -0.57735
vn 0.57735 0.57735 -0.57735
vn 0.57735 0.57735 -0.57735
vn 0.57735 0.57735 -0.57735
vn 0.57735 0.57735 -0.57735
vn 0.57735 0.57735 -0.57735
vn 0.57735 0.57735 -0.57735
vn 0.57735 0.57735 -0.57735
vn 0.57735 0.57735 -0.57735
vn 0.57735 0.57735 -0.57735
vn 0.57735 0.57735 -0.57735
vn 0.57735 0.57735 -0.57735
vn 0.57735 0.57735 -0.57735
vn 0.57735 0.57735 -0.57735
vn -0.57735 -0.57735 -0.57735
vn -0.57735 -0.57735 -0.57735
vn -0.57735 -0.57735 -0.57735
vn -0.57735 -0.57735 -0.57735
vn -0.57735 -0.57735 -0.57735
vn -0.57735 -0.57735 -0.57735
vn -0.57735 -0.57735 -0.57735
vn -0.57735 -0.57735 -0.57735
vn -0.57735 -0.57735 -0.57735
vn -0.57735 -0.57735 -0.57735
vn -0.57735 -0.57735 -0.57735
vn -0.57735 -0.57735 -0.57735
vn -0.57735 -0.57735 -0.57735
vn -0.57735 -0.57735 -0.57735
vn -0.57735 -0.57735 -0.57735
vn -0.57735 -0.57735 -0.57735
vn -0.57735 -0.57735 -0.57735
vn -0.57735 -0.57735 -0.57735
vn -0.57735 -0.57735 -0.57735
vn -0.57735 -0.57735 -0.57735
vn -0.57735 -0.57735 -0.57735
vn -0.57735 -0.57735 -0.57735
vn -0.57735 -0.57735 -0.57735
vn -0.57735 -0.57735 -0.57735
vn -0.57735 -0.57735 -0.57735
vn -0.57735 -0.57735 -0.57735
vn -0.57735 -0.57735 -0.57735
vn -0.57735 -0.57735 -0.57735
vn -0.57735 -0.57735 -0.57735
vn -0.57735 -0.57735 -0.57735
vn -0.57735 -0.57735 -0.57735
vn -0.57735 -0.57735 -0.57735
vn -0.57735 -0.57735 -0.57735
vn -0.57735 -0.57735 -0.57735
vn -0.57735 -0.57735 -0.57735
vn -0.57735 -0.57735 -0.57735
vn -0.57735 -0.57735 -0.57735
vn -0.57735 -0.57735 -0.57735
vn -0.57735 -0.57735 -0.57735
vn -0.57735 -0.57735 -0.57735
vn -0.57735 -0.57735 -0.57735
vn -0.57735 -0.57735 -0.57735
vn -0.57735 -0.57735 -0.57735
vn -0.57735 -0.57735 -0.57735
vn -0.57735 -0.57735 -0.57735
vn -0.57735 -0.57735 -0.57735
vn -0.57735 -0.57735 -0.57735
vn -0.57735 -0.57735 -0.57735
vn -0.57735 -0.57735 -0.57735
vn -0.57735 -0.57735 -0.57735
vn -0.57735 -0.57735 -0.57735
vn -0.57735 -0.57735 -0.57735
vn -0.57735 -0.57735 -0.57735
vn -0.57735 -0.57735 -0.57735
vn -0.57735 -0.57735 -0.57735
vn -0.57735 -0.57735 -0.57735
vn -0.57735 -0.57735 -0.57735
vn -0.57735 -0.57735 -0.57735
vn -0.57735 -0.57735 -0.57735
vn -0.57735 -0.57735 -0.57735
vn -0.57735 -0.57735 -0.57735
vn -0.57735 -0.57735 -0.57735
vn -0.57735 -0.57735 -0.57735
vn -0.57735 -0.57735 -0.57735
vn -0.57735 -0.57735 -0.57735
vn -0.57735 -0.57735 -0.57735
vn -0.57735 -0.57735 -0.57735
vn -0.57735 -0.57735 -0.57735
vn -0.57735 -0.57735 -0.57735
vn -0.57735 -0.57735 -0.57735
vn -0.57735 -0.57735 -0.57735
vn -0.57735 -0.57735 -0.57735
vn -0.57735 -0.57735 -0.57735
vn -0.57735 -0.57735 -0.57735
vn -0.57735 -0.57735 -0.57735
f 51//1 41//2 50//3
f 50//4 38//5 49//6
f 49//7 37//8 47//9
f 49//10 38//11 37//12
f 38//13 27//14 37//15
f 50//16 41//17 38//18
f 41//19 29//20 38//21
f 38//22 29//23 27//24
f 29//25 17//26 27//27
f 29//28 19//29 17//30
f 19//31 9//32 17//33
f 41//34 33//35 29//36
f 33//37 19//38 29//39
f 51//40 43//41 41//42
f 43//43 33//44 41//45
f 52//46 43//47 51//48
f 48//49 46//50 52//51
f 52//52 46//53 43//54
f 46//55 32//56 43//57
f 43//58 32//59 33//60
f 32//61 21//62 33//63
f 33//64 21//65 19//66
f 21//67 7//68 19//69
f 7//70 2//71 9//72
f 19//73 7//74 9//75
f 4//76 14//77 5//78
f 5//79 16//80 6//81
f 6//82 10//83 1//84
f 6//85 16//86 10//87
f 16//88 18//89 10//90
f 5//91 14//92 16//93
f 14//94 26//95 16//96
f 16//97 26//98 18//99
f 26//100 28//101 18//102
f 26//103 36//104 28//105
f 36//106 40//107 28//108
f 14//109 24//110 26//111
f 24//112 36//113 26//114
f 4//115 12//116 14//117
f 12//118 24//119 14//120
f 3//121 12//122 4//123
f 2//124 7//125 3//126
f 3//127 7//128 12//129
f 7//130 21//131 12//132
f 12//133 21//134 24//135
f 21//136 32//137 24//138
f 24//139 32//140 36//141
f 32//142 46//143 36//144
f 46//145 48//146 40//147
f 36//148 46//149 40//150
f 5//151 11//152 4//153
f 4//154 15//155 3//156
f 3//157 9//158 2//159
f 3//160 15//161 9//162
f 15//163 17//164 9//165
f 4//166 11//167 15//168
f 11//169 25//170 15//171
f 15//172 25//173 17//174
f 25//175 27//176 17//177
f 25//178 35//179 27//180
f 35//181 37//182 27//183
f 11//184 23//185 25//186
f 23//187 35//188 25//189
f 5//190 13//191 11//192
f 13//193 23//194 11//195
f 6//196 13//197 5//198
f 1//199 8//200 6//201
f 6//202 8//203 13//204
f 8//205 22//206 13//207
f 13//208 22//209 23//210
f 22//211 31//212 23//213
f 23//214 31//215 35//216
f 31//217 45//218 35//219
f 45//220 47//221 37//222
f 35//223 45//224 37//225
f 50//226 44//227 51//228
f 51//229 39//230 52//231
f 52//232 40//233 48//234
f 52//235 39//236 40//237
f 39//238 28//239 40//240
f 51//241 44//242 39//243
f 44//244 30//245 39//246
f 39//247 30//248 28//249
f 30//250 18//251 28//252
f 30//253 20//254 18//255
f 20//256 10//257 18//258
f 44//259 34//260 30//261
f 34//262 20//263 30//264
f 50//265 42//266 44//267
f 42//268 34//269 44//270
f 49//271 42//272 50//273
f 47//274 45//275 49//276
f 49//277 45//278 42//279
f 45//280 31//281 42//282
f 42//283 31//284 34//285
f 31//286 22//287 34//288
f 34//289 22//290 20//291
f 22//292 8//293 20//294
f 8//295 1//296 10//297
f 20//298 8//299 10//300
