<?xml version="1.0" encoding="utf-8"?>
<!-- Generator: Adobe Illustrator 18.0.0, SVG Export Plug-In . SVG Version: 6.00 Build 0)  -->
<!DOCTYPE svg PUBLIC "-//W3C//DTD SVG 1.1//EN" "http://www.w3.org/Graphics/SVG/1.1/DTD/svg11.dtd">
<svg version="1.1" id="Layer_1" xmlns="http://www.w3.org/2000/svg" xmlns:xlink="http://www.w3.org/1999/xlink" x="0px" y="0px"
	 viewBox="0 0 53.5 42.6" enable-background="new 0 0 53.5 42.6" xml:space="preserve">
<path d="M53.5,5.4c-2,0.8-4.1,1.4-6.3,1.6c2.3-1.3,4-3.4,4.9-5.9c-2.1,1.2-4.5,2.1-6.9,2.5c-1.9-2.1-4.7-3.5-7.9-3.6
	c-6-0.1-10.9,4.7-11,10.6c0,0.8,0.1,1.7,0.2,2.5C17.5,12.5,9.6,8,4.4,1.4C3.4,3,2.8,4.8,2.8,6.8c-0.1,3.8,1.8,7.1,4.7,9.1
	c-1.8-0.1-3.4-0.6-4.9-1.4c0,0,0,0.1,0,0.1c-0.1,5.3,3.6,9.7,8.5,10.8c-0.9,0.2-1.9,0.3-2.9,0.3c-0.7,0-1.4-0.1-2-0.2
	c1.3,4.3,5.2,7.5,10,7.7c-3.8,2.8-8.5,4.5-13.6,4.4c-0.9,0-1.7-0.1-2.6-0.2c4.7,3.2,10.4,5.1,16.5,5.2C36.5,43,47.7,26.6,48,12.3
	c0-0.5,0-0.9,0-1.4C50.1,9.4,52,7.5,53.5,5.4z"/>
</svg>
