<?xml version="1.0" encoding="utf-8"?>
<!-- Generator: Adobe Illustrator 18.1.0, SVG Export Plug-In . SVG Version: 6.00 Build 0)  -->
<!DOCTYPE svg PUBLIC "-//W3C//DTD SVG 1.1//EN" "http://www.w3.org/Graphics/SVG/1.1/DTD/svg11.dtd">
<svg version="1.1" id="Layer_1" xmlns="http://www.w3.org/2000/svg" xmlns:xlink="http://www.w3.org/1999/xlink" x="0px" y="0px"
	 viewBox="3552.3 -538.6 3095.4 3095.4" enable-background="new 3552.3 -538.6 3095.4 3095.4" xml:space="preserve">
<path fill="#FFFFFF" d="M5639.8,646.9h-241.5V289.7c0-17-13.6-27.2-27.2-27.2h-537.5c-17,0-27.2,13.6-27.2,27.2v357.2h-241.5
	c-20.4,0-23.8,13.6-13.6,27.2L5082,1385c10.2,13.6,30.6,13.6,40.8,0l530.6-710.9C5663.6,660.5,5660.2,646.9,5639.8,646.9z"/>
<g>
	<polygon fill="#FFFFFF" points="6037.8,1806.8 4166.9,1806.8 4166.9,1024.4 4405,1024.4 4405,1568.7 5799.7,1568.7 5799.7,1024.4 
		6037.8,1024.4 	"/>
</g>
<rect x="3552.3" y="-538.6" fill="none" width="3095.4" height="3095.4"/>
</svg>
