<?xml version="1.0" encoding="utf-8"?>
<!-- Generator: Adobe Illustrator 18.0.0, SVG Export Plug-In . SVG Version: 6.00 Build 0)  -->
<!DOCTYPE svg PUBLIC "-//W3C//DTD SVG 1.1//EN" "http://www.w3.org/Graphics/SVG/1.1/DTD/svg11.dtd">
<svg version="1.1" id="Layer_1" xmlns="http://www.w3.org/2000/svg" xmlns:xlink="http://www.w3.org/1999/xlink" x="0px" y="0px"
	 viewBox="44 93 492 492" enable-background="new 44 93 492 492" xml:space="preserve">
<g>
	<rect x="85.3" y="310.2" fill="#FFFFFF" width="30.6" height="55.8"/>
	<rect x="462" y="310.2" fill="#FFFFFF" width="25.3" height="55.8"/>
	<path fill="#FFFFFF" d="M423.5,244.1H288.8H154.5c-22.2,0-38.5,16.9-38.5,38.9v112.5c0,22.2,16.3,42,38.5,42h101.8
		c3.1,0,5.7-2.6,7.5-5l16.3-27.5c4.4-5.3,12.8-5.7,17.8-0.4l16.3,27.9c1.8,2.6,4.4,5,7.5,5h101.8c22.2,0,38.9-20,38.9-42V283
		C462,261,445.5,244.1,423.5,244.1z M213.4,404.1c-36,0-64.8-28.8-64.8-64.8s28.8-64.8,64.8-64.8s64.8,28.8,64.8,64.8
		S248.8,404.1,213.4,404.1z M364.6,404.1c-36,0-64.8-28.8-64.8-64.8s28.8-64.8,64.8-64.8s64.8,28.8,64.8,64.8S400,404.1,364.6,404.1
		z"/>
</g>
<rect x="44" y="93" fill="none" width="492" height="492"/>
</svg>
