<?xml version="1.0" encoding="utf-8"?>
<!-- Generator: Adobe Illustrator 18.0.0, SVG Export Plug-In . SVG Version: 6.00 Build 0)  -->
<!DOCTYPE svg PUBLIC "-//W3C//DTD SVG 1.1//EN" "http://www.w3.org/Graphics/SVG/1.1/DTD/svg11.dtd">
<svg version="1.1" id="Layer_1" xmlns="http://www.w3.org/2000/svg" xmlns:xlink="http://www.w3.org/1999/xlink" x="0px" y="0px"
	 viewBox="5596.6 -116.5 599.8 599.8" enable-background="new 5596.6 -116.5 599.8 599.8" xml:space="preserve">
<rect x="5596.6" y="-116.5" fill="none" width="599.8" height="599.8"/>
<path id="goggles" fill="#FFFFFF" d="M6152.1,145.5h-37.4v-33.4c-1.1-27.4-21.3-48.2-48.7-48.2h-166.5h-166
	c-27.4,0-47.7,20.8-47.7,48.2v33.4h-37.7v69h37.7v36.7c0,27.4,20.3,52,47.7,52h126c3.8,0,7.1-3.3,9.3-6l20.3-34
	c5.5-6.6,15.9-7.1,21.9-0.5l20.3,34.5c2.2,3.3,5.5,6,9.3,6h126c27.4,0,48.2-24.6,48.2-52v-36.7h37.4V145.5L6152.1,145.5z
	 M5806.3,261.6c-44.4,0-80-35.6-80-80s35.6-80,80-80s80,35.6,80,80S5850.1,261.6,5806.3,261.6z M5993.1,261.6c-44.4,0-80-35.6-80-80
	s35.6-80,80-80s80,35.6,80,80S6036.9,261.6,5993.1,261.6z"/>
</svg>
