<?xml version="1.0" encoding="utf-8"?>
<!-- Generator: Adobe Illustrator 18.0.0, SVG Export Plug-In . SVG Version: 6.00 Build 0)  -->
<!DOCTYPE svg PUBLIC "-//W3C//DTD SVG 1.1//EN" "http://www.w3.org/Graphics/SVG/1.1/DTD/svg11.dtd">
<svg version="1.1" id="Layer_1" xmlns="http://www.w3.org/2000/svg" xmlns:xlink="http://www.w3.org/1999/xlink" x="0px" y="0px"
	 viewBox="0 245.4 299.9 54.6" enable-background="new 0 245.4 299.9 54.6" xml:space="preserve">
<g>
	<g>
		<path fill="#FFFFFF" d="M48.5,270.6v28.5H33.7v-28.9c0-4.2-0.6-7.2-1.9-9.2c-1.3-2-3.3-2.9-6.2-2.9s-5.3,1.1-7.5,3.2
			c-2.2,2.1-3.3,5.2-3.3,9.3v28.5H0v-52.8h14.8v6c4-4.6,8.7-6.8,14-6.8c3.3,0,6.3,1,9,2.9c2.7,2,4.7,4.3,6.1,7.1
			c2-3.2,4.7-5.7,8.2-7.4c3.4-1.8,6.8-2.7,10.3-2.7c6.2,0,11.2,1.8,15.1,5.5c3.8,3.7,5.7,9,5.7,16.1v32.2H68.4v-28.9
			c0-8.1-3-12.2-8.9-12.2c-2.9,0-5.5,1.1-7.6,3.2C49.6,263.4,48.5,266.5,48.5,270.6z"/>
		<path fill="#FFFFFF" d="M147.4,272.8c0,7.6-2.6,14.1-7.9,19.4c-5.3,5.2-12,7.8-20,7.8s-14.7-2.6-20-7.8
			c-5.3-5.2-7.9-11.7-7.9-19.4c0-7.6,2.6-14.2,7.9-19.4c5.3-5.2,12-7.9,20-7.9s14.7,2.6,20,7.9C144.8,258.6,147.4,265.1,147.4,272.8
			z M106.4,272.8c0,4.3,1.2,7.8,3.7,10.5c2.4,2.7,5.6,4.1,9.4,4.1s6.9-1.4,9.4-4.1c2.4-2.7,3.7-6.2,3.7-10.5c0-4.3-1.2-7.8-3.7-10.7
			c-2.4-2.7-5.6-4.1-9.4-4.1s-6.9,1.4-9.4,4.1C107.6,264.8,106.4,268.4,106.4,272.8z"/>
		<polygon fill="#FFFFFF" points="154.3,258.5 154.3,246.3 196.9,246.3 196.9,257.8 171.3,286.8 198.4,286.8 198.4,299.1 
			152.4,299.1 152.4,287 177.4,258.5 		"/>
		<polygon fill="#FFFFFF" points="224.9,299.2 204,246.2 219.3,246.2 232.5,279.6 245.6,246.2 261,246.2 240.1,299.2 		"/>
		<path fill="#FFFFFF" d="M297,259.3c-4.4,0-7.6,1.5-9.8,4.6c-2.2,3.1-3.2,7.2-3.2,12.4v22.9h-14.7v-52.8H284v6.9
			c1.9-2.2,4.3-4,7.1-5.5s5.7-2.3,8.7-2.3l0.1,13.9L297,259.3L297,259.3z"/>
	</g>
</g>
</svg>
