<?xml version="1.0" encoding="utf-8"?>
<!-- Generator: Adobe Illustrator 18.1.0, SVG Export Plug-In . SVG Version: 6.00 Build 0)  -->
<!DOCTYPE svg PUBLIC "-//W3C//DTD SVG 1.1//EN" "http://www.w3.org/Graphics/SVG/1.1/DTD/svg11.dtd">
<svg version="1.1" id="Layer_1" xmlns="http://www.w3.org/2000/svg" xmlns:xlink="http://www.w3.org/1999/xlink" x="0px" y="0px"
	 viewBox="0 0 377 98.1" enable-background="new 0 0 377 98.1" xml:space="preserve">
<g>
	<g>
		<path fill="#56575C" d="M15.5,28.1c1.1,1.8,1.6,3.3,2.3,6.7c4.5-4.4,10-6.7,16-6.7c5.4,0,9.9,1.8,13.3,5.4
			c0.9,0.9,1.8,2.1,2.6,3.2c6-6.1,11.4-8.6,18.6-8.6c5.1,0,10,1.5,12.9,4.1c3.7,3.2,4.9,7.1,4.9,16v46.6H69.5V51.5
			c0-7.8-0.9-9.4-5.4-9.4c-3.2,0-7.7,2.2-11.4,5.5v47.1H36.4V52.1c0-8.2-1.2-10.1-6-10.1c-3.2,0-7.6,1.6-11.2,5v47.8H2.5V49.1
			c0-9.5-0.6-13.6-2.5-16.8L15.5,28.1z"/>
	</g>
	<g>
		<path fill="#56575C" d="M147.4,37.8c5.2,6.1,7.6,13.3,7.6,23.9c0,11.3-2.6,19-8.2,25.4c-5,5.6-11.5,9.1-21.6,9.1
			c-17.8,0-29.5-13.3-29.5-33.9c0-20.6,11.8-34.3,29.5-34.3C134.5,27.9,141.8,31.1,147.4,37.8z M116.6,47.3
			c-1.2,3.5-1.8,8.1-1.8,14.6c0,7.5,0.8,13.2,2.2,16.5c1.5,3.6,5.4,5.4,8.7,5.4c7.4,0,10.6-6.7,10.6-22.1c0-8.8-1.2-14.6-3.4-17.6
			c-1.6-2.2-4.3-3.4-7.4-3.4C121.3,40.6,117.9,43.2,116.6,47.3z"/>
	</g>
	<g>
		<path fill="#56575C" d="M210.2,29.2V41l-29,41.9h30.1l-4.1,11.9H159V84.2l30.8-42.9h-28.3v-12H210.2z"/>
	</g>
	<g>
		<path fill="#56575C" d="M239.2,11.2c0,5.9-4.7,10.6-10.6,10.6c-5.7,0-10.5-4.7-10.5-10.6c0-5.9,4.9-10.6,10.8-10.6
			C234.6,0.5,239.2,5.3,239.2,11.2z M237.2,27.7v67.1H220V30.4L237.2,27.7z"/>
	</g>
	<g>
		<path fill="#56575C" d="M268.4,17.1v51.1c0,11.3,0.1,12.8,1.2,14.6c0.6,1.2,2,1.8,3.5,1.8c0.6,0,1,0,1.9-0.2l2.9,10.2
			c-2.9,1.1-6.5,1.8-10.2,1.8c-7.3,0-13.2-3.4-15.2-8.9c-1.3-3.3-1.6-5.4-1.6-14.7V23.7c0-8.6-0.2-13.8-0.9-19.7l17.5-4
			C268.2,3.6,268.4,7.8,268.4,17.1z"/>
	</g>
	<g>
		<path fill="#56575C" d="M304,17.1v51.1c0,11.3,0.1,12.8,1.2,14.6c0.6,1.2,2,1.8,3.4,1.8c0.6,0,1,0,1.9-0.2l2.9,10.2
			c-2.9,1.1-6.5,1.8-10.2,1.8c-7.3,0-13.2-3.4-15.3-8.9c-1.3-3.3-1.5-5.4-1.5-14.7V23.7c0-8.6-0.3-13.8-0.9-19.7l17.5-4
			C303.8,3.6,304,7.8,304,17.1z"/>
	</g>
	<g>
		<path fill="#56575C" d="M331,31.6c6.4-2.7,11.9-3.8,17.9-3.8c11,0,18.6,4.1,21.2,11.4c0.9,2.7,1.2,4.7,1.2,11.8l-0.4,22
			c0,0.4,0,0.8,0,1.2c0,7,1.2,9.7,6.2,13.4l-9.1,10.5c-4-1.7-7.6-4.6-9.2-8c-1.3,1.3-2.7,2.5-4,3.5c-3.2,2.3-7.8,3.6-13.2,3.6
			c-14.6,0-22.5-7.4-22.5-20.5c0-15.4,10.7-22.6,31.5-22.6c1.3,0,2.4,0,3.9,0.1v-2.7c0-7.3-1.4-9.7-7.7-9.7
			c-5.4,0-11.9,2.7-18.9,7.4L320.3,37C323.8,34.8,326.3,33.6,331,31.6z M353.2,66.1c-11.9,0-16,2.2-16,10c0,5.1,3.2,8.6,7.6,8.6
			c3.2,0,6.4-1.7,9-4.5l0.3-14.1H353.2z"/>
	</g>
</g>
<g>
</g>
<g>
</g>
<g>
</g>
<g>
</g>
<g>
</g>
<g>
</g>
</svg>
