<?xml version="1.0" encoding="utf-8"?>
<!-- Generator: Adobe Illustrator 18.0.0, SVG Export Plug-In . SVG Version: 6.00 Build 0)  -->
<!DOCTYPE svg PUBLIC "-//W3C//DTD SVG 1.1//EN" "http://www.w3.org/Graphics/SVG/1.1/DTD/svg11.dtd">
<svg version="1.1" id="Layer_1" xmlns="http://www.w3.org/2000/svg" xmlns:xlink="http://www.w3.org/1999/xlink" x="0px" y="0px"
	 viewBox="0 0 179.2 78.9" enable-background="new 0 0 179.2 78.9" xml:space="preserve">
<g>
	<path fill="#FFFFFF" d="M52.9,51.8L53.6,40c0.2-4,0.5-8.1,0.7-10.5l-8.4,19.4h-3.1l-3.2-19.4c-0.3,2.8-1.2,7.1-2,10.9l-2.5,11.4H32
		l5.8-25.6h4.1l3.1,18.9l7.9-18.9h4.5L56,51.8H52.9z"/>
	<path fill="#FFFFFF" d="M84,36.1c0,6.8-3.2,16.2-12.6,16.2c-5.6,0-9.1-3.6-9.1-10.3c0-6.6,3.2-16.2,12.6-16.2
		C80.5,25.7,84,29.4,84,36.1z M65.7,42.3c0,5.1,2.3,7.3,5.9,7.3c7.2,0,9.2-8.4,9.2-14c0-4.9-2.2-7.1-5.9-7.1
		C67.7,28.4,65.7,36.7,65.7,42.3z"/>
	<path fill="#FFFFFF" d="M89,49.1h12.6l-0.7,2.8h-16l0.4-2.6L101,28.9H89.5l0.4-2.7h15l-0.3,2.6L89,49.1z"/>
	<path fill="#FFFFFF" d="M111.5,51.8l-4.6-25.6h3.4l3.4,22.2l9.7-22.2h3.4l-11.8,25.6H111.5z"/>
	<path fill="#FFFFFF" d="M139.4,40.3l5.2,11.5h-3.5l-4.8-11H132l-1.5,11h-3.2l3.6-25.6h6.4c5.9,0,8.7,2.1,8.7,6.1
		C146,35.6,144.3,39,139.4,40.3z M136.2,38.3c5,0,6.4-3.2,6.4-6.1c0-2.5-1.6-3.5-5.4-3.5h-3.5l-1.3,9.6H136.2z"/>
</g>
<rect x="8.2" y="1" fill="none" stroke="#FFFFFF" stroke-width="2" stroke-miterlimit="10" width="170" height="69.9"/>
<rect x="1" y="8" opacity="0.25" fill="none" stroke="#FFFFFF" stroke-width="2" stroke-miterlimit="10" width="170" height="69.9"/>
<g>
</g>
<g>
</g>
<g>
</g>
<g>
</g>
<g>
</g>
<g>
</g>
<g>
</g>
<g>
</g>
<g>
</g>
<g>
</g>
<g>
</g>
<g>
</g>
<g>
</g>
<g>
</g>
<g>
</g>
</svg>
